<?xml version="1.0" encoding="utf-8"?>
<!-- Generator: Adobe Illustrator 27.0.1, SVG Export Plug-In . SVG Version: 6.00 Build 0)  -->
<svg version="1.1" id="Ebene_1" xmlns="http://www.w3.org/2000/svg" xmlns:xlink="http://www.w3.org/1999/xlink" x="0px" y="0px"
	 width="83px" height="100px" viewBox="0 0 83 100" style="enable-background:new 0 0 83 100;" xml:space="preserve">
<style type="text/css">
	.st0{fill:#e6e6e6;}
	.st1{clip-path:url(#SVGID_00000025407372170451333900000016374762105833336505_);fill:#456879;}
	.st2{clip-path:url(#SVGID_00000180358883929963493470000017723902209694794915_);fill:#456879;}
	.st3{clip-path:url(#SVGID_00000110448148851762263910000016364314656455746478_);fill:#214669;}
	.st4{clip-path:url(#SVGID_00000006671332838490683310000018323615082207154566_);}
	.st5{fill:#214669;}
	.st6{clip-path:url(#SVGID_00000005235878515874311910000004323758932015914173_);}
	.st7{clip-path:url(#SVGID_00000060004156294428490410000000174147019183428772_);fill:#214669;}
	.st8{clip-path:url(#SVGID_00000103964278233043189190000002448090390404621196_);fill:#456879;}
	.st9{clip-path:url(#SVGID_00000115508267852268008610000011279425524693108655_);fill:#214669;}
	.st10{fill:#00732C;}
	.st11{clip-path:url(#SVGID_00000085942647434438759570000003557894679512924576_);fill:#456879;}
	.st12{clip-path:url(#SVGID_00000155837864062492063950000006184127207208824765_);fill:#00732C;}
	.st13{fill:#456879;}
	.st14{clip-path:url(#SVGID_00000182497102344405358980000015063506979575108505_);fill:#004622;}
	.st15{clip-path:url(#SVGID_00000073705995950285808300000012938277248918222736_);fill:#004622;}
	.st16{clip-path:url(#SVGID_00000147903590518050631920000012790718869878887577_);fill:#3D3B3D;}
	.st17{clip-path:url(#SVGID_00000093178280615455399350000010383570799572613030_);fill:#3D3B3D;}
	.st18{clip-path:url(#SVGID_00000076592066008257132680000017332488546979185837_);fill:#CD2619;}
	.st19{clip-path:url(#SVGID_00000075850460782288632280000000792912873140596133_);fill:#8B1F21;}
	.st20{clip-path:url(#SVGID_00000008855407583991245640000018134552722913253529_);fill:#8B1F21;}
	.st21{clip-path:url(#SVGID_00000000944274002708521470000005515966107469945239_);fill:#8B1F21;}
	.st22{clip-path:url(#SVGID_00000116923903652092174600000011621758134308822165_);fill:#F2A823;}
	.st23{clip-path:url(#SVGID_00000057855023508218485980000002759305194843993531_);fill:#214669;}
	.st24{fill:#3C3A3D;}
	.st25{fill:#8B1F21;}
	.st26{fill:#F2A823;}
	.st27{clip-path:url(#SVGID_00000069370017582234911180000003655815572366096044_);fill:#8B1F21;}
	.st28{clip-path:url(#SVGID_00000056412027124542689540000006511404726791594372_);fill:#3D3B3D;}
	.st29{clip-path:url(#SVGID_00000150806953827220589680000010772442376647494034_);fill:#3C3A3D;}
	.st30{clip-path:url(#SVGID_00000041999992616015616710000003662770415273452716_);fill:#3C3A3D;}
	.st31{clip-path:url(#SVGID_00000147214995418335612230000000278349152669764264_);fill:#3C3A3D;}
	.st32{clip-path:url(#SVGID_00000008836349446669022180000013226739015989200549_);fill:#3C3A3D;}
	.st33{clip-path:url(#SVGID_00000065058966586729673660000016779246891312370572_);fill:#3D3B3D;}
	.st34{clip-path:url(#SVGID_00000170241849921027084460000001863525441785644705_);fill:#3C3A3D;}
	.st35{clip-path:url(#SVGID_00000034780822820662216230000002720968859548453040_);fill:#3D3B3D;}
	.st36{clip-path:url(#SVGID_00000147909040370508791790000018423852530479972514_);fill:#3D3B3D;}
	.st37{clip-path:url(#SVGID_00000180338240296462016670000000518613256102791075_);fill:#3C3A3D;}
	.st38{clip-path:url(#SVGID_00000149373313287277199040000007060093889648727428_);fill:#3D3B3D;}
	.st39{clip-path:url(#SVGID_00000114780853673664570860000017423865979861490621_);fill:#3D3B3D;}
	.st40{clip-path:url(#SVGID_00000142168986877185468570000013226500411926134186_);fill:#3D3B3D;}
	.st41{clip-path:url(#SVGID_00000116216635433371340740000005010208330973175729_);fill:#3D3B3D;}
	.st42{clip-path:url(#SVGID_00000012431198406497899160000007698917482620304544_);fill:#3D3B3D;}
	.st43{clip-path:url(#SVGID_00000029035595494351449190000014063397104129939124_);fill:#3D3B3D;}
	.st44{clip-path:url(#SVGID_00000034068096320941738940000018147103381945978022_);fill:#3D3B3D;}
	.st45{clip-path:url(#SVGID_00000022537792268909425320000011411406270980409007_);fill:#3D3B3D;}
	.st46{clip-path:url(#SVGID_00000181050220268101038510000000329747062195734416_);fill:#3D3B3D;}
	.st47{clip-path:url(#SVGID_00000137110918366648513860000015687951181434507688_);fill:#3C3A3D;}
	.st48{clip-path:url(#SVGID_00000000193055686532271070000002846352155038303657_);fill:#3C3A3D;}
	.st49{clip-path:url(#SVGID_00000124156896454344154500000011775637617419535500_);fill:#4D4D4D;}
	.st50{clip-path:url(#SVGID_00000124156896454344154500000011775637617419535500_);fill:#456879;}
	.st51{clip-path:url(#SVGID_00000124156896454344154500000011775637617419535500_);fill:#CD2619;}
	.st52{clip-path:url(#SVGID_00000124156896454344154500000011775637617419535500_);fill:#8B1F21;}
	.st53{clip-path:url(#SVGID_00000124156896454344154500000011775637617419535500_);fill:#004622;}
	.st54{clip-path:url(#SVGID_00000124156896454344154500000011775637617419535500_);fill:#00732C;}
	.st55{clip-path:url(#SVGID_00000124156896454344154500000011775637617419535500_);fill:#F2A823;}
	.st56{fill:#FFFFFF;stroke:#000000;stroke-miterlimit:10;}
	.st57{clip-path:url(#SVGID_00000105408043503827947250000014279480300379160196_);fill:#004622;}
	.st58{fill:#3D3B3D;}
	.st59{clip-path:url(#SVGID_00000041285862448709189720000016459615619031493550_);fill:#3D3B3D;}
</style>
<path class="st0" d="M41.5,8.3c18.3,0,33,15,33.3,33.3C75,60,59.9,74.9,41.5,74.9S8,60,8.2,41.6C8.5,23.3,23.2,8.3,41.5,8.3z"/>
<g>
	<g>
		<polygon class="st13" points="57.7,48.4 25,48.4 21.4,43 61.3,43 58.4,47.6 		"/>
		<path class="st13" d="M54.9,57.5c-0.4,0.2-0.9,0.4-1.3,0.6c-7.8,3.5-16.8,3.5-24.6,0c-0.4-0.2-0.9-0.4-1.3-0.6L26.8,57
			c-1.1-0.5-1.8-1.7-1.8-2.9V51h32.7v3.1c0,1.2-0.7,2.4-1.8,2.9L54.9,57.5z"/>
	</g>
</g>
<g>
	<defs>
		<rect id="SVGID_00000155855871565675378010000017354492698498911622_" x="0.5" y="0.5" width="82" height="99"/>
	</defs>
	<clipPath id="SVGID_00000098207467025481007530000009716569479084052379_">
		<use xlink:href="#SVGID_00000155855871565675378010000017354492698498911622_"  style="overflow:visible;"/>
	</clipPath>
	<path style="clip-path:url(#SVGID_00000098207467025481007530000009716569479084052379_);fill:#456879;" d="M71.5,69.5
		c6.8-7.3,11-17.1,11-27.9c0-22.6-18.4-41-41-41c-22.6,0-41,18.4-41,41c0,11.1,4.5,21.3,11.8,28.7l0,0l0.2,0.2
		c0.1,0.1,0.2,0.2,0.3,0.3l29.2,28.2L70,71c0.3-0.3,0.6-0.6,0.9-0.9L71.5,69.5L71.5,69.5z M41.5,8.9c18,0,32.4,14.7,32.6,32.6
		c0.3,18-14.6,32.6-32.6,32.6S8.6,59.5,8.9,41.5C9.1,23.5,23.5,8.9,41.5,8.9z"/>
</g>
<path class="st13" d="M65,34.7c-0.2-0.9-0.9-1.7-1.7-2.1l-10.8-5.3l-11.1-5.4l-12.5,6.1l-9.4,4.6c-0.8,0.4-1.5,1.2-1.7,2.1
	c-0.3,0.9-0.1,1.9,0.4,2.7l2.7,4.2h41l2.7-4.2C65.1,36.6,65.3,35.6,65,34.7z M52.6,36l-4.8-0.1c-2,2-3.7,1.8-3.7,1.8
	c0,1.1-0.4,1.6-0.4,1.6h-3.9c0,0-0.4-0.5-0.4-1.6c0,0-1.7,0.2-3.7-1.8L31.1,36c0,0-4.1-2.1-4.2-4.8h10.5c0,0,0.3,1.3,1.9,1.9
	c0,0,1.1,0,1.5-0.8c0.4-0.8,0.3-1.1,0.3-1.1h-1c0,0-0.2-1.2,0.7-1.2s1.8,0,1.8,0s0,0.5,0.5,1.4c0.5,0.8,0.9,1.4,1.2,1.8
	c0.1,0,0.1,0,0.1,0c1.6-0.6,1.9-1.9,1.9-1.9h10.5C56.8,33.9,52.6,36,52.6,36z"/>
</svg>
