<svg id="Ebene_1" data-name="Ebene 1" xmlns="http://www.w3.org/2000/svg" xmlns:xlink="http://www.w3.org/1999/xlink" width="83" height="100" viewBox="0 0 83 100">
  <defs>
    <style>
      .cls-1 {
        fill: none;
      }

      .cls-2 {
        clip-path: url(#clip-path);
      }

      .cls-3 {
        fill: #3c3a3d;
      }

      .cls-4 {
        clip-path: url(#clip-path-2);
      }

      .cls-5 {
        fill: #3d3b3d;
      }

      .cls-6 {
        clip-path: url(#clip-path-3);
      }
    </style>
    <clipPath id="clip-path">
      <rect class="cls-1" x="16.32" y="31.38" width="50.28" height="32.39"/>
    </clipPath>
    <clipPath id="clip-path-2">
      <rect class="cls-1" x="0.44" y="0.49" width="82.05" height="99.02"/>
    </clipPath>
    <clipPath id="clip-path-3">
      <rect class="cls-1" x="2.94" y="4.95" width="77.11" height="29.16"/>
    </clipPath>
  </defs>
  <g class="cls-2">
    <path class="cls-3" d="M40.4,39.27a1.79,1.79,0,0,0-1.48-2.13,2,2,0,0,0-2.37,1.33l-.92,3.6L32.78,31.38l-2.34,5.38,2.13,9h-14l-2.27,3.95H33.63L31.5,58.21l2.67,5.5,2-7.91Zm6,0a1.77,1.77,0,0,0-1.47-2.13,2,2,0,0,0-2.37,1.33L37.76,57a1.78,1.78,0,0,0,1.48,2.13,2,2,0,0,0,2.37-1.33Zm4.71,6.5,2.68-9.86-3.28-4.45L47.12,44.85,44,57a1.77,1.77,0,0,0,1.48,2.13,2,2,0,0,0,2.36-1.33l.93-3.64,2.57,9.61,2.34-5.38-2.06-8.67h12.7l2.27-3.95Z"/>
  </g>
  <g class="cls-4">
    <path class="cls-5" d="M71.48,69.45a41,41,0,1,0-71-27.93A40.91,40.91,0,0,0,12.19,70.18v0l.19.18.28.27L41.82,98.91,70,71c.3-.29.6-.58.89-.89l.59-.57Zm-30-60.58A32.87,32.87,0,0,1,74.11,41.52c.25,18-14.64,32.64-32.65,32.64S8.57,59.52,8.82,41.52A32.86,32.86,0,0,1,41.46,8.87Z"/>
  </g>
  <g class="cls-6">
    <path class="cls-3" d="M41.22,5H37.78C27.63,5,3,34.11,3,34.11H14.13v0l7.57-7.57H61.85l7.57,7.57v0l10.63-1.15S54.28,5,41.22,5"/>
  </g>
</svg>
