<svg id="Ebene_1" data-name="Ebene 1" xmlns="http://www.w3.org/2000/svg" xmlns:xlink="http://www.w3.org/1999/xlink" width="83" height="100" viewBox="0 0 83 100">
  <defs>
    <style>
      .cls-1 {
        fill: none;
      }

      .cls-2 {
        clip-path: url(#clip-path);
      }

      .cls-3 {
        fill: #3c3a3d;
      }

      .cls-4 {
        clip-path: url(#clip-path-2);
      }

      .cls-5 {
        clip-path: url(#clip-path-3);
      }

      .cls-6 {
        fill: #3d3b3d;
      }
    </style>
    <clipPath id="clip-path">
      <rect class="cls-1" x="14.22" y="30.38" width="32.01" height="20.62"/>
    </clipPath>
    <clipPath id="clip-path-2">
      <rect class="cls-1" x="36.48" y="30.38" width="32.01" height="20.62"/>
    </clipPath>
    <clipPath id="clip-path-3">
      <rect class="cls-1" x="0.44" y="0.49" width="82.05" height="99.02"/>
    </clipPath>
  </defs>
  <g>
    <g class="cls-2">
      <path class="cls-3" d="M29.55,35.4a1.14,1.14,0,0,0-.94-1.35,1.27,1.27,0,0,0-1.51.85l-.58,2.29L24.7,30.38,23.21,33.8l1.36,5.74H15.66l-1.44,2.51h11l-1.35,5.41L25.58,51l1.27-5Zm3.79,0a1.12,1.12,0,0,0-.94-1.35,1.27,1.27,0,0,0-1.51.85l-3,11.79a1.14,1.14,0,0,0,.94,1.36,1.27,1.27,0,0,0,1.51-.85Zm3,4.14L38,33.27,36,30.43,33.83,39l-2,7.73a1.13,1.13,0,0,0,.94,1.36,1.26,1.26,0,0,0,1.5-.85l.6-2.32L36.52,51,38,47.58,36.7,42.05h8.09l1.44-2.51Z"/>
    </g>
    <g class="cls-4">
      <path class="cls-3" d="M51.8,35.4a1.12,1.12,0,0,0-.94-1.35,1.26,1.26,0,0,0-1.5.85l-.59,2.29L47,30.38,45.46,33.8l1.36,5.74h-8.9l-1.44,2.51h11l-1.36,5.41,1.7,3.5,1.27-5Zm3.8,0a1.14,1.14,0,0,0-.94-1.35,1.27,1.27,0,0,0-1.51.85l-3,11.79a1.13,1.13,0,0,0,.94,1.36,1.26,1.26,0,0,0,1.5-.85Zm3,4.14,1.71-6.27-2.09-2.84L56.08,39l-2,7.73A1.14,1.14,0,0,0,55,48.05a1.27,1.27,0,0,0,1.51-.85l.59-2.32L58.78,51l1.49-3.42L59,42.05H67l1.45-2.51Z"/>
    </g>
  </g>
  <g class="cls-5">
    <path class="cls-6" d="M71.48,69.45a41,41,0,1,0-71-27.93A40.91,40.91,0,0,0,12.19,70.18v0l.19.18.28.27L41.82,98.91,70,71c.3-.29.6-.58.89-.89l.59-.57Zm-30-60.58A32.87,32.87,0,0,1,74.11,41.52c.25,18-14.64,32.64-32.65,32.64S8.57,59.52,8.82,41.52A32.86,32.86,0,0,1,41.46,8.87Z"/>
  </g>
</svg>
