<svg id="Ebene_1" data-name="Ebene 1" xmlns="http://www.w3.org/2000/svg" xmlns:xlink="http://www.w3.org/1999/xlink" width="83" height="100" viewBox="0 0 83 100">
  <defs>
    <style>
      .cls-1 {
        fill: none;
      }

      .cls-2 {
        clip-path: url(#clip-path);
      }

      .cls-3 {
        fill: #3d3b3d;
      }

      .cls-4 {
        clip-path: url(#clip-path-2);
      }

      .cls-5 {
        fill: #3c3a3d;
      }
    </style>
    <clipPath id="clip-path">
      <rect class="cls-1" x="0.44" y="0.49" width="82.05" height="99.02"/>
    </clipPath>
    <clipPath id="clip-path-2">
      <rect class="cls-1" x="15.74" y="24.49" width="50.28" height="32.39"/>
    </clipPath>
  </defs>
  <g class="cls-2">
    <path class="cls-3" d="M71.48,69.45a41,41,0,1,0-71-27.93A40.91,40.91,0,0,0,12.19,70.18v0l.19.18.28.27L41.82,98.91,70,71c.3-.29.6-.58.89-.89l.59-.57Zm-30-60.58A32.87,32.87,0,0,1,74.11,41.52c.25,18-14.64,32.64-32.65,32.64S8.57,59.52,8.82,41.52A32.86,32.86,0,0,1,41.46,8.87Z"/>
  </g>
  <g class="cls-4">
    <path class="cls-5" d="M39.81,32.39a1.77,1.77,0,0,0-1.48-2.13A2,2,0,0,0,36,31.59l-.92,3.6-2.86-10.7-2.34,5.38,2.13,9H18l-2.26,3.94H33.05l-2.13,8.49,2.66,5.51,2-7.91Zm6,0a1.78,1.78,0,0,0-1.48-2.13,2,2,0,0,0-2.36,1.33L37.18,50.12a1.77,1.77,0,0,0,1.48,2.13A2,2,0,0,0,41,50.92Zm4.7,6.5L53.15,29l-3.28-4.45L46.53,38,43.42,50.12a1.78,1.78,0,0,0,1.48,2.13,2,2,0,0,0,2.36-1.33l.94-3.64,2.56,9.61,2.34-5.38-2.05-8.68h12.7L66,38.89Z"/>
  </g>
</svg>
