<?xml version="1.0" encoding="UTF-8" standalone="no"?>
<svg xmlns:dc="http://purl.org/dc/elements/1.1/" xmlns:cc="http://creativecommons.org/ns#" xmlns:rdf="http://www.w3.org/1999/02/22-rdf-syntax-ns#" xmlns:svg="http://www.w3.org/2000/svg" xmlns="http://www.w3.org/2000/svg" version="1.1" viewBox="0 0 299 217" data-name="Layer 1" id="Layer_1">
  <metadata id="metadata89"/>
  <defs id="defs4">
    <style id="style2">.cls-1,.cls-2{fill:#747373;}.cls-1{opacity:0.3;}.cls-3{fill:#b9b9b9;}</style>
  </defs>
  <title id="title6">NEU</title>
  <rect id="rect8" transform="translate(108.71 326.33) rotate(180)" height="108.33" width="108.33" y="109" x="0.19" class="cls-1"/>
  <rect id="rect10" transform="translate(108.71 109.67) rotate(180)" height="108.33" width="108.33" y="0.67" x="0.19" class="cls-2"/>
  <path id="path12" d="M129.61,149.32a10.23,10.23,0,0,1-4.07-2,3.78,3.78,0,0,1-1.27-2.89,4,4,0,0,1,1.56-3.22,6.19,6.19,0,0,1,4-1.28,6.75,6.75,0,0,1,3,.66,5,5,0,0,1,2.06,1.81,4.63,4.63,0,0,1,.73,2.53H133.5a3,3,0,0,0-1-2.36,3.87,3.87,0,0,0-2.69-.86,4,4,0,0,0-2.51.71,2.37,2.37,0,0,0-.9,2,2.13,2.13,0,0,0,.86,1.71,8.38,8.38,0,0,0,2.91,1.28,13.5,13.5,0,0,1,3.22,1.28,4.89,4.89,0,0,1,1.72,1.63,4.15,4.15,0,0,1,.56,2.19,3.85,3.85,0,0,1-1.56,3.21A6.66,6.66,0,0,1,130,156.9a7.75,7.75,0,0,1-3.17-.65,5.34,5.34,0,0,1-2.27-1.78,4.36,4.36,0,0,1-.8-2.57h2.19a2.84,2.84,0,0,0,1.11,2.36,4.65,4.65,0,0,0,3,.87,4.27,4.27,0,0,0,2.64-.7,2.28,2.28,0,0,0,.92-1.92,2.24,2.24,0,0,0-.85-1.87A9.82,9.82,0,0,0,129.61,149.32Z" class="cls-3"/>
  <path id="path14" d="M141.45,141.45v3h2.29V146h-2.29v7.61a1.69,1.69,0,0,0,.31,1.11,1.29,1.29,0,0,0,1,.37,5,5,0,0,0,1-.14v1.69a6.12,6.12,0,0,1-1.61.23,2.61,2.61,0,0,1-2.12-.85,3.65,3.65,0,0,1-.71-2.41V146h-2.23v-1.62h2.23v-3Z" class="cls-3"/>
  <path id="path16" d="M145.68,141.16a1.25,1.25,0,0,1,.31-.86,1.17,1.17,0,0,1,.92-.35,1.19,1.19,0,0,1,.93.35,1.24,1.24,0,0,1,.32.86,1.24,1.24,0,1,1-2.48,0Zm2.27,15.51h-2.1V144.42h2.1Z" class="cls-3"/>
  <path id="path18" d="M151.89,156.67V146H150v-1.62h1.94v-1.26a4.17,4.17,0,0,1,1.05-3,4,4,0,0,1,3-1.08,5.55,5.55,0,0,1,1.44.19l-.11,1.69a6,6,0,0,0-1.13-.1,2,2,0,0,0-1.57.6,2.42,2.42,0,0,0-.56,1.71v1.3h2.62V146H154v10.64Z" class="cls-3"/>
  <path id="path20" d="M162.11,141.45v3h2.29V146h-2.29v7.61a1.69,1.69,0,0,0,.31,1.11,1.29,1.29,0,0,0,1,.37,5,5,0,0,0,1-.14v1.69a6.12,6.12,0,0,1-1.61.23,2.61,2.61,0,0,1-2.12-.85,3.65,3.65,0,0,1-.71-2.41V146h-2.23v-1.62H160v-3Z" class="cls-3"/>
  <path id="path22" d="M174,155.46a4.45,4.45,0,0,1-3.59,1.44,3.81,3.81,0,0,1-3-1.14,4.93,4.93,0,0,1-1-3.37v-8h2.1v7.92q0,2.79,2.27,2.79a3.14,3.14,0,0,0,3.2-1.79v-8.92H176v12.26h-2Z" class="cls-3"/>
  <path id="path24" d="M181,144.42,181,146a4.46,4.46,0,0,1,3.67-1.77q3.89,0,3.92,4.38v8.1h-2.1v-8.11a2.82,2.82,0,0,0-.61-2,2.43,2.43,0,0,0-1.85-.63,3,3,0,0,0-1.79.54,3.68,3.68,0,0,0-1.2,1.43v8.74H179V144.42Z" class="cls-3"/>
  <path id="path26" d="M191,150.44a7.21,7.21,0,0,1,1.33-4.56,4.57,4.57,0,0,1,7-.11l.1-1.36h1.91v12a5,5,0,0,1-1.41,3.75,5.21,5.21,0,0,1-3.79,1.37,6.31,6.31,0,0,1-2.59-.57,4.46,4.46,0,0,1-1.94-1.55l1.09-1.26a4.1,4.1,0,0,0,3.3,1.67,3.21,3.21,0,0,0,2.38-.86,3.29,3.29,0,0,0,.86-2.42v-1.05a4.31,4.31,0,0,1-3.43,1.45,4.19,4.19,0,0,1-3.48-1.73A7.57,7.57,0,0,1,191,150.44Zm2.11.24a5.5,5.5,0,0,0,.85,3.26,2.76,2.76,0,0,0,2.38,1.18,3.07,3.07,0,0,0,2.91-1.8v-5.6a3.11,3.11,0,0,0-2.89-1.76,2.79,2.79,0,0,0-2.39,1.19A6,6,0,0,0,193.12,150.68Z" class="cls-3"/>
  <path id="path28" d="M126.4,174.47l.07,1.54a4.46,4.46,0,0,1,3.67-1.77q3.89,0,3.92,4.38v8.1H132v-8.11a2.82,2.82,0,0,0-.61-2,2.43,2.43,0,0,0-1.85-.63,3,3,0,0,0-1.79.54,3.68,3.68,0,0,0-1.2,1.43v8.74h-2.1V174.47Z" class="cls-3"/>
  <path id="path30" d="M136.86,171.21a1.25,1.25,0,0,1,.31-.86,1.17,1.17,0,0,1,.92-.35,1.19,1.19,0,0,1,.93.35,1.24,1.24,0,0,1,.32.86,1.24,1.24,0,1,1-2.48,0Zm2.27,15.51H137V174.47h2.1Z" class="cls-3"/>
  <path id="path32" d="M147.2,187a5.35,5.35,0,0,1-4.06-1.64,6.07,6.07,0,0,1-1.56-4.38v-.38a7.36,7.36,0,0,1,.7-3.26,5.44,5.44,0,0,1,1.95-2.24,4.9,4.9,0,0,1,2.71-.81,4.59,4.59,0,0,1,3.72,1.58,6.82,6.82,0,0,1,1.33,4.51v.87h-8.3a4.35,4.35,0,0,0,1.06,2.93,3.33,3.33,0,0,0,2.58,1.12,3.66,3.66,0,0,0,1.88-.45,4.76,4.76,0,0,0,1.35-1.2l1.28,1A5.15,5.15,0,0,1,147.2,187Zm-.26-11a2.79,2.79,0,0,0-2.13.92,4.48,4.48,0,0,0-1.07,2.59h6.14v-.16a4,4,0,0,0-.86-2.48A2.63,2.63,0,0,0,146.94,176Z" class="cls-3"/>
  <path id="path34" d="M153.78,180.49a7.18,7.18,0,0,1,1.34-4.54,4.55,4.55,0,0,1,6.91-.24v-6.39h2.1v17.4h-1.93l-.1-1.31a4.27,4.27,0,0,1-3.5,1.54,4.19,4.19,0,0,1-3.47-1.75,7.27,7.27,0,0,1-1.34-4.55Zm2.1.24a5.44,5.44,0,0,0,.86,3.26,2.78,2.78,0,0,0,2.38,1.18,3.06,3.06,0,0,0,2.91-1.79v-5.63a3.08,3.08,0,0,0-2.89-1.73,2.8,2.8,0,0,0-2.4,1.19A6,6,0,0,0,155.87,180.73Z" class="cls-3"/>
  <path id="path36" d="M172.18,187a5.35,5.35,0,0,1-4.06-1.64,6.07,6.07,0,0,1-1.56-4.38v-.38a7.36,7.36,0,0,1,.7-3.26,5.44,5.44,0,0,1,1.95-2.24,4.9,4.9,0,0,1,2.71-.81,4.59,4.59,0,0,1,3.72,1.58,6.82,6.82,0,0,1,1.33,4.51v.87h-8.3a4.35,4.35,0,0,0,1.06,2.93,3.33,3.33,0,0,0,2.58,1.12,3.66,3.66,0,0,0,1.88-.45,4.76,4.76,0,0,0,1.35-1.2l1.28,1A5.15,5.15,0,0,1,172.18,187Zm-.26-11a2.79,2.79,0,0,0-2.13.92,4.48,4.48,0,0,0-1.07,2.59h6.14v-.16a4,4,0,0,0-.86-2.48A2.63,2.63,0,0,0,171.92,176Z" class="cls-3"/>
  <path id="path38" d="M185.17,176.35a6.28,6.28,0,0,0-1-.08,2.76,2.76,0,0,0-2.8,1.76v8.7h-2.1V174.47h2l0,1.42a3.26,3.26,0,0,1,2.92-1.64,2.14,2.14,0,0,1,.93.16Z" class="cls-3"/>
  <path id="path40" d="M194,183.47a1.54,1.54,0,0,0-.64-1.32,6.19,6.19,0,0,0-2.23-.81,10.52,10.52,0,0,1-2.53-.81,3.59,3.59,0,0,1-1.38-1.13,2.71,2.71,0,0,1-.45-1.56,3.18,3.18,0,0,1,1.28-2.55,5,5,0,0,1,3.26-1,5.12,5.12,0,0,1,3.38,1.08,3.42,3.42,0,0,1,1.3,2.75h-2.11a1.89,1.89,0,0,0-.73-1.48,2.73,2.73,0,0,0-1.84-.62,2.86,2.86,0,0,0-1.79.5,1.57,1.57,0,0,0-.65,1.3,1.27,1.27,0,0,0,.6,1.14,7.38,7.38,0,0,0,2.17.74,11.27,11.27,0,0,1,2.54.84,3.72,3.72,0,0,1,1.44,1.17,2.89,2.89,0,0,1,.47,1.67,3.14,3.14,0,0,1-1.31,2.63,5.52,5.52,0,0,1-3.41,1,6.18,6.18,0,0,1-2.61-.52A4.25,4.25,0,0,1,187,185a3.51,3.51,0,0,1-.64-2h2.1a2.17,2.17,0,0,0,.84,1.67,3.27,3.27,0,0,0,2.08.62,3.38,3.38,0,0,0,1.91-.48A1.48,1.48,0,0,0,194,183.47Z" class="cls-3"/>
  <path id="path42" d="M206,186.72a4.38,4.38,0,0,1-.3-1.29,4.67,4.67,0,0,1-3.49,1.52,4.32,4.32,0,0,1-3-1,3.32,3.32,0,0,1-1.16-2.6,3.47,3.47,0,0,1,1.46-3,6.86,6.86,0,0,1,4.1-1.06h2v-1a2.35,2.35,0,0,0-.66-1.75,2.64,2.64,0,0,0-1.94-.65,3.06,3.06,0,0,0-1.88.57,1.67,1.67,0,0,0-.76,1.37h-2.11a2.89,2.89,0,0,1,.65-1.77,4.44,4.44,0,0,1,1.77-1.35,5.93,5.93,0,0,1,2.45-.5,4.85,4.85,0,0,1,3.32,1.06,3.82,3.82,0,0,1,1.25,2.92v5.64a6.89,6.89,0,0,0,.43,2.68v.18Zm-6.21-15.54a1.24,1.24,0,0,1,.31-.86A1.18,1.18,0,0,1,201,170a1.2,1.2,0,0,1,.93.35,1.23,1.23,0,0,1,.32.86,1.14,1.14,0,0,1-1.25,1.2,1.19,1.19,0,0,1-.92-.34A1.22,1.22,0,0,1,199.8,171.19Zm2.73,13.94a3.68,3.68,0,0,0,1.87-.51,3.09,3.09,0,0,0,1.28-1.33v-2.52H204q-3.85,0-3.85,2.25a1.91,1.91,0,0,0,.66,1.54A2.52,2.52,0,0,0,202.53,185.13Zm2.14-13.92a1.26,1.26,0,0,1,.31-.86,1.17,1.17,0,0,1,.92-.35,1.18,1.18,0,0,1,.93.35,1.25,1.25,0,0,1,.32.86,1.14,1.14,0,0,1-1.25,1.2,1.18,1.18,0,0,1-.92-.34A1.22,1.22,0,0,1,204.67,171.21Z" class="cls-3"/>
  <path id="path44" d="M215.6,185.24a3,3,0,0,0,2-.68,2.39,2.39,0,0,0,.93-1.7h2a3.79,3.79,0,0,1-.72,2,4.78,4.78,0,0,1-1.78,1.52,5.16,5.16,0,0,1-2.36.57,5.05,5.05,0,0,1-4-1.67,6.66,6.66,0,0,1-1.48-4.57v-.35a7.38,7.38,0,0,1,.66-3.18,5,5,0,0,1,1.89-2.16,5.36,5.36,0,0,1,2.91-.77,4.92,4.92,0,0,1,3.43,1.24,4.42,4.42,0,0,1,1.46,3.21h-2a2.88,2.88,0,0,0-.9-2,2.8,2.8,0,0,0-2-.76,2.94,2.94,0,0,0-2.48,1.15,5.4,5.4,0,0,0-.88,3.33v.4a5.29,5.29,0,0,0,.87,3.26A3,3,0,0,0,215.6,185.24Z" class="cls-3"/>
  <path id="path46" d="M224.77,175.95a4.46,4.46,0,0,1,3.63-1.71q3.89,0,3.92,4.38v8.1h-2.1v-8.11a2.82,2.82,0,0,0-.61-2,2.43,2.43,0,0,0-1.85-.63,3,3,0,0,0-1.79.54,3.68,3.68,0,0,0-1.2,1.43v8.74h-2.1v-17.4h2.1Z" class="cls-3"/>
  <path id="path48" d="M242.2,183.47a1.54,1.54,0,0,0-.64-1.32,6.19,6.19,0,0,0-2.23-.81,10.52,10.52,0,0,1-2.53-.81,3.59,3.59,0,0,1-1.38-1.13,2.7,2.7,0,0,1-.45-1.56,3.18,3.18,0,0,1,1.28-2.55,5,5,0,0,1,3.26-1,5.12,5.12,0,0,1,3.38,1.08,3.42,3.42,0,0,1,1.3,2.75h-2.11a1.89,1.89,0,0,0-.73-1.48,2.74,2.74,0,0,0-1.84-.62,2.86,2.86,0,0,0-1.79.5,1.57,1.57,0,0,0-.65,1.3,1.27,1.27,0,0,0,.6,1.14,7.37,7.37,0,0,0,2.17.74,11.25,11.25,0,0,1,2.54.84,3.71,3.71,0,0,1,1.45,1.17,2.89,2.89,0,0,1,.47,1.67A3.14,3.14,0,0,1,243,186a5.52,5.52,0,0,1-3.41,1,6.17,6.17,0,0,1-2.61-.52,4.24,4.24,0,0,1-1.77-1.46,3.51,3.51,0,0,1-.64-2h2.1a2.17,2.17,0,0,0,.84,1.67,3.27,3.27,0,0,0,2.08.62,3.37,3.37,0,0,0,1.91-.48A1.48,1.48,0,0,0,242.2,183.47Z" class="cls-3"/>
  <path id="path50" d="M246.64,171.21a1.25,1.25,0,0,1,.31-.86,1.17,1.17,0,0,1,.92-.35,1.19,1.19,0,0,1,.93.35,1.24,1.24,0,0,1,.32.86,1.19,1.19,0,0,1-.32.85,1.21,1.21,0,0,1-.93.34,1.19,1.19,0,0,1-.92-.34A1.21,1.21,0,0,1,246.64,171.21Zm2.27,15.51h-2.1V174.47h2.1Z" class="cls-3"/>
  <path id="path52" d="M259,183.47a1.54,1.54,0,0,0-.64-1.32,6.19,6.19,0,0,0-2.23-.81,10.52,10.52,0,0,1-2.53-.81,3.59,3.59,0,0,1-1.38-1.13,2.7,2.7,0,0,1-.45-1.56,3.18,3.18,0,0,1,1.28-2.55,5,5,0,0,1,3.26-1,5.12,5.12,0,0,1,3.38,1.08,3.42,3.42,0,0,1,1.3,2.75h-2.11a1.89,1.89,0,0,0-.73-1.48,2.74,2.74,0,0,0-1.84-.62,2.86,2.86,0,0,0-1.79.5,1.57,1.57,0,0,0-.65,1.3,1.27,1.27,0,0,0,.6,1.14,7.37,7.37,0,0,0,2.17.74,11.25,11.25,0,0,1,2.54.84,3.71,3.71,0,0,1,1.45,1.17,2.89,2.89,0,0,1,.47,1.67,3.14,3.14,0,0,1-1.32,2.63,5.52,5.52,0,0,1-3.41,1,6.17,6.17,0,0,1-2.61-.52,4.24,4.24,0,0,1-1.77-1.46,3.51,3.51,0,0,1-.64-2h2.1a2.17,2.17,0,0,0,.84,1.67,3.27,3.27,0,0,0,2.08.62,3.37,3.37,0,0,0,1.91-.48A1.48,1.48,0,0,0,259,183.47Z" class="cls-3"/>
  <path id="path54" d="M268.35,185.24a3,3,0,0,0,2-.68,2.39,2.39,0,0,0,.93-1.7h2a3.79,3.79,0,0,1-.72,2,4.78,4.78,0,0,1-1.78,1.52,5.16,5.16,0,0,1-2.36.57,5.05,5.05,0,0,1-4-1.67,6.66,6.66,0,0,1-1.48-4.57v-.35a7.37,7.37,0,0,1,.66-3.18,5,5,0,0,1,1.89-2.16,5.37,5.37,0,0,1,2.91-.77,4.92,4.92,0,0,1,3.43,1.24,4.42,4.42,0,0,1,1.46,3.21h-2a2.88,2.88,0,0,0-.9-2,2.8,2.8,0,0,0-2-.76,2.93,2.93,0,0,0-2.47,1.15,5.4,5.4,0,0,0-.88,3.33v.4a5.29,5.29,0,0,0,.87,3.26A2.94,2.94,0,0,0,268.35,185.24Z" class="cls-3"/>
  <path id="path56" d="M277.51,175.95a4.46,4.46,0,0,1,3.63-1.71q3.89,0,3.92,4.38v8.1H283v-8.11a2.82,2.82,0,0,0-.61-2,2.43,2.43,0,0,0-1.85-.63,3,3,0,0,0-1.79.54,3.68,3.68,0,0,0-1.2,1.43v8.74h-2.1v-17.4h2.1Z" class="cls-3"/>
  <path id="path58" d="M293,187a5.35,5.35,0,0,1-4.06-1.64,6.07,6.07,0,0,1-1.56-4.38v-.38a7.38,7.38,0,0,1,.7-3.26,5.44,5.44,0,0,1,1.95-2.24,4.89,4.89,0,0,1,2.71-.81,4.59,4.59,0,0,1,3.72,1.58,6.81,6.81,0,0,1,1.33,4.51v.87H289.5a4.35,4.35,0,0,0,1.06,2.93,3.33,3.33,0,0,0,2.58,1.12,3.66,3.66,0,0,0,1.88-.45,4.75,4.75,0,0,0,1.35-1.2l1.28,1A5.15,5.15,0,0,1,293,187Zm-.26-11a2.79,2.79,0,0,0-2.13.92,4.48,4.48,0,0,0-1.07,2.59h6.14v-.16a4,4,0,0,0-.86-2.48A2.63,2.63,0,0,0,292.77,176Z" class="cls-3"/>
  <path id="path60" d="M136.93,214.61a5,5,0,0,1-2.34,1.8,9.43,9.43,0,0,1-3.5.6,6.78,6.78,0,0,1-3.58-.95,6.3,6.3,0,0,1-2.42-2.69,9.28,9.28,0,0,1-.88-4v-1.44A8.67,8.67,0,0,1,126,202.1a6.06,6.06,0,0,1,4.89-2.05,6.26,6.26,0,0,1,4.16,1.32,5.75,5.75,0,0,1,1.93,3.75h-2.18a3.6,3.6,0,0,0-3.9-3.29,3.85,3.85,0,0,0-3.31,1.54,7.5,7.5,0,0,0-1.14,4.45v1.35a7,7,0,0,0,1.27,4.42,4.11,4.11,0,0,0,3.43,1.64,7.56,7.56,0,0,0,2.14-.27,3.31,3.31,0,0,0,1.52-.91v-3.7h-3.82v-1.78h6Z" class="cls-3"/>
  <path id="path62" d="M145.08,217a5.35,5.35,0,0,1-4.06-1.64,6.07,6.07,0,0,1-1.56-4.38v-.38a7.36,7.36,0,0,1,.7-3.26,5.44,5.44,0,0,1,1.95-2.24,4.9,4.9,0,0,1,2.71-.81,4.59,4.59,0,0,1,3.72,1.58,6.82,6.82,0,0,1,1.33,4.51v.87h-8.3a4.35,4.35,0,0,0,1.06,2.93,3.33,3.33,0,0,0,2.58,1.12,3.66,3.66,0,0,0,1.88-.45,4.76,4.76,0,0,0,1.35-1.2l1.28,1A5.15,5.15,0,0,1,145.08,217Zm-.26-11a2.79,2.79,0,0,0-2.13.92,4.48,4.48,0,0,0-1.07,2.59h6.14v-.16a4,4,0,0,0-.86-2.48A2.63,2.63,0,0,0,144.82,206Z" class="cls-3"/>
  <path id="path64" d="M151.66,210.54A7.18,7.18,0,0,1,153,206a4.55,4.55,0,0,1,6.91-.24v-6.39H162v17.4h-1.93l-.1-1.31a4.27,4.27,0,0,1-3.5,1.54,4.19,4.19,0,0,1-3.47-1.75,7.27,7.27,0,0,1-1.34-4.55Zm2.1.24a5.44,5.44,0,0,0,.86,3.26,2.78,2.78,0,0,0,2.38,1.18,3.06,3.06,0,0,0,2.91-1.79V207.8a3.08,3.08,0,0,0-2.89-1.73,2.8,2.8,0,0,0-2.4,1.19A6,6,0,0,0,153.75,210.78Z" class="cls-3"/>
  <path id="path66" d="M170.06,217a5.35,5.35,0,0,1-4.06-1.64,6.07,6.07,0,0,1-1.56-4.38v-.38a7.36,7.36,0,0,1,.7-3.26,5.44,5.44,0,0,1,1.95-2.24,4.9,4.9,0,0,1,2.71-.81,4.59,4.59,0,0,1,3.72,1.58,6.82,6.82,0,0,1,1.33,4.51v.87h-8.3a4.35,4.35,0,0,0,1.06,2.93,3.33,3.33,0,0,0,2.58,1.12,3.66,3.66,0,0,0,1.88-.45,4.76,4.76,0,0,0,1.35-1.2l1.28,1A5.15,5.15,0,0,1,170.06,217Zm-.26-11a2.79,2.79,0,0,0-2.13.92,4.48,4.48,0,0,0-1.07,2.59h6.14v-.16a4,4,0,0,0-.86-2.48A2.63,2.63,0,0,0,169.8,206Z" class="cls-3"/>
  <path id="path68" d="M179.14,204.51l.07,1.54a4.46,4.46,0,0,1,3.67-1.77q3.89,0,3.92,4.38v8.1h-2.1v-8.11a2.82,2.82,0,0,0-.61-2,2.43,2.43,0,0,0-1.85-.63,3,3,0,0,0-1.79.54,3.68,3.68,0,0,0-1.2,1.43v8.74h-2.1V204.51Z" class="cls-3"/>
  <path id="path70" d="M193.12,211.1l-1.31,1.37v4.31h-2.1v-17.4h2.1V209.9l1.12-1.35,3.82-4h2.55l-4.77,5.12,5.33,7.14h-2.46Z" class="cls-3"/>
  <path id="path72" d="M208,213.52a1.54,1.54,0,0,0-.64-1.32,6.19,6.19,0,0,0-2.23-.81,10.52,10.52,0,0,1-2.53-.81,3.59,3.59,0,0,1-1.38-1.13,2.71,2.71,0,0,1-.45-1.56,3.18,3.18,0,0,1,1.28-2.55,5,5,0,0,1,3.26-1,5.12,5.12,0,0,1,3.38,1.08,3.42,3.42,0,0,1,1.3,2.75h-2.11a1.89,1.89,0,0,0-.73-1.48,2.73,2.73,0,0,0-1.84-.62,2.86,2.86,0,0,0-1.79.5,1.57,1.57,0,0,0-.65,1.3,1.27,1.27,0,0,0,.6,1.14,7.38,7.38,0,0,0,2.17.74,11.27,11.27,0,0,1,2.54.84,3.72,3.72,0,0,1,1.44,1.17,2.89,2.89,0,0,1,.47,1.67,3.14,3.14,0,0,1-1.31,2.63,5.52,5.52,0,0,1-3.41,1,6.18,6.18,0,0,1-2.61-.52A4.25,4.25,0,0,1,201,215a3.51,3.51,0,0,1-.64-2h2.1a2.17,2.17,0,0,0,.84,1.67,3.27,3.27,0,0,0,2.08.62,3.38,3.38,0,0,0,1.91-.48A1.48,1.48,0,0,0,208,213.52Z" class="cls-3"/>
  <path id="path74" d="M215.64,201.54v3h2.29v1.62h-2.29v7.61a1.69,1.69,0,0,0,.31,1.11,1.29,1.29,0,0,0,1,.37,5,5,0,0,0,1-.14v1.69a6.1,6.1,0,0,1-1.61.23,2.61,2.61,0,0,1-2.12-.85,3.65,3.65,0,0,1-.71-2.41v-7.6h-2.23v-1.62h2.23v-3Z" class="cls-3"/>
  <path id="path76" d="M227.58,216.77a4.34,4.34,0,0,1-.29-1.29,4.68,4.68,0,0,1-3.49,1.52,4.32,4.32,0,0,1-3-1,3.32,3.32,0,0,1-1.16-2.6,3.47,3.47,0,0,1,1.46-3,6.86,6.86,0,0,1,4.1-1.06h2v-1a2.35,2.35,0,0,0-.66-1.75,2.64,2.64,0,0,0-1.94-.65,3.06,3.06,0,0,0-1.88.57,1.67,1.67,0,0,0-.76,1.37H219.9a2.89,2.89,0,0,1,.65-1.77,4.44,4.44,0,0,1,1.77-1.35,5.94,5.94,0,0,1,2.45-.5,4.85,4.85,0,0,1,3.32,1.06,3.82,3.82,0,0,1,1.25,2.92v5.64a6.89,6.89,0,0,0,.43,2.68v.18Zm-6.21-15.54a1.23,1.23,0,0,1,.31-.86,1.17,1.17,0,0,1,.92-.35,1.19,1.19,0,0,1,.93.35,1.23,1.23,0,0,1,.32.86,1.14,1.14,0,0,1-1.25,1.2,1.19,1.19,0,0,1-.92-.34A1.22,1.22,0,0,1,221.37,201.23Zm2.73,13.94a3.68,3.68,0,0,0,1.87-.51,3.09,3.09,0,0,0,1.28-1.33v-2.52H225.6q-3.85,0-3.85,2.25a1.91,1.91,0,0,0,.66,1.54A2.52,2.52,0,0,0,224.1,215.18Zm2.14-13.92a1.26,1.26,0,0,1,.31-.86,1.16,1.16,0,0,1,.92-.35,1.18,1.18,0,0,1,.93.35,1.25,1.25,0,0,1,.32.86,1.14,1.14,0,0,1-1.25,1.2,1.18,1.18,0,0,1-.92-.34A1.21,1.21,0,0,1,226.24,201.26Z" class="cls-3"/>
  <path id="path78" d="M235.17,201.54v3h2.29v1.62h-2.29v7.61a1.69,1.69,0,0,0,.31,1.11,1.28,1.28,0,0,0,1,.37,5,5,0,0,0,1-.14v1.69a6.1,6.1,0,0,1-1.61.23,2.61,2.61,0,0,1-2.12-.85,3.65,3.65,0,0,1-.71-2.41v-7.6h-2.23v-1.62h2.23v-3Z" class="cls-3"/>
  <path id="path80" d="M243,201.54v3h2.29v1.62H243v7.61a1.69,1.69,0,0,0,.31,1.11,1.28,1.28,0,0,0,1,.37,5,5,0,0,0,1-.14v1.69a6.1,6.1,0,0,1-1.61.23,2.61,2.61,0,0,1-2.12-.85,3.65,3.65,0,0,1-.71-2.41v-7.6H238.7v-1.62h2.23v-3Z" class="cls-3"/>
  <path id="path82" d="M252.18,217a5.35,5.35,0,0,1-4.06-1.64,6.07,6.07,0,0,1-1.56-4.38v-.38a7.38,7.38,0,0,1,.7-3.26,5.44,5.44,0,0,1,1.95-2.24,4.89,4.89,0,0,1,2.71-.81,4.59,4.59,0,0,1,3.72,1.58,6.81,6.81,0,0,1,1.33,4.51v.87h-8.31a4.35,4.35,0,0,0,1.06,2.93,3.33,3.33,0,0,0,2.58,1.12,3.66,3.66,0,0,0,1.88-.45,4.75,4.75,0,0,0,1.35-1.2l1.28,1A5.15,5.15,0,0,1,252.18,217Zm-.26-11a2.79,2.79,0,0,0-2.13.92,4.48,4.48,0,0,0-1.07,2.59h6.14v-.16a4,4,0,0,0-.86-2.48A2.63,2.63,0,0,0,251.92,206Z" class="cls-3"/>
  <path id="path84" d="M261.25,204.51l.07,1.54a4.46,4.46,0,0,1,3.67-1.77q3.89,0,3.92,4.38v8.1h-2.1v-8.11a2.82,2.82,0,0,0-.61-2,2.43,2.43,0,0,0-1.85-.63,3,3,0,0,0-1.79.54,3.68,3.68,0,0,0-1.2,1.43v8.74h-2.1V204.51Z" class="cls-3"/>
</svg>