<?xml version="1.0" encoding="UTF-8"?>
<!-- Generator: Adobe Illustrator 25.0.1, SVG Export Plug-In . SVG Version: 6.00 Build 0)  -->
<svg xmlns="http://www.w3.org/2000/svg" xmlns:xlink="http://www.w3.org/1999/xlink" version="1.1" id="Ebene_1" x="0px" y="0px" viewBox="0 0 145 50" overflow="visible" xml:space="preserve">
<g>
	<path d="M53.3,23.5c0-1.7-1.1-2.7-2.8-2.7c-2.4,0-3.1,2.3-3.1,4.3c0,2,0.8,4.1,3.1,4.1c1.8,0,2.9-1.5,2.9-3.2h-1.5V25h3.9v0.9h-1.3   v4h-1.1v-1.5c-0.4,1.2-1.8,1.7-3,1.7c-1.3,0-2.5-0.5-3.4-1.7c-0.6-0.8-0.9-2.3-0.9-3.4c0-1.3,0.2-2.7,1.1-3.8c0.8-1,2-1.4,3.3-1.4   c1.1,0,2.2,0.4,2.8,1.4v-1.3h1.1v3.5L53.3,23.5L53.3,23.5z"/>
	<path d="M63.7,26.5h-5.4c0,0.7,0.2,1.4,0.6,2c0.5,0.6,1,0.7,1.7,0.7c0.9,0,1.7-0.7,1.8-1.5h1.1C63.3,29.2,62,30,60.5,30   c-2.4,0-3.4-1.6-3.4-3.8c0-0.8,0.2-1.6,0.5-2.3c0.6-1,1.7-1.6,2.8-1.6c0.7,0,1.5,0.2,2,0.6c0.6,0.5,0.9,1.1,1,1.8   c0.1,0.5,0.2,0.9,0.2,1.5L63.7,26.5L63.7,26.5z M62.5,25.7c0-1.2-0.7-2.4-2-2.4c-1.4,0-2,1.2-2.1,2.4H62.5L62.5,25.7z"/>
	<path d="M70.5,28.5c-0.4,1-1.3,1.6-2.4,1.6c-1,0-1.9-0.5-2.5-1.6c-0.3-0.5-0.5-1.3-0.5-2.3c0-1.9,0.9-3.7,3-3.7   c1,0,1.8,0.4,2.3,1.3l0.1,0.1v-3.1h-1.2v-0.8h2.3v9.1h1.2v0.9h-2.3L70.5,28.5L70.5,28.5z M70.1,28.2c0.3-0.7,0.4-1.2,0.4-2   c0-1.3-0.5-2.9-2-2.9c-0.8,0-1.3,0.3-1.7,0.9c-0.3,0.5-0.5,1.2-0.5,1.8c0,0.5,0,1,0.2,1.4c0.3,1,0.9,1.7,2,1.7   C69.1,29.2,69.8,28.8,70.1,28.2"/>
	<path d="M80.5,26.5h-5.4c0,0.7,0.2,1.4,0.6,2c0.5,0.6,1,0.7,1.7,0.7c0.9,0,1.7-0.7,1.8-1.5h1.1c-0.3,1.6-1.5,2.4-3.1,2.4   C75,30,74,28.5,74,26.3c0-0.8,0.2-1.6,0.5-2.3c0.6-1,1.7-1.6,2.8-1.6c0.7,0,1.5,0.2,2,0.6c0.6,0.5,0.9,1.1,1,1.8   c0.1,0.5,0.2,0.9,0.2,1.5L80.5,26.5L80.5,26.5z M79.3,25.7c0-1.2-0.7-2.4-2-2.4c-1.4,0-2,1.2-2.1,2.4H79.3L79.3,25.7z"/>
	<path d="M84,24c0.4-1.1,1-1.5,2.2-1.5c1.1,0,1.9,0.5,2.2,1.5c0.1,0.3,0.1,0.6,0.1,0.9v4.2h1.1v0.9h-3.4v-0.9h1.1v-3.8   c0-1-0.2-2-1.4-2c-0.4,0-0.6,0-1,0.3c-0.3,0.2-0.5,0.4-0.6,0.7C84,24.8,84,25.5,84,26.1v2.9h1.1v0.9h-3.5v-0.9h1.2v-5.6h-1.2v-0.8   H84L84,24L84,24z"/>
	<polygon points="90.6,29.9 90.6,29.1 91.8,29.1 91.8,20.8 90.6,20.8 90.6,19.9 92.9,19.9 92.9,26.2 95.5,23.5 94.5,23.5 94.5,22.7    97.7,22.7 97.7,23.5 96.7,23.5 95,25.3 97.1,29.1 97.8,29.1 97.8,29.9 94.9,29.9 94.9,29.1 95.8,29.1 94.2,26 92.9,27.3 92.9,29.1    93.9,29.1 93.9,29.9  "/>
	<path d="M103.7,25c0-0.8-0.2-1.3-1-1.6c-0.2-0.1-0.5-0.1-0.7-0.1c-0.8,0-1.6,0.4-1.6,1.3c0,0.2,0.1,0.5,0.3,0.7   c0.4,0.3,0.9,0.3,1.4,0.4c1.3,0.2,2.6,0.5,2.6,2.1c0,0.3,0,0.8-0.2,1c-0.4,0.7-1.1,1.3-2.2,1.3c-1.1,0-1.7-0.3-2.2-1.3v1.2h-0.9   v-2.5h0.9c0.1,0.5,0.2,1,0.7,1.4c0.4,0.3,0.8,0.4,1.3,0.4c0.8,0,1.5-0.5,1.5-1.3c0-1.1-1.1-1.1-1.9-1.2c-1.3-0.2-2.3-0.6-2.3-2   c0-0.4,0-0.9,0.3-1.2c0.6-0.7,1.3-0.9,2.2-0.9c0.7,0,1.5,0.3,1.9,0.9v-0.7h0.9V25L103.7,25L103.7,25z"/>
	<path d="M108.2,22.7h2.1v0.8h-2.1v4.7c0,0.5,0.1,1,0.7,1c0.7,0,0.7-1,0.7-1.5h0.9c0,0.2,0,0.3,0,0.5c0,0.7-0.3,1.4-1,1.7   c-0.3,0.1-0.5,0.1-0.8,0.1c-0.3,0-0.4,0-0.7-0.1c-0.5-0.1-0.8-0.5-0.9-0.9c-0.1-0.3-0.1-1-0.1-1.3v-4.3h-1.3v-0.8h1.3v-1.4l1.1-0.4   L108.2,22.7L108.2,22.7z"/>
	<path d="M116.5,28.5c-0.5,1.1-1.2,1.5-2.4,1.5c-1,0-2-0.4-2.3-1.5c-0.1-0.4-0.1-0.6-0.1-0.7c0-1.6,1.3-2.3,2.8-2.3   c0.3,0,0.5,0,0.8,0h1.1v-0.7c0-0.5-0.1-0.8-0.5-1.2c-0.3-0.3-0.7-0.4-1.1-0.4c-0.6,0-1,0.1-1.5,0.6c-0.2,0.2-0.3,0.6-0.3,0.9H112   c0.1-1,0.6-1.8,1.6-2.1c0.4-0.1,0.8-0.2,1.2-0.2c0.8,0,1.4,0.1,2,0.6c0.6,0.5,0.7,1.1,0.7,1.8v4.2h1.2v0.9h-2.2L116.5,28.5   L116.5,28.5z M114.2,29.2c1.7,0,2.2-1.4,2.2-2.8c-0.3-0.1-0.8-0.1-1.1-0.1c-1.1,0-2.4,0-2.4,1.5C113,28.6,113.4,29.2,114.2,29.2    M114.3,21.3H113v-1.2h1.3V21.3L114.3,21.3z M115.7,20.1h1.3v1.2h-1.3V20.1L115.7,20.1z"/>
	<path d="M121.7,22.7h2.1v0.8h-2.1v4.7c0,0.5,0.1,1,0.7,1c0.7,0,0.7-1,0.7-1.5h0.9c0,0.2,0,0.3,0,0.5c0,0.7-0.3,1.4-1,1.7   c-0.3,0.1-0.5,0.1-0.8,0.1c-0.3,0-0.4,0-0.7-0.1c-0.5-0.1-0.8-0.5-1-0.9c-0.1-0.3-0.1-1-0.1-1.3v-4.3h-1.3v-0.8h1.3v-1.4l1.1-0.4   V22.7L121.7,22.7z"/>
	<path d="M127.1,22.7h2.1v0.8h-2.1v4.7c0,0.5,0.1,1,0.7,1c0.7,0,0.7-1,0.7-1.5h0.9c0,0.2,0,0.3,0,0.5c0,0.7-0.3,1.4-1,1.7   c-0.3,0.1-0.5,0.1-0.8,0.1c-0.3,0-0.4,0-0.7-0.1c-0.5-0.1-0.8-0.5-0.9-0.9c-0.1-0.3-0.1-1-0.1-1.3v-4.3h-1.3v-0.8h1.3v-1.4l1.1-0.4   V22.7L127.1,22.7z"/>
	<path d="M137.3,26.5H132c0,0.7,0.2,1.4,0.6,2c0.5,0.6,1,0.7,1.7,0.7c0.9,0,1.7-0.7,1.8-1.5h1.1c-0.3,1.6-1.5,2.4-3.1,2.4   c-2.4,0-3.4-1.6-3.4-3.8c0-0.8,0.2-1.6,0.5-2.3c0.6-1,1.7-1.6,2.8-1.6c0.7,0,1.5,0.2,2,0.6c0.6,0.5,0.9,1.1,1,1.8   c0.1,0.5,0.2,0.9,0.2,1.5L137.3,26.5L137.3,26.5z M136.1,25.7c0-1.2-0.7-2.4-2-2.4c-1.4,0-2,1.2-2.1,2.4H136.1L136.1,25.7z"/>
	<path d="M53.3,40.2c0-1.7-1.1-2.7-2.8-2.7c-2.4,0-3.1,2.3-3.1,4.3c0,2,0.8,4.1,3.1,4.1c1.8,0,2.9-1.5,2.9-3.2h-1.5v-0.9h3.9v0.9   h-1.3v4h-1.1v-1.5c-0.4,1.2-1.8,1.7-3,1.7c-1.3,0-2.5-0.5-3.4-1.7c-0.6-0.8-0.9-2.3-0.9-3.4c0-1.3,0.2-2.7,1.1-3.8   c0.8-1,2-1.4,3.3-1.4c1.1,0,2.2,0.4,2.8,1.4v-1.3h1.1v3.5L53.3,40.2L53.3,40.2z"/>
	<path d="M63.7,43.3h-5.4c0,0.7,0.2,1.4,0.6,2c0.5,0.6,1,0.7,1.7,0.7c0.9,0,1.7-0.7,1.8-1.5h1.1c-0.3,1.6-1.5,2.4-3.1,2.4   c-2.4,0-3.4-1.6-3.4-3.8c0-0.8,0.2-1.6,0.5-2.3c0.6-1,1.7-1.6,2.8-1.6c0.7,0,1.5,0.2,2,0.6c0.6,0.5,0.9,1.1,1,1.8   c0.1,0.5,0.2,0.9,0.2,1.5L63.7,43.3L63.7,43.3z M62.5,42.4c0-1.2-0.7-2.4-2-2.4c-1.4,0-2,1.2-2.1,2.4H62.5L62.5,42.4z"/>
	<path d="M69.7,41.8c0-0.8-0.2-1.3-1-1.6C68.5,40.1,68.2,40,68,40c-0.8,0-1.5,0.4-1.5,1.3c0,0.2,0.1,0.5,0.3,0.7   c0.4,0.3,0.9,0.3,1.4,0.4c1.3,0.2,2.6,0.5,2.6,2.1c0,0.3,0,0.8-0.2,1c-0.4,0.7-1.1,1.3-2.2,1.3c-1.1,0-1.7-0.3-2.2-1.3v1.2h-0.9   v-2.5h0.9c0.1,0.5,0.2,1,0.7,1.4c0.4,0.3,0.8,0.4,1.3,0.4c0.8,0,1.5-0.5,1.5-1.3c0-1.1-1.1-1.1-1.9-1.2c-1.3-0.2-2.3-0.6-2.3-2   c0-0.4,0-0.9,0.3-1.2c0.6-0.7,1.3-1,2.2-1c0.7,0,1.5,0.3,1.9,1v-0.7h0.9v2.3L69.7,41.8L69.7,41.8z"/>
	<path d="M74.2,39.4h2.1v0.8h-2.1V45c0,0.5,0.1,1,0.7,1c0.7,0,0.7-1,0.7-1.5h0.9c0,0.2,0,0.3,0,0.5c0,0.7-0.3,1.4-1,1.7   c-0.2,0.1-0.5,0.1-0.8,0.1c-0.3,0-0.4,0-0.7-0.1c-0.5-0.1-0.8-0.5-0.9-0.9c-0.1-0.3-0.1-1-0.1-1.3v-4.3h-1.3v-0.8h1.3V38l1.1-0.4   L74.2,39.4L74.2,39.4z"/>
	<path d="M82.5,45.3c-0.5,1.1-1.2,1.5-2.4,1.5c-1,0-2-0.4-2.3-1.5c-0.1-0.3-0.1-0.6-0.1-0.7c0-1.6,1.3-2.3,2.8-2.3   c0.3,0,0.5,0,0.8,0h1.1v-0.7c0-0.5-0.1-0.8-0.5-1.2c-0.3-0.3-0.7-0.4-1.1-0.4c-0.6,0-1,0.1-1.5,0.6c-0.2,0.2-0.3,0.6-0.3,0.9H78   c0.1-1,0.6-1.8,1.6-2.1c0.4-0.1,0.8-0.2,1.2-0.2c0.8,0,1.4,0.1,2,0.6c0.6,0.5,0.7,1.1,0.7,1.8v4.2h1.2v0.9h-2.2L82.5,45.3   L82.5,45.3z M80.3,46c1.7,0,2.2-1.4,2.2-2.8c-0.4-0.1-0.8-0.1-1.1-0.1c-1.1,0-2.4,0-2.4,1.5C79,45.4,79.4,46,80.3,46"/>
	<path d="M87.8,40.8c0.5-1.1,1.3-1.6,2.5-1.6c1.2,0,1.9,0.5,2.5,1.6c0.3,0.6,0.4,1.4,0.4,2.1c0,0.9-0.1,1.9-0.7,2.6   c-0.6,0.8-1.3,1.2-2.3,1.2c-1.1,0-2-0.4-2.5-1.5v2.8H89V49h-3.5v-0.8h1.2v-7.9h-1.1v-0.8h2.3V40.8L87.8,40.8z M88.2,41.1   c-0.4,0.6-0.4,1.2-0.4,1.9c0,0.7,0.1,1.4,0.5,2c0.4,0.6,1,1,1.7,1c1.6,0,2.2-1.5,2.2-2.9c0-0.7-0.1-1.5-0.5-2.1   C91.3,40.4,90.7,40,90,40C89.2,40,88.6,40.4,88.2,41.1"/>
	<path d="M95.4,40.2c0.7-0.7,1.6-1.1,2.6-1.1c2.3,0,3.3,1.8,3.3,3.8c0,2-1.1,3.8-3.4,3.8c-1.1,0-2-0.3-2.6-1.2   c-0.6-0.8-0.8-1.6-0.8-2.6C94.5,42,94.7,41,95.4,40.2 M96.2,45c0.4,0.6,1,0.9,1.7,0.9c0.7,0,1.4-0.5,1.7-1.1   c0.3-0.6,0.4-1.3,0.4-1.9c0-1.4-0.5-2.9-2.2-2.9c-0.8,0-1.4,0.4-1.8,1c-0.3,0.5-0.4,1.3-0.4,1.9C95.7,43.6,95.8,44.4,96.2,45"/>
	<polygon points="102.4,46.7 102.4,45.8 103.6,45.8 103.6,37.5 102.4,37.5 102.4,36.7 104.7,36.7 104.7,43 107.3,40.2 106.2,40.2    106.2,39.4 109.5,39.4 109.5,40.2 108.5,40.2 106.8,42.1 108.9,45.8 109.6,45.8 109.6,46.7 106.7,46.7 106.7,45.8 107.6,45.8    106,42.8 104.7,44.1 104.7,45.8 105.7,45.8 105.7,46.7  "/>
	<path d="M117.4,43.3H112c0,0.7,0.2,1.4,0.6,2c0.5,0.6,1,0.7,1.7,0.7c0.9,0,1.7-0.7,1.8-1.5h1.1c-0.3,1.6-1.5,2.4-3.1,2.4   c-2.4,0-3.4-1.6-3.4-3.8c0-0.8,0.2-1.6,0.5-2.3c0.6-1,1.7-1.6,2.8-1.6c0.7,0,1.5,0.2,2,0.6c0.6,0.5,0.9,1.1,1,1.8   c0.1,0.5,0.2,0.9,0.2,1.5V43.3L117.4,43.3z M116.1,42.4c0-1.2-0.7-2.4-2-2.4c-1.4,0-2,1.2-2.1,2.4H116.1L116.1,42.4z"/>
	<polygon points="118.4,46.7 118.4,45.8 119.6,45.8 119.6,37.5 118.4,37.5 118.4,36.7 120.7,36.7 120.7,45.8 121.8,45.8 121.8,46.7     "/>
	<polygon points="122.6,46.7 122.6,45.8 123.7,45.8 123.7,37.5 122.6,37.5 122.6,36.7 124.9,36.7 124.9,45.8 126,45.8 126,46.7  "/>
	<path d="M133.7,43.3h-5.4c0,0.7,0.2,1.4,0.6,2c0.5,0.6,1,0.7,1.7,0.7c0.9,0,1.7-0.7,1.8-1.5h1.1c-0.3,1.6-1.5,2.4-3.1,2.4   c-2.4,0-3.4-1.6-3.4-3.8c0-0.8,0.2-1.6,0.5-2.3c0.6-1,1.7-1.6,2.8-1.6c0.7,0,1.5,0.2,2,0.6c0.6,0.5,0.9,1.1,1,1.8   c0.1,0.5,0.2,0.9,0.2,1.5L133.7,43.3L133.7,43.3z M132.5,42.4c0-1.2-0.7-2.4-2-2.4c-1.4,0-2,1.2-2.1,2.4H132.5L132.5,42.4z"/>
	<path d="M137.2,40.9c0.4-1.2,0.9-1.6,2.2-1.6h0.3v1c-0.2,0-0.3-0.1-0.5-0.1c-1.7,0-2,1.4-2,2.8v2.8h1.4v0.9h-3.7v-0.9h1.2v-5.6   h-1.2v-0.8h2.3L137.2,40.9L137.2,40.9z"/>
	<polygon points="27.7,46.7 27.7,13.5 14.2,13.5 14.2,46.7 12.7,46.7 12.7,12 29.2,12 29.2,46.7  "/>
	<polygon points="5.2,45.2 8.7,45.2 8.7,46.7 5.2,46.7  "/>
	<polygon points="5.2,41.1 8.7,41.1 8.7,42.6 5.2,42.6  "/>
	<polygon points="5.2,37 8.7,37 8.7,38.4 5.2,38.4  "/>
	<polygon points="5.2,32.8 8.7,32.8 8.7,34.3 5.2,34.3  "/>
	<polygon points="5.2,28.7 8.7,28.7 8.7,30.2 5.2,30.2  "/>
	<polygon points="5.2,24.6 8.7,24.6 8.7,26 5.2,26  "/>
	<polygon points="5.2,20.4 16,20.4 16,21.9 5.2,21.9  "/>
	<polygon points="5.2,16.3 8.7,16.3 8.7,17.8 5.2,17.8  "/>
	<polygon points="5.2,12.2 8.7,12.2 8.7,13.6 5.2,13.6  "/>
	<polygon points="33.2,45.2 36.8,45.2 36.8,46.7 33.2,46.7  "/>
	<polygon points="33.2,41.1 36.8,41.1 36.8,42.6 33.2,42.6  "/>
	<polygon points="25.9,37 36.8,37 36.8,38.4 25.9,38.4  "/>
	<polygon points="33.2,32.8 36.8,32.8 36.8,34.3 33.2,34.3  "/>
	<polygon points="33.2,28.7 36.8,28.7 36.8,30.2 33.2,30.2  "/>
	<polygon points="33.2,24.6 36.8,24.6 36.8,26 33.2,26  "/>
	<polygon points="25.9,20.4 36.8,20.4 36.8,21.9 25.9,21.9  "/>
	<polygon points="33.2,16.3 36.8,16.3 36.8,17.8 33.2,17.8  "/>
	<polygon points="33.2,12.2 36.8,12.2 36.8,13.6 33.2,13.6  "/>
	<polygon points="1.7,6.2 40.2,6.2 40.2,7.6 1.7,7.6  "/>
	<path d="M18.1,21.2c0-1.6,1.3-2.9,2.9-2.9c1.6,0,2.9,1.3,2.9,2.9c0,1.6-1.3,2.9-2.9,2.9C19.4,24,18.1,22.7,18.1,21.2 M19.4,21.2   c0,0.9,0.7,1.6,1.6,1.6c0.9,0,1.6-0.7,1.6-1.6c0-0.9-0.7-1.6-1.6-1.6C20.1,19.6,19.4,20.3,19.4,21.2"/>
</g>
</svg>