<?xml version="1.0" encoding="UTF-8"?>
<!-- Generator: Adobe Illustrator 25.0.1, SVG Export Plug-In . SVG Version: 6.00 Build 0)  -->
<svg xmlns="http://www.w3.org/2000/svg" xmlns:xlink="http://www.w3.org/1999/xlink" version="1.1" id="Ebene_1" x="0px" y="0px" viewBox="0 0 145 50" overflow="visible" xml:space="preserve">
<g>
	<path d="M43,23.2v-3.5h-1.1v1.3c-0.5-1-1.7-1.4-2.8-1.4c-1.4,0-2.5,0.5-3.3,1.4c-0.9,1.1-1.1,2.5-1.1,3.8c0,1.1,0.3,2.6,0.9,3.4   c0.9,1.2,2.1,1.7,3.4,1.7c1.2,0,2.6-0.5,3-1.7v1.5h1.1v-4h1.3v-0.9h-3.9v0.9H42c0,1.7-1.1,3.2-2.8,3.2c-2.3,0-3.1-2.1-3.1-4.1   c0-2,0.7-4.3,3.1-4.3c1.6,0,2.8,1.1,2.8,2.7L43,23.2L43,23.2z M52.2,26c0-0.5,0-0.9-0.2-1.4c-0.1-0.7-0.5-1.3-1-1.8   c-0.5-0.4-1.3-0.6-2-0.6c-1.1,0-2.3,0.6-2.8,1.6c-0.4,0.7-0.5,1.5-0.5,2.3c0,2.2,1,3.7,3.3,3.7c1.6,0,2.8-0.8,3.1-2.4h-1.1   c-0.1,0.9-0.9,1.5-1.8,1.5c-0.8,0-1.2-0.1-1.7-0.7c-0.5-0.6-0.6-1.2-0.6-1.9h5.3L52.2,26L52.2,26z M46.9,25.4   c0.1-1.2,0.8-2.4,2.1-2.4c1.3,0,2,1.3,2,2.4H46.9L46.9,25.4z M59,29.6h2.3v-0.9h-1.2v-9.1h-2.3v0.8H59v3.1l-0.1-0.1   c-0.5-0.9-1.3-1.3-2.3-1.3c-2.1,0-3,1.8-3,3.7c0,1,0.2,1.8,0.5,2.3c0.6,1,1.6,1.5,2.5,1.5c1.1,0,2-0.5,2.4-1.5L59,29.6L59,29.6z    M56.9,28.9c-1.1,0-1.7-0.7-2-1.7c-0.1-0.5-0.2-0.9-0.2-1.4c0-0.6,0.2-1.3,0.5-1.8c0.4-0.7,0.9-0.9,1.7-0.9c1.5,0,2,1.6,2,2.9   c0,0.7,0,1.3-0.4,1.9C58.3,28.5,57.7,28.9,56.9,28.9 M69,26c0-0.5,0-0.9-0.2-1.4c-0.1-0.7-0.5-1.3-1-1.8c-0.5-0.4-1.3-0.6-2-0.6   c-1.1,0-2.3,0.6-2.8,1.6c-0.4,0.7-0.5,1.5-0.5,2.3c0,2.2,1,3.7,3.3,3.7c1.6,0,2.8-0.8,3.1-2.4h-1.1c-0.1,0.9-0.9,1.5-1.8,1.5   c-0.8,0-1.2-0.1-1.7-0.7c-0.5-0.6-0.6-1.2-0.6-1.9H69L69,26L69,26z M63.7,25.4c0.1-1.2,0.8-2.4,2.1-2.4c1.3,0,2,1.3,2,2.4H63.7   L63.7,25.4z M72.5,22.4h-2.3v0.8h1.2v5.6h-1.2v0.9h3.5v-0.9h-1.1v-2.9c0-0.6,0-1.3,0.3-1.9c0.2-0.3,0.3-0.5,0.6-0.7   c0.4-0.2,0.6-0.3,1-0.3c1.2,0,1.4,1,1.4,2v3.8h-1.1v0.9h3.4v-0.9h-1.1v-4.1c0-0.3,0-0.6-0.1-0.9c-0.3-1.1-1.1-1.5-2.2-1.5   c-1.2,0-1.8,0.5-2.2,1.5L72.5,22.4L72.5,22.4z M82.4,29.6v-0.9h-1V27l1.3-1.3l1.6,3h-0.9v0.9h2.9v-0.9h-0.8L83.4,25l1.7-1.8h1v-0.8   h-3.3v0.8h1.1l-2.6,2.8v-6.3h-2.3v0.8h1.2v8.3h-1.2v0.9L82.4,29.6L82.4,29.6z M92.9,24.7v-2.3h-0.9v0.7c-0.4-0.7-1.1-0.9-1.9-0.9   c-0.9,0-1.6,0.3-2.2,0.9c-0.3,0.3-0.3,0.8-0.3,1.2c0,1.5,1.1,1.8,2.3,2c0.8,0.1,1.9,0.1,1.9,1.2c0,0.8-0.7,1.3-1.5,1.3   c-0.5,0-0.9-0.1-1.3-0.4c-0.4-0.3-0.6-0.9-0.7-1.4h-0.9v2.5h0.9v-1.2c0.5,1,1.1,1.3,2.2,1.3c1.1,0,1.7-0.6,2.2-1.3   c0.2-0.3,0.2-0.7,0.2-1c0-1.6-1.3-1.9-2.6-2.1c-0.5-0.1-1-0.1-1.4-0.4c-0.2-0.1-0.3-0.4-0.3-0.7c0-0.9,0.7-1.3,1.5-1.3   c0.2,0,0.5,0.1,0.7,0.1c0.8,0.3,1,0.8,1,1.6H92.9L92.9,24.7z M96.6,20.5l-1.1,0.4v1.4h-1.2v0.8h1.2v4.3c0,0.3,0,1,0.1,1.3   c0.2,0.4,0.5,0.8,0.9,0.9c0.2,0,0.4,0.1,0.7,0.1c0.3,0,0.5-0.1,0.7-0.1c0.7-0.3,0.9-1,1-1.7c0-0.2,0-0.3,0-0.5H98   c0,0.5,0,1.5-0.7,1.5c-0.6,0-0.7-0.5-0.7-1v-4.7h2.1v-0.8h-2.1V20.5L96.6,20.5z M102.6,19.8h-1.3V21h1.3V19.8L102.6,19.8z    M105.3,19.8H104V21h1.3V19.8L105.3,19.8z M104.8,29.6h2.2v-0.9h-1.2v-4.2c0-0.7-0.1-1.3-0.7-1.8c-0.6-0.5-1.2-0.6-2-0.6   c-0.4,0-0.8,0-1.2,0.2c-1,0.3-1.5,1.1-1.6,2.1h1.2c0-0.3,0.1-0.6,0.3-0.9c0.4-0.5,0.8-0.6,1.4-0.6c0.4,0,0.8,0.1,1.1,0.4   c0.4,0.4,0.4,0.7,0.5,1.2v0.7h-1.1c-0.3,0-0.5,0-0.8,0c-1.4,0-2.8,0.6-2.8,2.3c0,0.1,0,0.3,0.1,0.7c0.3,1.1,1.2,1.5,2.3,1.5   c1.2,0,1.9-0.4,2.4-1.5V29.6L104.8,29.6z M101.3,27.5c0-1.4,1.3-1.5,2.4-1.5c0.3,0,0.8,0,1.1,0.1c0,1.4-0.6,2.8-2.2,2.8   C101.8,28.9,101.3,28.3,101.3,27.5 M110,20.5l-1.1,0.4v1.4h-1.3v0.8h1.3v4.3c0,0.3,0,1,0.1,1.3c0.2,0.4,0.5,0.8,0.9,0.9   c0.2,0,0.4,0.1,0.7,0.1c0.3,0,0.5-0.1,0.7-0.1c0.7-0.3,0.9-1,1-1.7c0-0.2,0-0.3,0-0.5h-0.9c0,0.5,0,1.5-0.7,1.5   c-0.6,0-0.7-0.5-0.7-1v-4.7h2.1v-0.8H110V20.5L110,20.5z M115.4,20.5l-1.1,0.4v1.4H113v0.8h1.3v4.3c0,0.3,0,1,0.1,1.3   c0.2,0.4,0.5,0.8,0.9,0.9c0.2,0,0.4,0.1,0.7,0.1c0.3,0,0.5-0.1,0.7-0.1c0.7-0.3,0.9-1,1-1.7c0-0.2,0-0.3,0-0.5h-0.9   c0,0.5,0,1.5-0.7,1.5c-0.6,0-0.7-0.5-0.7-1v-4.7h2.1v-0.8h-2.1V20.5L115.4,20.5z M125.6,26c0-0.5,0-0.9-0.2-1.4   c-0.1-0.7-0.5-1.3-1-1.8c-0.5-0.4-1.3-0.6-2-0.6c-1.1,0-2.3,0.6-2.8,1.6c-0.4,0.7-0.5,1.5-0.5,2.3c0,2.2,1,3.7,3.3,3.7   c1.6,0,2.8-0.8,3.1-2.4h-1.1c-0.1,0.9-0.9,1.5-1.8,1.5c-0.8,0-1.2-0.1-1.7-0.7c-0.5-0.6-0.6-1.2-0.6-1.9h5.4V26L125.6,26z    M120.3,25.4c0.1-1.2,0.8-2.4,2.1-2.4c1.3,0,2,1.3,2,2.4H120.3L120.3,25.4z"/>
	<path d="M37.6,42.1l1.7-4.6l1.7,4.6H37.6L37.6,42.1z M35.1,45.4h-1v0.9h3.6v-0.9h-1.4l0.8-2.4h4.1l0.9,2.4h-1.4v0.9h3.7v-0.9h-1   l-3.5-9h-1.4L35.1,45.4L35.1,45.4z M50.8,46.3h2.3v-0.9H52V39h-2.3v0.8h1.2v2.9c0,0.6,0,1.2-0.3,1.7c-0.3,0.6-0.9,1-1.6,1   c-1.2,0-1.4-1.1-1.4-2.1V39h-2.3v0.8h1.1v3.6c0,0.6,0,1,0.1,1.4c0.3,1.1,1.2,1.5,2.2,1.5c1.2,0,1.8-0.4,2.1-1.5L50.8,46.3   L50.8,46.3z M54.7,47c0.2,1.6,1.7,2,3,2c0.8,0,1.8-0.2,2.3-0.8c0.8-0.8,0.8-1.6,0.8-2.6v-5.7h1.2V39h-2.3v1.2   c-0.5-0.9-1.4-1.4-2.5-1.4c-0.9,0-2,0.4-2.5,1.4c-0.4,0.8-0.5,1.6-0.5,2.5c0,1.9,1,3.7,3.1,3.7c1.2,0,1.8-0.4,2.5-1.4v0.4   c0,0.6,0,1.3-0.3,1.8c-0.3,0.6-1.1,0.8-1.8,0.8c-0.8,0-1.6-0.2-1.8-1.1H54.7L54.7,47z M57.6,45.5c-0.7,0-1.2-0.3-1.6-0.9   c-0.4-0.6-0.5-1.3-0.5-2c0-1.4,0.5-2.9,2.2-2.9c0.6,0,1.3,0.4,1.6,0.9c0.4,0.7,0.5,1.3,0.5,2.1c0,0.6-0.1,1.3-0.5,1.8   C58.9,45.1,58.3,45.5,57.6,45.5 M68.4,46.3h2.3v-0.9h-1.2V39h-2.3v0.8h1.2v2.9c0,0.6,0,1.2-0.3,1.7c-0.3,0.6-0.9,1-1.6,1   c-1.2,0-1.4-1.1-1.4-2.1V39h-2.3v0.8H64v3.6c0,0.6,0,1,0.1,1.4c0.3,1.1,1.2,1.5,2.2,1.5c1.2,0,1.8-0.4,2.1-1.5V46.3L68.4,46.3z    M77.4,41.4V39h-0.9v0.7c-0.4-0.7-1.1-0.9-1.9-0.9c-0.9,0-1.6,0.3-2.2,0.9c-0.3,0.3-0.3,0.8-0.3,1.2c0,1.5,1.1,1.8,2.3,2   c0.8,0.1,1.9,0.1,1.9,1.2c0,0.8-0.7,1.3-1.5,1.3c-0.5,0-0.9-0.1-1.3-0.4c-0.4-0.3-0.6-0.9-0.7-1.3H72v2.5h0.9v-1.2   c0.5,1,1.1,1.3,2.2,1.3c1.1,0,1.7-0.6,2.2-1.3c0.2-0.3,0.2-0.7,0.2-1c0-1.6-1.3-1.9-2.6-2.1c-0.5-0.1-1-0.1-1.4-0.4   c-0.2-0.1-0.3-0.4-0.3-0.7c0-0.9,0.7-1.3,1.5-1.3c0.2,0,0.5,0.1,0.7,0.1c0.8,0.3,1,0.8,1,1.6H77.4L77.4,41.4z M81,37.2l-1.1,0.4V39   h-1.3v0.8h1.3v4.3c0,0.3,0,1,0.1,1.3c0.2,0.4,0.5,0.8,0.9,0.9c0.3,0,0.4,0.1,0.7,0.1c0.3,0,0.5-0.1,0.8-0.1c0.7-0.3,0.9-1,1-1.7   c0-0.2,0-0.3,0-0.5h-0.9c0,0.5,0,1.5-0.7,1.5c-0.6,0-0.7-0.5-0.7-1v-4.7h2.1V39H81V37.2L81,37.2z M89.3,46.3h2.2v-0.9h-1.2v-4.2   c0-0.7-0.1-1.3-0.7-1.8c-0.6-0.5-1.2-0.6-2-0.6c-0.4,0-0.8,0-1.2,0.2c-1,0.3-1.5,1.1-1.6,2.1H86c0-0.3,0.1-0.6,0.3-0.9   c0.4-0.5,0.8-0.6,1.4-0.6c0.4,0,0.8,0.1,1.1,0.4c0.4,0.4,0.4,0.7,0.5,1.2v0.7h-1.1c-0.3,0-0.5,0-0.8,0c-1.4,0-2.8,0.6-2.8,2.3   c0,0.1,0,0.3,0.1,0.7c0.3,1.1,1.2,1.5,2.3,1.5c1.2,0,1.9-0.4,2.4-1.5V46.3L89.3,46.3z M85.8,44.2c0-1.4,1.3-1.5,2.4-1.5   c0.3,0,0.8,0,1.1,0.1c0,1.4-0.6,2.8-2.2,2.8C86.2,45.6,85.8,45,85.8,44.2 M98,41.4V39h-0.9v0.7c-0.4-0.7-1.1-0.9-1.9-0.9   c-0.9,0-1.6,0.3-2.2,0.9c-0.3,0.3-0.3,0.8-0.3,1.2c0,1.5,1.1,1.8,2.3,2c0.8,0.1,1.9,0.1,1.9,1.2c0,0.8-0.7,1.3-1.5,1.3   c-0.5,0-0.9-0.1-1.3-0.4c-0.4-0.3-0.6-0.9-0.7-1.3h-0.9v2.5h0.9v-1.2c0.5,1,1.1,1.3,2.2,1.3c1.1,0,1.7-0.6,2.2-1.3   c0.2-0.3,0.2-0.7,0.2-1c0-1.6-1.3-1.9-2.6-2.1c-0.5-0.1-1-0.1-1.4-0.4c-0.2-0.1-0.3-0.4-0.3-0.7c0-0.9,0.7-1.3,1.5-1.3   c0.2,0,0.5,0.1,0.7,0.1c0.8,0.3,1,0.8,1,1.6H98L98,41.4z M105.7,41.7V39h-0.9v0.9c-0.5-0.8-1.2-1.1-2.1-1.1c-0.9,0-1.8,0.5-2.3,1.1   c-0.7,0.9-0.8,1.8-0.8,2.8c0,2,1.2,3.7,3.3,3.7c1.5,0,2.8-0.9,2.9-2.6h-1.1c-0.1,0.9-0.8,1.7-1.7,1.7c-0.7,0-1.3-0.4-1.6-0.9   c-0.4-0.6-0.5-1.3-0.5-2c0-1.3,0.6-2.8,2.2-2.8c1.1,0,1.8,1,1.8,2L105.7,41.7L105.7,41.7z M110.3,46.3v-0.9h-1.2v-3.1   c0-0.9,0.1-1.8,1-2.4c0.3-0.2,0.6-0.3,1-0.3c0.2,0,0.4,0,0.6,0.1c0.8,0.3,0.8,1.2,0.8,1.9v3.7h-1.2v0.9h3.5v-0.9h-1.2v-4.1   c0-0.7,0-1.2-0.5-1.8c-0.4-0.5-1.2-0.7-1.8-0.7c-0.9,0-1.7,0.4-2.2,1.2v-3.7h-2.3v0.8h1.2v8.3h-1.2v0.9L110.3,46.3L110.3,46.3z    M120.5,46.3h2.2v-0.9h-1.2v-4.2c0-0.7-0.1-1.3-0.7-1.8c-0.6-0.5-1.2-0.6-2-0.6c-0.4,0-0.8,0-1.2,0.2c-1,0.3-1.5,1.1-1.6,2.1h1.2   c0-0.3,0.1-0.6,0.3-0.9c0.4-0.5,0.8-0.6,1.4-0.6c0.4,0,0.8,0.1,1.1,0.4c0.4,0.4,0.4,0.7,0.5,1.2v0.7h-1.1c-0.3,0-0.5,0-0.8,0   c-1.4,0-2.8,0.6-2.8,2.3c0,0.1,0,0.3,0.1,0.7c0.3,1.1,1.2,1.5,2.3,1.5c1.2,0,1.9-0.4,2.4-1.5V46.3L120.5,46.3z M117,44.2   c0-1.4,1.3-1.5,2.4-1.5c0.3,0,0.8,0,1.1,0.1c0,1.4-0.6,2.8-2.2,2.8C117.4,45.6,117,45,117,44.2 M129.7,41.7V39h-0.9v0.9   c-0.5-0.8-1.2-1.1-2.1-1.1c-0.9,0-1.8,0.5-2.3,1.1c-0.7,0.9-0.8,1.8-0.8,2.8c0,2,1.2,3.7,3.3,3.7c1.5,0,2.8-0.9,2.9-2.6h-1.1   c-0.1,0.9-0.8,1.7-1.7,1.7c-0.7,0-1.3-0.4-1.6-0.9c-0.4-0.6-0.5-1.3-0.5-2c0-1.3,0.6-2.8,2.2-2.8c1.1,0,1.8,1,1.8,2L129.7,41.7   L129.7,41.7z M134.3,46.3v-0.9h-1.2v-3.1c0-0.9,0.1-1.8,1-2.4c0.3-0.2,0.6-0.3,1-0.3c0.3,0,0.4,0,0.6,0.1c0.8,0.3,0.8,1.2,0.8,1.9   v3.7h-1.2v0.9h3.5v-0.9h-1.2v-4.1c0-0.7,0-1.2-0.5-1.8c-0.4-0.5-1.2-0.7-1.8-0.7c-0.9,0-1.7,0.4-2.3,1.2v-3.7h-2.3v0.8h1.2v8.3   h-1.2v0.9L134.3,46.3L134.3,46.3z M141.7,37.2l-1.1,0.4V39h-1.2v0.8h1.2v4.3c0,0.3,0,1,0.1,1.3c0.2,0.4,0.5,0.8,0.9,0.9   c0.3,0,0.4,0.1,0.7,0.1c0.3,0,0.5-0.1,0.8-0.1c0.7-0.3,0.9-1,1-1.7c0-0.2,0-0.3,0-0.5h-0.9c0,0.5,0,1.5-0.7,1.5   c-0.6,0-0.7-0.5-0.7-1v-4.7h2.1V39h-2.1V37.2L141.7,37.2z"/>
	<path d="M20.8,0.3L1,11.8L1.7,13c0,0,18.7-10.9,19.4-11.3C21.9,2.2,40.6,13,40.6,13l0.7-1.3L21.2,0.1L20.8,0.3L20.8,0.3z"/>
	<polygon points="2.9,42.2 6.3,42.2 6.3,40.7 2.9,40.7  "/>
	<polygon points="3,38 6.3,38 6.3,36.6 3,36.6  "/>
	<polygon points="3.2,33.9 6.3,33.9 6.3,32.5 3.2,32.5  "/>
	<polygon points="3.4,29.8 6.3,29.8 6.3,28.4 3.4,28.4  "/>
	<polygon points="3.5,25.7 6.3,25.7 6.3,24.3 3.5,24.3  "/>
	<polygon points="3.7,21.6 6.3,21.6 6.3,20.1 3.7,20.1  "/>
	<polygon points="3.9,17.5 6.3,17.5 6.3,16 3.9,16  "/>
	<polygon points="2.7,46.3 6.3,46.3 6.3,44.8 2.7,44.8  "/>
	<path d="M16.3,35v11.3h1.5V35c0-1.9,1.5-3.4,3.4-3.4c1.9,0,3.4,1.5,3.4,3.4H26c0-2.7-2.2-4.8-4.8-4.8C18.5,30.2,16.3,32.4,16.3,35"/>
	<path d="M16.6,21v5.8h1.4V21c0-0.2,0.2-0.4,0.4-0.4c0.2,0,0.4,0.2,0.4,0.4h1.4c0-1-0.8-1.8-1.8-1.8C17.4,19.2,16.6,20,16.6,21"/>
	<path d="M22.2,21v5.8h1.4V21c0-0.2,0.2-0.4,0.4-0.4s0.4,0.2,0.4,0.4h1.4c0-1-0.8-1.8-1.8-1.8S22.2,20,22.2,21"/>
	<path d="M16.6,12.5v4.5h1.4v-4.5c0-0.2,0.2-0.4,0.4-0.4c0.2,0,0.4,0.2,0.4,0.4h1.4c0-1-0.8-1.8-1.8-1.8   C17.4,10.7,16.6,11.5,16.6,12.5"/>
	<path d="M22.2,12.5v4.5h1.4v-4.5c0-0.2,0.2-0.4,0.4-0.4s0.4,0.2,0.4,0.4h1.4c0-1-0.8-1.8-1.8-1.8S22.2,11.5,22.2,12.5"/>
	<path d="M19.4,6.9c0,1,0.8,1.8,1.8,1.8V7.3c-0.2,0-0.4-0.2-0.4-0.4c0-0.2,0.2-0.4,0.4-0.4c0.2,0,0.4,0.2,0.4,0.4h1.4   c0-1-0.8-1.8-1.8-1.8S19.4,5.9,19.4,6.9"/>
</g>
</svg>