<svg id="Ebene_1" data-name="Ebene 1" xmlns="http://www.w3.org/2000/svg" xmlns:xlink="http://www.w3.org/1999/xlink" width="83" height="100" viewBox="0 0 83 100">
  <defs>
    <style>
      .cls-1 {
        fill: none;
      }

      .cls-2 {
        clip-path: url(#clip-path);
      }

      .cls-3 {
        fill: #8c1f21;
      }

      .cls-4 {
        clip-path: url(#clip-path-2);
      }
    </style>
    <clipPath id="clip-path">
      <rect class="cls-1" x="0.48" y="0.49" width="82.05" height="99.02"/>
    </clipPath>
    <clipPath id="clip-path-2">
      <rect class="cls-1" x="2.94" y="4.95" width="77.11" height="29.16"/>
    </clipPath>
  </defs>
  <g class="cls-2">
    <path class="cls-3" d="M71.52,69.45a41.06,41.06,0,1,0-59.29.73v0l.19.18.28.27L41.86,98.91,70,71c.31-.29.61-.58.9-.89l.58-.57ZM41.5,8.87c18,0,32.4,14.68,32.65,32.65S59.5,74.16,41.5,74.16,8.61,59.52,8.85,41.52A32.87,32.87,0,0,1,41.5,8.87Z"/>
  </g>
  <g class="cls-4">
    <path class="cls-3" d="M41.22,5H37.78C27.63,5,3,34.11,3,34.11H14.13v0l7.57-7.57H61.85l7.57,7.57v0l10.63-1.15S54.28,5,41.22,5"/>
  </g>
  <path class="cls-3" d="M67.88,42.87v-3H47.53a6,6,0,0,0-.7-1.71L57.59,27.4l-2.12-2.12L44.71,36a6,6,0,0,0-1.71-.7V15H40V35.34a6,6,0,0,0-1.71.7L27.53,25.28,25.41,27.4,36.17,38.16a6.3,6.3,0,0,0-.71,1.71H15.12v3H35.46a6.3,6.3,0,0,0,.71,1.71L25.41,55.34l2.12,2.12L38.29,46.7a6,6,0,0,0,1.71.7V67.75h3V47.4a6,6,0,0,0,1.71-.7L55.47,57.46l2.12-2.12L46.83,44.58a6,6,0,0,0,.7-1.71Z"/>
  <path
    style="fill:#cccccc;stroke-width:0.139082"
    d="M 39.499305,74.045779 C 28.824839,73.203527 19.720633,67.848968 13.98597,59.040334 11.6897,55.513186 10.120618,51.469964 9.3171696,47.009736 8.996664,45.230495 8.8798935,40.416747 9.1070124,38.34621 9.2674622,36.883463 9.5768381,35.007018 9.7481438,34.45758 9.8161865,34.239343 10.049571,34.214186 12.006148,34.214186 h 2.182119 l 3.82286,-3.824756 3.82286,-3.824757 h 2.14797 2.147971 l -0.403701,0.421374 -0.403703,0.421373 5.36316,5.385303 5.363159,5.385302 -0.316995,0.764951 -0.316994,0.764952 -10.162225,0.03567 -10.162226,0.03567 v 1.597638 1.597639 l 10.162226,0.03567 10.162225,0.03567 0.316994,0.764951 0.316995,0.764952 -5.365985,5.388129 -5.365985,5.388128 1.108722,1.115263 1.108722,1.115263 5.372218,-5.370895 5.372219,-5.370894 0.851627,0.327865 0.851629,0.327864 0.002,10.187761 0.002,10.187761 h 1.529902 1.529903 l 0.002,-10.187761 0.002,-10.187761 0.851629,-0.327864 0.851627,-0.327865 5.372218,5.370894 5.372219,5.370895 1.108722,-1.115263 1.108721,-1.115263 -5.400854,-5.402186 -5.400854,-5.402185 0.291558,-0.571501 c 0.160349,-0.314325 0.291551,-0.667875 0.291551,-0.785665 0,-0.190889 1.111014,-0.214164 10.222531,-0.214164 H 67.941586 V 41.376912 39.777469 H 57.719054 c -9.639093,0 -10.223119,-0.01389 -10.232845,-0.243394 -0.0057,-0.133866 -0.124379,-0.493741 -0.263788,-0.799722 l -0.253472,-0.556328 5.370257,-5.385302 5.370259,-5.385303 -0.403703,-0.421373 -0.403701,-0.421374 h 2.424271 2.424272 l 3.825671,3.814446 3.825672,3.814445 1.668985,-0.192242 c 0.917941,-0.105733 1.742202,-0.194973 1.83169,-0.198312 0.183407,-0.0068 0.489943,1.228409 0.812377,3.273647 0.305603,1.938479 0.41878,6.041639 0.218356,7.916389 -0.77791,7.276519 -3.826402,13.788506 -8.911749,19.036683 -5.184493,5.3505 -11.685222,8.674749 -19.054986,9.744065 -1.484442,0.215384 -5.20278,0.371761 -6.467315,0.271985 z"
    id="path99" />
  <path
    style="fill:#cccccc;stroke-width:0.139082"
    d="m 33.588317,31.223922 -4.657692,-4.659249 h 5.527733 5.527734 l -0.002,4.346314 -0.002,4.346315 -0.813546,0.312934 c -0.44745,0.172114 -0.83805,0.312935 -0.868,0.312935 -0.02995,0 -2.150415,-2.096662 -4.712146,-4.659249 z"
    id="path90" />
  <path
    style="fill:#cccccc;stroke-width:0.139082"
    d="m 43.880389,35.51748 -0.764951,-0.31117 -0.03675,-4.320818 -0.03675,-4.320819 h 5.529156 5.529156 l -2.710763,2.721456 c -1.490919,1.4968 -3.618273,3.581195 -4.727452,4.631989 l -2.01669,1.910533 z"
    id="path129" />
</svg>
