<svg id="Ebene_1" data-name="Ebene 1" xmlns="http://www.w3.org/2000/svg" xmlns:xlink="http://www.w3.org/1999/xlink" width="83" height="100" viewBox="0 0 83 100">
  <defs>
    <style>
      .cls-1 {
        fill: none;
      }

      .cls-2 {
        clip-path: url(#clip-path);
      }

      .cls-3 {
        fill: #8c1f21;
      }
    </style>
    <clipPath id="clip-path">
      <rect class="cls-1" x="0.48" y="0.49" width="82.05" height="99.02"/>
    </clipPath>
  </defs>
  <g class="cls-2">
    <path class="cls-3" d="M71.52,69.45a41.06,41.06,0,1,0-59.29.73v0l.19.18.28.27L41.86,98.91,70,71c.31-.29.61-.58.9-.89l.58-.57ZM41.5,8.87c18,0,32.4,14.68,32.65,32.65S59.5,74.16,41.5,74.16,8.61,59.52,8.85,41.52A32.87,32.87,0,0,1,41.5,8.87Z"/>
  </g>
  <path class="cls-3" d="M67.88,42.87v-3H57.45a16,16,0,0,0-3.61-8.72l3.75-3.75-2.12-2.12L51.72,29A16,16,0,0,0,43,25.42V15H40V25.42A16,16,0,0,0,31.28,29l-3.75-3.75L25.41,27.4l3.75,3.75a16,16,0,0,0-3.61,8.72H15.12v3H25.55a16,16,0,0,0,3.61,8.72l-3.75,3.75,2.12,2.12,3.75-3.75A16,16,0,0,0,40,57.32V67.75h3V57.32a16,16,0,0,0,8.72-3.61l3.75,3.75,2.12-2.12-3.75-3.75a16,16,0,0,0,3.61-8.72Z"/>
  <path
    style="fill:#cccccc;stroke-width:0.139082"
    d="M 39.499305,74.045779 C 28.824839,73.203527 19.720633,67.848968 13.98597,59.040334 11.6897,55.513186 10.120618,51.469964 9.3171696,47.009736 8.996664,45.230495 8.8798935,40.416747 9.1070124,38.34621 9.9541515,30.623236 13.359966,23.619739 18.864263,18.282027 c 5.119861,-4.964911 11.173594,-7.939489 18.409729,-9.0458544 2.144758,-0.3279218 6.406087,-0.3268373 8.623087,0.00219 7.175956,1.0650054 13.323055,4.1535044 18.428736,9.2591844 2.796395,2.796395 4.658816,5.395395 6.32899,8.832073 2.172145,4.469575 3.203913,8.648569 3.367411,13.639123 0.282659,8.627694 -2.888803,16.753477 -9.00061,23.060982 -5.184493,5.3505 -11.685222,8.674749 -19.054986,9.744065 -1.484442,0.215384 -5.20278,0.371761 -6.467315,0.271985 z m 3.579689,-11.418202 0.03644,-5.244467 1.043116,-0.163431 c 2.492605,-0.390532 4.938453,-1.425612 6.946681,-2.939831 l 0.618447,-0.466313 1.887564,1.883952 1.887563,1.883951 1.107525,-1.114057 1.107523,-1.114057 -1.858673,-1.862508 -1.858674,-1.862506 0.768133,-1.161861 c 1.384646,-2.094388 2.126018,-3.909309 2.555233,-6.25536 l 0.225897,-1.234733 h 5.197907 5.197906 V 41.376912 39.777469 H 62.74368 57.545773 L 57.310809,38.49096 c -0.430272,-2.355899 -1.2595,-4.359114 -2.623351,-6.33739 l -0.70148,-1.017502 1.865044,-1.868891 1.865045,-1.86889 -1.112657,-1.112657 -1.112656,-1.112656 -1.856287,1.860115 -1.856286,1.860115 -1.062943,-0.729645 c -1.872661,-1.285467 -4.076636,-2.208585 -6.139438,-2.571457 -0.497219,-0.08747 -1.044854,-0.187255 -1.216968,-0.22175 l -0.312935,-0.06272 V 20.094708 14.88178 h -1.529903 -1.529902 v 5.212928 5.212928 l -0.312935,0.06402 c -0.172114,0.03521 -0.751043,0.139173 -1.286509,0.23102 -2.040267,0.349962 -4.899132,1.582527 -6.397775,2.758322 l -0.69541,0.545601 -1.880142,-1.867107 -1.880142,-1.867108 -1.107524,1.114057 -1.107523,1.114057 1.851383,1.855201 1.851382,1.855201 -0.763604,1.121424 c -1.325464,1.94657 -2.28636,4.333857 -2.627427,6.527684 l -0.15818,1.017458 h -5.190641 -5.190642 v 1.599443 1.599444 h 5.190642 5.190641 l 0.15818,1.017458 c 0.340542,2.190441 1.315304,4.585321 2.693878,6.61855 l 0.698099,1.02961 -1.851856,1.855674 -1.851855,1.855676 1.107523,1.114057 1.107524,1.114057 1.880142,-1.866032 1.880142,-1.86603 0.973575,0.69493 c 1.878607,1.340936 4.681803,2.461864 6.81502,2.725156 l 0.834493,0.102997 0.03644,5.249793 0.03644,5.249793 h 1.526557 1.526558 z"
    id="path92" />
</svg>
