<svg id="Ebene_1" data-name="Ebene 1" xmlns="http://www.w3.org/2000/svg" xmlns:xlink="http://www.w3.org/1999/xlink" width="83" height="100" viewBox="0 0 83 100">
  <defs>
    <style>
      .cls-1 {
        fill: none;
      }

      .cls-2 {
        clip-path: url(#clip-path);
      }

      .cls-3 {
        fill: #3d3b3d;
      }

      .cls-4 {
        clip-path: url(#clip-path-2);
      }

      .cls-5 {
        clip-path: url(#clip-path-3);
      }
    </style>
    <clipPath id="clip-path">
      <rect class="cls-1" x="16.32" y="31.38" width="50.28" height="32.39"/>
    </clipPath>
    <clipPath id="clip-path-2">
      <rect class="cls-1" x="0.44" y="0.49" width="82.05" height="99.02"/>
    </clipPath>
    <clipPath id="clip-path-3">
      <rect class="cls-1" x="2.94" y="4.95" width="77.11" height="29.16"/>
    </clipPath>
  </defs>
  <g class="cls-2">
    <path class="cls-3" d="M40.4,39.27a1.79,1.79,0,0,0-1.48-2.13,2,2,0,0,0-2.37,1.33l-.92,3.6L32.78,31.38l-2.34,5.38,2.13,9h-14l-2.27,3.95H33.63L31.5,58.21l2.67,5.5,2-7.91Zm6,0a1.77,1.77,0,0,0-1.47-2.13,2,2,0,0,0-2.37,1.33L37.76,57a1.78,1.78,0,0,0,1.48,2.13,2,2,0,0,0,2.37-1.33Zm4.71,6.5,2.68-9.86-3.28-4.45L47.12,44.85,44,57a1.77,1.77,0,0,0,1.48,2.13,2,2,0,0,0,2.36-1.33l.93-3.64,2.57,9.61,2.34-5.38-2.06-8.67h12.7l2.27-3.95Z"/>
  </g>
  <g class="cls-4">
    <path class="cls-3" d="M71.48,69.45a41,41,0,1,0-71-27.93A40.91,40.91,0,0,0,12.19,70.18v0l.19.18.28.27L41.82,98.91,70,71c.3-.29.6-.58.89-.89l.59-.57Zm-30-60.58A32.87,32.87,0,0,1,74.11,41.52c.25,18-14.64,32.64-32.65,32.64S8.57,59.52,8.82,41.52A32.86,32.86,0,0,1,41.46,8.87Z"/>
  </g>
  <g class="cls-5">
    <path class="cls-3" d="M41.22,5H37.78C27.63,5,3,34.11,3,34.11H14.13v0l7.57-7.57H61.85l7.57,7.57v0l10.63-1.15S54.28,5,41.22,5"/>
  </g>
  <path
    style="fill:#cccccc;stroke-width:0.139082"
    d="M 38.850064,73.990636 C 32.486789,73.416762 26.706882,71.182028 21.534107,67.295622 19.928808,66.089529 17.164553,63.392739 15.923531,61.821975 10.072829,54.416739 7.7831275,45.367786 9.4016124,36.047199 c 0.1531859,-0.882172 0.3103729,-1.655488 0.3493045,-1.718481 0.038932,-0.06299 1.0532621,-0.114532 2.2540671,-0.114532 h 2.183283 l 3.82286,-3.824756 3.82286,-3.824757 h 19.958308 19.958309 l 3.825671,3.814446 3.825672,3.814445 1.668985,-0.192242 c 0.917941,-0.105733 1.742202,-0.194973 1.83169,-0.198312 0.190505,-0.0071 0.487352,1.23072 0.832384,3.470982 0.339307,2.203082 0.340762,6.970744 0.0028,9.108781 -2.042734,12.922144 -11.167886,23.098996 -23.821464,26.566956 -3.320743,0.910115 -7.821904,1.333499 -11.066259,1.040907 z m 13.781392,-13.003153 1.130783,-2.642559 -1.016463,-4.242003 -1.016463,-4.242003 6.33284,-0.03751 6.33284,-0.03751 1.129131,-1.979175 1.129131,-1.979177 -7.700758,-0.03594 c -4.235418,-0.01976 -7.700758,-0.083 -7.700758,-0.140525 0,-0.05752 0.59041,-2.283408 1.312023,-4.946406 l 1.312022,-4.841818 -1.61004,-2.180382 c -1.890712,-2.560479 -1.69294,-2.312759 -1.778286,-2.227413 -0.03788,0.03788 -0.977493,3.653345 -2.08803,8.03437 -1.110536,4.381024 -2.587315,10.165186 -3.281731,12.853689 -0.855127,3.310715 -1.239077,5.03299 -1.189761,5.336886 0.101965,0.628341 0.488999,1.103801 1.102695,1.354634 0.702582,0.287162 1.255284,0.269947 1.900445,-0.05919 0.658526,-0.335955 0.972604,-0.959655 1.403098,-2.786293 0.171265,-0.726704 0.35263,-1.367575 0.403032,-1.424159 0.0504,-0.05658 0.521527,1.50809 1.046944,3.477052 0.525417,1.968962 1.07889,4.03788 1.22994,4.597598 0.15105,0.559717 0.322324,0.966532 0.38061,0.904033 0.05829,-0.0625 0.614826,-1.302786 1.236756,-2.756193 z m -18.347729,2.620201 c 0,-0.05054 1.414245,-5.633692 3.142765,-12.406994 2.886251,-11.309929 3.130113,-12.357325 2.987753,-12.832483 -0.338637,-1.130269 -1.653137,-1.643322 -2.851837,-1.113079 -0.778991,0.344585 -0.993229,0.757992 -1.554144,2.99899 l -0.380392,1.519765 -1.393177,-5.242333 c -0.766246,-2.883283 -1.439856,-5.194437 -1.496913,-5.135898 -0.05706,0.05854 -0.61475,1.286191 -1.23932,2.728115 l -1.135582,2.62168 0.990722,4.19334 c 0.544897,2.306338 1.027572,4.334162 1.072611,4.506276 l 0.08189,0.312934 h -7.024875 -7.024876 l -1.123621,1.98192 -1.12362,1.981919 8.619061,0.03582 c 5.73698,0.02384 8.619063,0.08321 8.619063,0.177547 0,0.07795 -0.438108,1.890833 -0.973574,4.028633 -0.535466,2.137799 -0.97461,3.998098 -0.975874,4.133997 -0.0029,0.314121 2.517527,5.601747 2.670182,5.601747 0.06257,0 0.113758,-0.04135 0.113758,-0.0919 z m 6.399945,-4.617851 c 0.266539,-0.142517 0.596806,-0.450145 0.733925,-0.683615 0.254361,-0.433097 5.105352,-18.960012 5.105352,-19.498372 0,-1.161814 -1.479713,-2.079661 -2.702265,-1.676182 -1.108044,0.365687 -1.041392,0.176538 -3.742722,10.621239 -1.756616,6.791963 -2.448777,9.683628 -2.386157,9.968735 0.274984,1.251991 1.807372,1.901541 2.991867,1.268195 z"
    id="path104" />
</svg>
