<svg id="Ebene_1" data-name="Ebene 1" xmlns="http://www.w3.org/2000/svg" xmlns:xlink="http://www.w3.org/1999/xlink" width="83" height="100" viewBox="0 0 83 100">
  <defs>
    <style>
      .cls-1 {
        fill: none;
      }

      .cls-2 {
        clip-path: url(#clip-path);
      }

      .cls-3 {
        fill: #456879;
      }

      .cls-4 {
        fill: #456879;
      }
    </style>
    <clipPath id="clip-path">
      <rect class="cls-1" x="0.48" y="0.49" width="82.05" height="99.02"/>
    </clipPath>
  </defs>
  <g class="cls-2">
    <path class="cls-3" d="M71.52,69.45a41.06,41.06,0,1,0-59.29.73v0l.19.18.28.27L41.86,98.91,70,71c.31-.29.61-.58.9-.89l.58-.57ZM41.5,8.87c18,0,32.4,14.68,32.65,32.65S59.5,74.16,41.5,74.16,8.61,59.52,8.85,41.52A32.87,32.87,0,0,1,41.5,8.87Z"/>
  </g>
  <g>
    <rect class="cls-4" x="39.14" y="30.73" width="23.28" height="23.28"/>
    <rect class="cls-4" x="16.58" y="40.98" width="22.56" height="2.79"/>
  </g>
  <path
    style="fill:#cccccc;stroke-width:0.139082"
    d="M 38.870391,73.992021 C 28.611295,73.063337 19.569804,67.63401 13.999248,59.057146 11.681612,55.488734 10.121353,51.474046 9.3171696,47.009736 8.996664,45.230495 8.8798935,40.416747 9.1070124,38.34621 9.9620609,30.551131 13.403101,23.534588 19.014981,18.143109 c 4.98521,-4.78942 10.954222,-7.73111 17.952901,-8.8476726 2.442078,-0.3896069 6.513253,-0.4156271 8.929197,-0.057069 10.781536,1.6001196 19.928545,8.2522326 24.685198,17.9521746 2.234473,4.556618 3.274268,8.721382 3.439939,13.778205 0.172504,5.265419 -0.889925,10.164985 -3.22502,14.872699 -1.761726,3.551767 -3.691062,6.189653 -6.565961,8.977313 -5.035275,4.882483 -11.272377,7.940497 -18.264615,8.955035 -1.838136,0.266704 -5.363181,0.375109 -7.096229,0.218227 z M 62.517385,42.349697 V 30.596473 l -11.717663,0.03556 -11.717664,0.03556 -0.03648,5.111266 -0.03648,5.111265 H 27.745157 16.481224 v 1.460362 1.460361 h 11.265647 11.265646 v 5.146037 5.146036 h 11.752434 11.752434 z"
    id="path135" />
</svg>
