<svg id="Ebene_1" data-name="Ebene 1" xmlns="http://www.w3.org/2000/svg" xmlns:xlink="http://www.w3.org/1999/xlink" width="83" height="100" viewBox="0 0 83 100">
  <defs>
    <style>
      .cls-1 {
        fill: none;
      }

      .cls-2 {
        clip-path: url(#clip-path);
      }

      .cls-3 {
        fill: #f3a923;
      }
    </style>
    <clipPath id="clip-path">
      <rect class="cls-1" x="0.48" y="0.49" width="82.05" height="99.02"/>
    </clipPath>
  </defs>
  <g class="cls-2">
    <path class="cls-3" d="M71.52,69.45a41.06,41.06,0,1,0-59.29.73v0l.19.18.28.27L41.86,98.91,70,71c.31-.29.61-.58.9-.89l.58-.57ZM41.5,8.87c18,0,32.4,14.68,32.65,32.65S59.5,74.16,41.5,74.16,8.61,59.52,8.85,41.52A32.87,32.87,0,0,1,41.5,8.87Z"/>
  </g>
  <g>
    <polygon class="cls-3" points="43.63 14.84 43.63 52.9 50.66 56.9 48.26 19.12 43.63 14.84"/>
    <polygon class="cls-3" points="41.24 14.84 36.61 19.12 34.21 56.9 41.24 52.9 41.24 14.84"/>
    <polygon class="cls-3" points="30.73 61.2 29.91 64.87 42.37 62.46 55.21 64.87 54.42 61.2 42.49 54.45 30.73 61.2"/>
  </g>
  <path
    style="fill:#cccccc;stroke-width:0.139082"
    d="M 38.840754,73.990001 C 36.050342,73.738769 32.664376,72.98862 30.265808,72.090252 18.773092,67.785726 10.778769,57.858636 9.1723479,45.897079 8.7784649,42.964192 8.9646064,38.176339 9.5894553,35.168424 12.001455,23.557469 20.433947,14.172051 31.733949,10.521461 c 3.403504,-1.0995399 6.120019,-1.519296 9.851586,-1.5222684 5.118522,-0.00408 9.421554,0.9893903 14.047288,3.2431834 8.605368,4.192787 14.972313,12.055211 17.382312,21.465094 0.660033,2.577114 0.911508,4.378569 1.00412,7.193107 0.175226,5.325187 -0.891375,10.273584 -3.230357,14.98694 -1.723749,3.473582 -3.682929,6.142423 -6.557663,8.933005 -5.977684,5.802696 -13.52506,8.983304 -21.899193,9.228739 -1.17553,0.03445 -2.746609,0.0078 -3.491288,-0.05926 z m -2.421116,-10.307671 5.960668,-1.148611 6.413032,1.201815 c 3.527167,0.660999 6.430412,1.184434 6.451655,1.163191 0.04627,-0.04627 -0.744292,-3.700326 -0.814826,-3.766185 -0.02699,-0.02521 -2.724178,-1.559686 -5.993741,-3.409953 l -5.944658,-3.364122 -5.877317,3.368356 c -3.232523,1.852595 -5.89187,3.379541 -5.909658,3.393211 -0.03386,0.02602 -0.871691,3.670473 -0.871691,3.791736 0,0.03834 0.14082,0.03584 0.312934,-0.0056 0.172114,-0.0414 2.995235,-0.592143 6.273602,-1.223879 z m 1.363401,-8.723571 3.38525,-1.925802 0.03526,-19.15181 0.03526,-19.151808 -2.364886,2.188965 c -1.610379,1.490584 -2.364888,2.281866 -2.364888,2.480148 0,0.16015 -0.53194,8.644395 -1.182089,18.853876 -0.650148,10.209481 -1.182137,18.57834 -1.182197,18.597463 -4.17e-4,0.146101 0.668815,-0.201759 3.638285,-1.891032 z m 12.912371,1.671719 c 0,-0.139746 -0.530353,-8.635922 -1.178563,-18.880389 L 48.338282,19.123783 47.383683,18.21975 C 46.858654,17.722531 45.79304,16.729903 45.015655,16.013909 l -1.41343,-1.301807 v 19.132531 19.13253 l 3.440283,1.953699 c 1.892154,1.074534 3.488121,1.9537 3.546592,1.9537 0.05847,0 0.10631,-0.114338 0.10631,-0.254084 z"
    id="path98" />
</svg>
