<svg id="Ebene_1" data-name="Ebene 1" xmlns="http://www.w3.org/2000/svg" xmlns:xlink="http://www.w3.org/1999/xlink" width="83" height="100" viewBox="0 0 83 100">
  <defs>
    <style>
      .cls-1 {
        fill: none;
      }

      .cls-2 {
        clip-path: url(#clip-path);
      }

      .cls-3 {
        fill: #3d3b3d;
      }

      .cls-4 {
        clip-path: url(#clip-path-2);
      }
    </style>
    <clipPath id="clip-path">
      <rect class="cls-1" x="31.03" y="22.07" width="20.86" height="37.24"/>
    </clipPath>
    <clipPath id="clip-path-2">
      <rect class="cls-1" x="0.44" y="0.49" width="82.05" height="99.02"/>
    </clipPath>
  </defs>
  <g class="cls-2">
    <path class="cls-3" d="M51.89,32.5A10.43,10.43,0,1,0,37,41.88L33.8,59.31H49.13L46,41.87a10.39,10.39,0,0,0,5.93-9.37"/>
  </g>
  <g class="cls-4">
    <path class="cls-3" d="M71.48,69.45a41,41,0,1,0-71-27.93A40.91,40.91,0,0,0,12.19,70.18v0l.19.18.28.27L41.82,98.91,70,71c.3-.29.6-.58.89-.89l.59-.57Zm-30-60.58A32.87,32.87,0,0,1,74.11,41.52c.25,18-14.64,32.64-32.65,32.64S8.57,59.52,8.82,41.52A32.86,32.86,0,0,1,41.46,8.87Z"/>
  </g>
  <path
    style="fill:#e6e6e6;stroke-width:0.139082"
    d="M 38.850064,73.990636 C 31.044611,73.286698 23.953291,70.017636 18.487545,64.603616 12.740592,58.911051 9.5611374,52.015492 8.9666244,43.954772 8.2905417,34.788088 11.723913,25.514949 18.258302,18.859019 c 5.218021,-5.315075 11.746345,-8.615414 19.000843,-9.6057151 3.242799,-0.44267 6.136452,-0.3965856 9.402886,0.1497508 10.490656,1.7546433 19.58062,8.6282793 24.196905,18.2971813 1.347627,2.822635 2.373944,6.222096 2.869377,9.504215 0.344918,2.284993 0.349811,7.025382 0.0095,9.178322 C 71.69505,59.304917 62.569898,69.481769 49.91632,72.949729 46.595577,73.859844 42.094416,74.283228 38.850061,73.990636 Z M 49.165508,59.241713 c 0,-0.08048 -0.691826,-3.999222 -1.537393,-8.708319 -0.845564,-4.709098 -1.518374,-8.57381 -1.495132,-8.588252 3.333797,-2.071391 4.751626,-3.868132 5.552961,-7.036988 0.250557,-0.990813 0.284605,-1.423543 0.218479,-2.776688 -0.08893,-1.819672 -0.330395,-2.84449 -1.001302,-4.2496 -0.985327,-2.063609 -2.785765,-3.867406 -4.851757,-4.860806 -1.352014,-0.650095 -2.407602,-0.911602 -4.054269,-1.004386 -3.196761,-0.180126 -5.952279,0.933653 -8.18701,3.309187 -1.167753,1.241328 -2.116562,2.947063 -2.545822,4.576782 -0.324356,1.231442 -0.31578,3.912299 0.01644,5.13799 0.710866,2.622697 2.295166,4.809498 4.531638,6.255 0.467928,0.302437 0.908528,0.569622 0.979111,0.593745 0.07058,0.02412 -0.589952,3.950712 -1.467858,8.72575 -0.877905,4.775038 -1.596192,8.702367 -1.596192,8.727399 0,0.02503 3.473575,0.04551 7.719054,0.04551 5.308059,0 7.719055,-0.0457 7.719055,-0.146326 z"
    id="path97" />
</svg>
