<svg id="Ebene_1" data-name="Ebene 1" xmlns="http://www.w3.org/2000/svg" xmlns:xlink="http://www.w3.org/1999/xlink" width="83" height="100" viewBox="0 0 83 100">
  <defs>
    <style>
      .cls-1 {
        fill: none;
      }

      .cls-2 {
        clip-path: url(#clip-path);
      }

      .cls-3 {
        fill: #8c1f21;
      }

      .cls-4 {
        fill: #fff;
      }
    </style>
    <clipPath id="clip-path">
      <rect class="cls-1" x="0.48" y="0.49" width="82.05" height="99.02"/>
    </clipPath>
  </defs>
  <g class="cls-2">
    <path class="cls-3" d="M71.52,69.45a41.06,41.06,0,1,0-59.29.73v0l.19.18.28.27L41.86,98.91,70,71c.31-.29.61-.58.9-.89l.58-.57ZM41.5,8.87c18,0,32.4,14.68,32.65,32.65S59.5,74.16,41.5,74.16,8.61,59.52,8.85,41.52A32.87,32.87,0,0,1,41.5,8.87Z"/>
  </g>
  <path class="cls-3" d="M67.88,42.87v-3H47.53a6,6,0,0,0-.7-1.71L57.59,27.4l-2.12-2.12L44.71,36a6,6,0,0,0-1.71-.7V15H40V35.34a6,6,0,0,0-1.71.7L27.53,25.28,25.41,27.4,36.17,38.16a6.3,6.3,0,0,0-.71,1.71H15.12v3H35.46a6.3,6.3,0,0,0,.71,1.71L25.41,55.34l2.12,2.12L38.29,46.7a6,6,0,0,0,1.71.7V67.75h3V47.4a6,6,0,0,0,1.71-.7L55.47,57.46l2.12-2.12L46.83,44.58a6,6,0,0,0,.7-1.71Z"/>
  <circle class="cls-4" cx="41.5" cy="40.89" r="11.16"/>
  <path
    style="fill:#e6e6e6;stroke-width:0.139082"
    d="M 39.499305,74.045779 C 28.824839,73.203527 19.720633,67.848968 13.98597,59.040334 11.6897,55.513186 10.120618,51.469964 9.3171696,47.009736 8.996664,45.230495 8.8798935,40.416747 9.1070124,38.34621 9.9541515,30.623236 13.359966,23.619739 18.864263,18.282027 c 5.119861,-4.964911 11.173594,-7.939489 18.409729,-9.0458544 2.144758,-0.3279218 6.406087,-0.3268373 8.623087,0.00219 7.175956,1.0650054 13.323055,4.1535044 18.428736,9.2591844 2.796395,2.796395 4.658816,5.395395 6.32899,8.832073 2.172145,4.469575 3.203913,8.648569 3.367411,13.639123 0.282659,8.627694 -2.888803,16.753477 -9.00061,23.060982 -5.184493,5.3505 -11.685222,8.674749 -19.054986,9.744065 -1.484442,0.215384 -5.20278,0.371761 -6.467315,0.271985 z m 3.546592,-14.136182 v -7.962448 h -1.529903 -1.529902 v 7.962448 7.962448 h 1.529902 1.529903 z m -9.083075,-10.968903 -1.139456,-1.077136 -3.75342,3.744073 -3.75342,3.744076 1.108759,1.115301 1.108761,1.115302 3.784115,-3.782239 3.784116,-3.782239 z m 20.000331,2.66148 -3.75453,-3.75175 -1.141207,1.074789 L 47.92621,50 l 3.782765,3.789933 3.782765,3.789933 1.112971,-1.11297 1.112971,-1.112971 z M 30.478784,42.121462 C 30.42964,41.65127 30.38943,40.93152 30.38943,40.522018 v -0.744549 h -7.649513 -7.649514 v 1.599443 1.599444 h 7.738868 7.738867 z m 37.462802,-0.74455 v -1.599443 l -7.684284,4.7e-5 -7.684284,4.7e-5 -0.01321,1.225892 c -0.0073,0.67424 -0.0554,1.393969 -0.106961,1.599396 l -0.09375,0.373505 h 7.791245 7.791245 z M 31.041114,28.68569 l -3.50079,-3.511807 -1.112656,1.112657 -1.112657,1.112656 3.536604,3.538644 3.536602,3.538644 1.076844,-1.139494 1.076844,-1.139493 z m 25.563549,-2.398807 -1.112998,-1.113 -3.507353,3.511807 -3.507355,3.511807 1.074456,1.14151 1.074456,1.141512 3.545897,-3.540319 3.545897,-3.540318 z M 43.045897,22.357441 V 14.88178 h -1.529903 -1.529902 v 7.475661 7.475661 h 1.529902 1.529903 z"
    id="path75" />
</svg>
