<svg id="Ebene_1" data-name="Ebene 1" xmlns="http://www.w3.org/2000/svg" xmlns:xlink="http://www.w3.org/1999/xlink" width="83" height="100" viewBox="0 0 83 100">
  <defs>
    <style>
      .cls-1 {
        fill: none;
      }

      .cls-2 {
        clip-path: url(#clip-path);
      }

      .cls-3 {
        fill: #3d3b3d;
      }

      .cls-4 {
        clip-path: url(#clip-path-2);
      }
    </style>
    <clipPath id="clip-path">
      <rect class="cls-1" x="0.44" y="0.49" width="82.05" height="99.02"/>
    </clipPath>
    <clipPath id="clip-path-2">
      <rect class="cls-1" x="15.74" y="24.49" width="50.28" height="32.39"/>
    </clipPath>
  </defs>
  <g class="cls-2">
    <path class="cls-3" d="M71.48,69.45a41,41,0,1,0-71-27.93A40.91,40.91,0,0,0,12.19,70.18v0l.19.18.28.27L41.82,98.91,70,71c.3-.29.6-.58.89-.89l.59-.57Zm-30-60.58A32.87,32.87,0,0,1,74.11,41.52c.25,18-14.64,32.64-32.65,32.64S8.57,59.52,8.82,41.52A32.86,32.86,0,0,1,41.46,8.87Z"/>
  </g>
  <g class="cls-4">
    <path class="cls-3" d="M39.81,32.39a1.77,1.77,0,0,0-1.48-2.13A2,2,0,0,0,36,31.59l-.92,3.6-2.86-10.7-2.34,5.38,2.13,9H18l-2.26,3.94H33.05l-2.13,8.49,2.66,5.51,2-7.91Zm6,0a1.78,1.78,0,0,0-1.48-2.13,2,2,0,0,0-2.36,1.33L37.18,50.12a1.77,1.77,0,0,0,1.48,2.13A2,2,0,0,0,41,50.92Zm4.7,6.5L53.15,29l-3.28-4.45L46.53,38,43.42,50.12a1.78,1.78,0,0,0,1.48,2.13,2,2,0,0,0,2.36-1.33l.94-3.64,2.56,9.61,2.34-5.38-2.05-8.68h12.7L66,38.89Z"/>
  </g>
  <path
    style="fill:#FFFFFF;stroke-width:0.139082"
    d="M 38.850064,73.990636 C 31.044611,73.286698 23.953291,70.017636 18.487545,64.603616 12.740592,58.911051 9.5611374,52.015492 8.9666244,43.954772 8.2905417,34.788088 11.723913,25.514949 18.258302,18.859019 c 5.218021,-5.315075 11.746345,-8.615414 19.000843,-9.6057151 3.242799,-0.44267 6.136452,-0.3965856 9.402886,0.1497508 10.490656,1.7546433 19.58062,8.6282793 24.196905,18.2971813 1.347627,2.822635 2.373944,6.222096 2.869377,9.504215 0.344918,2.284993 0.349811,7.025382 0.0095,9.178322 C 71.69505,59.304917 62.569898,69.481769 49.91632,72.949729 46.595577,73.859844 42.094416,74.283228 38.850061,73.990636 Z M 34.631401,52.990264 c 0.506826,-2.027121 1.887675,-7.453443 3.068554,-12.058495 1.233408,-4.809893 2.147055,-8.642943 2.147055,-9.007605 0,-0.524709 -0.07988,-0.721948 -0.460644,-1.137435 -0.387387,-0.422712 -0.575135,-0.51365 -1.180587,-0.571826 -1.510134,-0.145105 -2.057141,0.408294 -2.601131,2.631532 -0.212142,0.867006 -0.425882,1.653487 -0.474975,1.747735 -0.04909,0.09425 -0.45104,-1.188783 -0.893211,-2.851183 -1.702903,-6.402269 -1.943328,-7.264545 -2.025548,-7.264545 -0.04666,0 -0.6077,1.212377 -1.24676,2.694173 l -1.161927,2.694171 0.996229,4.225161 c 0.547926,2.323837 1.028493,4.334687 1.067925,4.468554 0.06761,0.229521 -0.327179,0.243439 -6.926549,0.24421 l -6.998246,8.15e-4 -1.141269,1.981104 -1.141269,1.981103 8.61693,0.03582 c 6.756047,0.02809 8.616115,0.07314 8.613162,0.208623 -0.0021,0.09504 -0.464837,2.006575 -1.028367,4.247854 l -1.024599,4.075056 1.340371,2.768712 c 0.737205,1.522793 1.383792,2.724484 1.436863,2.670426 0.05307,-0.05406 0.511166,-1.756842 1.017993,-3.783963 z m 17.43629,1.107928 1.115347,-2.577746 -0.969005,-4.098193 c -0.532952,-2.254005 -1.003005,-4.207719 -1.044563,-4.341585 -0.0712,-0.229363 0.292068,-0.243394 6.301922,-0.243394 h 6.37748 l 1.072783,-1.874643 c 0.590029,-1.031052 1.072782,-1.938563 1.072782,-2.016689 0,-0.09495 -2.536103,-0.142048 -7.649513,-0.142048 -5.596187,0 -7.649514,-0.04221 -7.649514,-0.157251 0,-0.08649 0.571119,-2.29913 1.269153,-4.916982 l 1.269152,-4.759731 -1.64741,-2.243008 c -0.906076,-1.233654 -1.687507,-2.197299 -1.736514,-2.141432 -0.04901,0.05587 -0.788988,2.917987 -1.644404,6.360268 -0.855418,3.442281 -2.303658,9.179323 -3.218315,12.748983 -0.914656,3.56966 -1.662777,6.667712 -1.662491,6.884562 6.96e-4,0.483323 0.424711,1.205993 0.884469,1.507239 0.448025,0.293557 1.600209,0.296831 2.162335,0.0061 0.635048,-0.328395 0.919666,-0.890028 1.354459,-2.672728 0.211373,-0.866656 0.423271,-1.575734 0.470888,-1.575734 0.04762,0 0.600701,1.955842 1.229077,4.346314 1.332971,5.070891 1.243537,4.776757 1.402628,4.612966 0.06815,-0.07016 0.625815,-1.287555 1.239254,-2.705316 z M 40.222733,52.02232 c 0.244896,-0.149321 0.535396,-0.446376 0.645556,-0.66012 0.110162,-0.213744 1.302146,-4.644537 2.648856,-9.846206 2.652442,-10.245061 2.606338,-9.981297 1.880791,-10.76008 -0.822816,-0.883191 -2.580572,-0.727209 -3.240021,0.287516 -0.24036,0.369854 -5.092546,19.033854 -5.092546,19.588552 0,0.46151 0.52204,1.254352 0.977749,1.484943 0.531214,0.268798 1.664273,0.219619 2.179615,-0.09461 z"
    id="path97" />
</svg>
