<svg id="Ebene_1" data-name="Ebene 1" xmlns="http://www.w3.org/2000/svg" xmlns:xlink="http://www.w3.org/1999/xlink" width="83" height="100" viewBox="0 0 83 100">
  <defs>
    <style>
      .cls-1 {
        fill: none;
      }

      .cls-2 {
        clip-path: url(#clip-path);
      }

      .cls-3 {
        fill: #3d3b3d;
      }

      .cls-4 {
        clip-path: url(#clip-path-2);
      }

      .cls-5 {
        clip-path: url(#clip-path-3);
      }
    </style>
    <clipPath id="clip-path">
      <rect class="cls-1" x="14.22" y="30.38" width="32.01" height="20.62"/>
    </clipPath>
    <clipPath id="clip-path-2">
      <rect class="cls-1" x="36.48" y="30.38" width="32.01" height="20.62"/>
    </clipPath>
    <clipPath id="clip-path-3">
      <rect class="cls-1" x="0.44" y="0.49" width="82.05" height="99.02"/>
    </clipPath>
  </defs>
  <g>
    <g class="cls-2">
      <g>
        <path class="cls-3" d="M28.61,34.05a1.27,1.27,0,0,0-1.51.85l-.58,2.29L24.7,30.38,23.21,33.8l1.36,5.74H15.66l-1.44,2.51h11l-1.35,5.41L25.58,51l1.27-5,2.7-10.53A1.14,1.14,0,0,0,28.61,34.05Z"/>
        <path class="cls-3" d="M46.23,39.54H36.34L38,33.27,36,30.43,33.83,39l-2,7.73a1.13,1.13,0,0,0,.94,1.36,1.26,1.26,0,0,0,1.5-.85l.6-2.32L36.52,51,38,47.58,36.7,42.05h8.09Z"/>
        <path class="cls-3" d="M32.4,34.05a1.27,1.27,0,0,0-1.51.85l-3,11.79a1.14,1.14,0,0,0,.94,1.36,1.27,1.27,0,0,0,1.51-.85l3-11.8A1.12,1.12,0,0,0,32.4,34.05Z"/>
      </g>
    </g>
    <g class="cls-4">
      <g>
        <path class="cls-3" d="M50.86,34.05a1.26,1.26,0,0,0-1.5.85l-.59,2.29L47,30.38,45.46,33.8l1.36,5.74h-8.9l-1.44,2.51h11l-1.36,5.41,1.7,3.5,1.27-5L51.8,35.4A1.12,1.12,0,0,0,50.86,34.05Z"/>
        <path class="cls-3" d="M68.49,39.54h-9.9l1.71-6.27-2.09-2.84L56.08,39l-2,7.73A1.14,1.14,0,0,0,55,48.05a1.27,1.27,0,0,0,1.51-.85l.59-2.32L58.78,51l1.49-3.42L59,42.05H67Z"/>
        <path class="cls-3" d="M54.66,34.05a1.27,1.27,0,0,0-1.51.85l-3,11.79a1.13,1.13,0,0,0,.94,1.36,1.26,1.26,0,0,0,1.5-.85l3-11.8A1.14,1.14,0,0,0,54.66,34.05Z"/>
      </g>
    </g>
  </g>
  <g class="cls-5">
    <path class="cls-3" d="M71.48,69.45a41,41,0,1,0-71-27.93A40.91,40.91,0,0,0,12.19,70.18v0l.19.18.28.27L41.82,98.91,70,71c.3-.29.6-.58.89-.89l.59-.57Zm-30-60.58A32.87,32.87,0,0,1,74.11,41.52c.25,18-14.64,32.64-32.65,32.64S8.57,59.52,8.82,41.52A32.86,32.86,0,0,1,41.46,8.87Z"/>
  </g>
  <path
    style="fill:#e6e6e6;stroke-width:0.139082"
    d="M 38.850064,73.990636 C 31.044611,73.286698 23.953291,70.017636 18.487545,64.603616 12.740592,58.911051 9.5611374,52.015492 8.9666244,43.954772 8.2905417,34.788088 11.723913,25.514949 18.258302,18.859019 c 5.218021,-5.315075 11.746345,-8.615414 19.000843,-9.6057151 3.242799,-0.44267 6.136452,-0.3965856 9.402886,0.1497508 10.490656,1.7546433 19.58062,8.6282793 24.196905,18.2971813 1.347627,2.822635 2.373944,6.222096 2.869377,9.504215 0.344918,2.284993 0.349811,7.025382 0.0095,9.178322 C 71.69505,59.304917 62.569898,69.481769 49.91632,72.949729 46.595577,73.859844 42.094416,74.283228 38.850061,73.990636 Z M 27.743441,42.872235 c 1.240079,-4.871687 1.924955,-7.807679 1.871227,-8.021754 -0.121986,-0.486028 -0.51532,-0.788334 -1.133617,-0.871265 -0.856808,-0.114923 -1.342887,0.385065 -1.652938,1.700235 -0.135119,0.573141 -0.287519,0.994265 -0.338668,0.935831 -0.05115,-0.05843 -0.460093,-1.498801 -0.908768,-3.200817 -0.448673,-1.702017 -0.848932,-3.093106 -0.889461,-3.091309 -0.04053,0.0018 -0.408949,0.78151 -0.818707,1.732694 l -0.745015,1.729427 0.640703,2.698271 c 0.352387,1.484049 0.640704,2.769705 0.640704,2.857014 0,0.115595 -1.200278,0.158843 -4.415855,0.159114 l -4.415855,4.17e-4 -0.725665,1.286139 -0.725664,1.286138 5.498088,0.03637 c 5.149008,0.03406 5.493318,0.05173 5.422958,0.278164 -0.168776,0.543167 -1.190958,4.845319 -1.192583,5.019327 -9.73e-4,0.103305 0.380059,0.979522 0.846717,1.947149 0.69873,1.448834 0.869466,1.710229 0.967446,1.481156 0.06544,-0.152991 0.999167,-3.736007 2.074953,-7.962258 z m 9.59564,6.442865 0.732008,-1.728015 -0.592204,-2.548758 c -0.325713,-1.401817 -0.621283,-2.626992 -0.656822,-2.722611 -0.05098,-0.137171 1.053639,-0.173852 5.235379,-0.173852 2.915,0 5.299999,0.04351 5.299999,0.09669 0,0.05318 -0.281641,1.177621 -0.625869,2.498756 -0.344228,1.321133 -0.625576,2.513713 -0.625219,2.650176 6.96e-4,0.272366 1.641052,3.730342 1.727291,3.641284 0.0294,-0.03036 0.968111,-3.631207 2.086028,-8.001885 2.109559,-8.247659 2.123929,-8.328655 1.560633,-8.796148 -0.119711,-0.09935 -0.461582,-0.213358 -0.759711,-0.253345 -0.827369,-0.110974 -1.330312,0.420485 -1.671906,1.766695 -0.145575,0.573714 -0.300739,0.949235 -0.344809,0.834492 -0.04407,-0.114742 -0.369,-1.335187 -0.72207,-2.7121 -0.353069,-1.376912 -0.705133,-2.746139 -0.782363,-3.042726 -0.07723,-0.296588 -0.190436,-0.484349 -0.251568,-0.417246 -0.06113,0.0671 -0.43924,0.852814 -0.840237,1.746026 l -0.729087,1.624024 0.641738,2.70263 c 0.352957,1.486447 0.641739,2.774064 0.641739,2.861373 0,0.116036 -1.365726,0.158743 -5.076496,0.158743 -3.658553,0 -5.076495,-0.04357 -5.076495,-0.155996 0,-0.0858 0.348156,-1.469924 0.77368,-3.075835 0.425525,-1.605912 0.745525,-2.993213 0.711113,-3.08289 -0.03441,-0.08968 -0.491178,-0.774437 -1.015033,-1.521686 -0.764046,-1.089866 -0.972566,-1.30894 -1.054081,-1.107428 -0.05589,0.138163 -0.921363,3.474433 -1.923274,7.413932 -1.001912,3.939499 -1.911553,7.471374 -2.021427,7.848609 -0.452317,1.552988 -0.109299,2.304381 1.051971,2.304381 0.858642,0 1.194826,-0.366324 1.529215,-1.666313 0.14166,-0.550726 0.280533,-1.024289 0.308608,-1.052363 0.02807,-0.02808 0.392445,1.229305 0.809714,2.794177 0.417267,1.564872 0.796665,2.845222 0.843107,2.845222 0.04644,0 0.413843,-0.777606 0.816448,-1.728015 z m 22.675467,-0.951603 0.330608,-0.802012 -0.583102,-2.535958 c -0.320705,-1.394777 -0.582997,-2.614192 -0.582869,-2.709811 1.39e-4,-0.134977 0.879752,-0.173852 3.933616,-0.173852 h 3.933385 l 0.725864,-1.226093 c 0.399225,-0.674351 0.725864,-1.268927 0.725864,-1.32128 0,-0.05235 -2.190543,-0.09519 -4.867872,-0.09519 -3.802875,0 -4.86734,-0.03804 -4.865437,-0.173853 0.0014,-0.09562 0.345569,-1.425337 0.764951,-2.954926 0.419384,-1.529591 0.762516,-2.889347 0.762516,-3.021679 0,-0.347124 -2.065617,-3.108832 -2.148997,-2.873185 -0.03735,0.105563 -0.574207,2.226007 -1.193014,4.712099 -0.618805,2.486092 -1.528207,6.065538 -2.020891,7.954325 -0.492685,1.888787 -0.89579,3.628419 -0.89579,3.865849 0,0.608894 0.537573,1.114457 1.185019,1.114457 0.933452,0 1.267082,-0.37789 1.596299,-1.808067 0.09685,-0.420723 0.209338,-0.822436 0.249978,-0.892695 0.04064,-0.07026 0.401147,1.071783 0.801128,2.537873 0.39998,1.466092 0.77175,2.775315 0.826154,2.909387 0.100352,0.247301 0.499733,-0.509252 1.32259,-2.505393 z M 29.839057,47.980122 c 0.146209,-0.07825 0.328668,-0.259676 0.405465,-0.403171 0.166909,-0.311875 3.204713,-12.191257 3.204713,-12.532087 0,-0.414875 -0.544206,-0.954881 -1.059786,-1.051604 -0.577969,-0.108428 -1.069135,0.08237 -1.357971,0.527527 -0.113934,0.175598 -0.900649,3.050563 -1.748254,6.388812 -1.644011,6.474854 -1.648348,6.506497 -0.957857,6.990135 0.360299,0.252363 1.117239,0.292564 1.51369,0.08039 z m 22.253129,0 c 0.146209,-0.07825 0.328046,-0.258514 0.404084,-0.400591 0.166201,-0.31055 3.206094,-12.215094 3.206094,-12.555407 0,-0.45029 -0.592638,-0.961704 -1.210471,-1.044573 -0.512501,-0.06874 -0.632707,-0.02929 -0.979808,0.321535 -0.354961,0.358772 -0.555988,1.031391 -1.95515,6.541828 -1.662233,6.546498 -1.666198,6.575094 -0.978438,7.05682 0.360299,0.252363 1.117239,0.292564 1.513689,0.08039 z"
    id="path118" />
</svg>
