<svg id="Ebene_1" data-name="Ebene 1" xmlns="http://www.w3.org/2000/svg" xmlns:xlink="http://www.w3.org/1999/xlink" width="83" height="100" viewBox="0 0 83 100">
  <defs>
    <style>
      .cls-1 {
        fill: none;
      }

      .cls-2 {
        fill: #456879;
      }

      .cls-3 {
        clip-path: url(#clip-path);
      }

      .cls-4 {
        clip-path: url(#clip-path-2);
      }
    </style>
    <clipPath id="clip-path">
      <rect class="cls-1" x="30.5" y="14.61" width="21.79" height="20.72"/>
    </clipPath>
    <clipPath id="clip-path-2">
      <rect class="cls-1" x="0.48" y="0.49" width="82.05" height="99.02"/>
    </clipPath>
  </defs>
  <g>
    <g>
      <polygon class="cls-2" points="57.72 48.43 24.95 48.43 21.43 42.96 61.35 42.96 58.38 47.56 57.72 48.43"/>
      <path class="cls-2" d="M54.92,57.49c-.43.21-.87.4-1.29.59a30.5,30.5,0,0,1-24.62,0l-1.29-.6L26.78,57a3.31,3.31,0,0,1-1.8-3V51H57.67v3.07a3.32,3.32,0,0,1-1.81,3Z"/>
    </g>
    <path class="cls-2" d="M65,35.24a3.29,3.29,0,0,0-1.72-2.07L49.6,26.45l-2,1.9L49.13,37,41.39,32.9,33.64,37l1.48-8.62-1.94-1.9-13.7,6.72a3.27,3.27,0,0,0-1.31,4.72l2.71,4.22h41l2.72-4.22A3.27,3.27,0,0,0,65,35.24Z"/>
    <g class="cls-3">
      <path class="cls-2" d="M42.05,17.6l2.22,4.5,5,.72,1.47.21-1.07,1-3.59,3.51c.28,1.64.56,3.29.85,4.94L47.15,34l-1.32-.69L41.39,31,37,33.3,35.63,34l.25-1.47c.28-1.65.57-3.3.85-4.94l-3.6-3.51-1.06-1,1.47-.21,5-.72,2.22-4.5.66-1.33Z"/>
    </g>
  </g>
  <g class="cls-4">
    <path class="cls-2" d="M71.52,69.45a41.06,41.06,0,1,0-59.29.73v0l.19.18.28.27L41.86,98.91,70,71c.31-.29.61-.58.9-.89l.58-.57ZM41.5,8.87c18,0,32.4,14.68,32.65,32.65S59.5,74.16,41.5,74.16,8.61,59.52,8.85,41.52A32.87,32.87,0,0,1,41.5,8.87Z"/>
  </g>
  <path
    style="fill:#FFFFFF;stroke-width:0.139082"
    d="M 39.499305,74.045779 C 28.824839,73.203527 19.720633,67.848968 13.98597,59.040334 11.6897,55.513186 10.120618,51.469964 9.3171696,47.009736 8.996664,45.230495 8.8798935,40.416747 9.1070124,38.34621 9.9541515,30.623236 13.359966,23.619739 18.864263,18.282027 c 5.119861,-4.964911 11.173594,-7.939489 18.409729,-9.0458544 2.144758,-0.3279218 6.406087,-0.3268373 8.623087,0.00219 7.175956,1.0650054 13.323055,4.1535044 18.428736,9.2591844 2.796395,2.796395 4.658816,5.395395 6.32899,8.832073 2.172145,4.469575 3.203913,8.648569 3.367411,13.639123 0.282659,8.627694 -2.888803,16.753477 -9.00061,23.060982 -5.184493,5.3505 -11.685222,8.674749 -19.054986,9.744065 -1.484442,0.215384 -5.20278,0.371761 -6.467315,0.271985 z m 6.189151,-13.629262 c 1.770565,-0.255185 4.234187,-0.858383 5.865808,-1.436197 1.983278,-0.702346 4.603141,-1.944584 5.099092,-2.417793 0.893522,-0.852545 1.039218,-1.326904 1.107883,-3.607033 l 0.06178,-2.051461 H 41.384334 24.945648 l 0.04456,2.132619 c 0.04382,2.097269 0.05156,2.143954 0.466801,2.816412 0.492696,0.79789 1.201462,1.263303 3.381479,2.220456 3.338471,1.46578 6.935681,2.350775 10.660815,2.622796 1.248938,0.0912 4.696367,-0.06465 6.189151,-0.279799 z M 58.095239,48.087622 c 0.442038,-0.588259 3.176956,-4.827415 3.268725,-5.066559 0.05825,-0.151807 -3.419276,-0.183789 -19.983761,-0.183789 -11.471274,0 -20.034446,0.05232 -20.007927,0.12225 0.0255,0.06724 0.828698,1.348614 1.784887,2.847501 l 1.738525,2.725248 16.429946,0.0037 16.429946,0.0037 0.339659,-0.452017 z m 5.073819,-7.788596 c 1.706329,-2.615773 1.990886,-3.191979 1.990886,-4.031367 0,-1.092856 -0.268709,-1.774468 -0.97402,-2.470719 -0.535304,-0.528425 -1.710621,-1.150983 -7.548913,-3.998609 -3.803195,-1.855007 -6.9619,-3.370015 -7.019348,-3.366684 -0.05745,0.0033 -0.555278,0.425791 -1.106289,0.938804 l -1.001837,0.932748 0.754224,4.234634 c 0.414822,2.329047 0.740475,4.246632 0.723673,4.261295 -0.0168,0.01466 -1.733509,-0.878957 -3.814905,-1.985825 l -3.784355,-2.012489 -3.793753,2.01824 c -2.086564,1.110032 -3.803988,2.00697 -3.8165,1.993195 -0.0125,-0.01377 0.299219,-1.918125 0.692734,-4.23189 l 0.715481,-4.206846 -0.995274,-0.995272 -0.995272,-0.995274 -6.9969,3.435607 c -3.848295,1.889585 -7.197355,3.588501 -7.442355,3.775372 -0.245,0.186872 -0.615176,0.686663 -0.822613,1.110649 -0.328713,0.671865 -0.367814,0.887288 -0.304414,1.67713 0.07902,0.98442 0.125532,1.075279 2.147689,4.195466 l 1.014048,1.564673 h 20.587944 20.587946 z m -24.53029,-7.758698 c 1.450847,-0.762271 2.697219,-1.385947 2.769717,-1.385947 0.0725,0 1.388098,0.657579 2.92356,1.461285 1.53546,0.803707 2.818694,1.434337 2.85163,1.401401 0.03294,-0.03294 -0.185006,-1.504028 -0.484316,-3.269093 l -0.544199,-3.209209 2.363823,-2.260342 c 1.824616,-1.74474 2.302792,-2.272246 2.096273,-2.312526 -0.147153,-0.0287 -1.61317,-0.247936 -3.257815,-0.487188 L 44.367177,22.043704 43.009733,19.332005 C 42.263138,17.840571 41.598779,16.526426 41.53338,16.411683 41.4474,16.260834 41.00765,17.015582 39.945428,19.13711 l -1.469043,2.934051 -1.435688,0.22098 c -0.78963,0.121539 -2.218027,0.328816 -3.174216,0.460616 -0.956189,0.131799 -1.769819,0.268096 -1.808067,0.30288 -0.03825,0.03479 0.980738,1.07325 2.264412,2.307698 l 2.333953,2.244454 -0.488924,2.851182 c -0.268906,1.56815 -0.528239,3.032692 -0.576293,3.254538 -0.110043,0.508032 -0.269619,0.569469 3.047206,-1.173181 z"
    id="path107" />
</svg>
