<svg id="Ebene_1" data-name="Ebene 1" xmlns="http://www.w3.org/2000/svg" xmlns:xlink="http://www.w3.org/1999/xlink" width="83" height="100" viewBox="0 0 83 100">
  <defs>
    <style>
      .cls-1 {
        fill: none;
      }

      .cls-2 {
        fill: #456879;
      }

      .cls-3 {
        clip-path: url(#clip-path);
      }
    </style>
    <clipPath id="clip-path">
      <rect class="cls-1" x="0.44" y="0.49" width="82.05" height="99.02"/>
    </clipPath>
  </defs>
  <g>
    <polygon class="cls-2" points="57.73 47.62 24.97 47.62 21.45 42.15 61.37 42.15 58.4 46.76 57.73 47.62"/>
    <path class="cls-2" d="M54.94,56.68c-.43.21-.87.41-1.29.59a30.5,30.5,0,0,1-24.62,0c-.42-.18-.85-.38-1.29-.59l-.94-.47a3.29,3.29,0,0,1-1.8-3V50.19H57.69v3.07a3.31,3.31,0,0,1-1.81,3Z"/>
    <path class="cls-2" d="M41.41,38.42s5.26-1.65,5.26-6.86a16.15,16.15,0,0,0-.49-4l-1-.05A5.86,5.86,0,0,1,42,26.45l-.6-.42-.6.41a6.28,6.28,0,0,1-3.3,1.1l-.87,0a15.69,15.69,0,0,0-.49,4c0,5.21,5.26,6.86,5.26,6.86M19.5,32.36,41.41,21.62,63.32,32.37a3.26,3.26,0,0,1,1.31,4.71L61.91,41.3h-41l-2.71-4.22a3.27,3.27,0,0,1,1.31-4.72"/>
  </g>
  <g class="cls-3">
    <path class="cls-2" d="M71.48,69.45a41,41,0,1,0-71-27.93A40.91,40.91,0,0,0,12.19,70.18v0l.19.18.28.27L41.82,98.91,70,71c.3-.29.6-.58.89-.89l.59-.57Zm-30-60.58A32.87,32.87,0,0,1,74.11,41.52c.25,18-14.64,32.64-32.65,32.64S8.57,59.52,8.82,41.52A32.86,32.86,0,0,1,41.46,8.87Z"/>
  </g>
  <path
    style="fill:#FFFFFF;stroke-width:0.139082"
    d="M 38.850064,73.990636 C 31.044611,73.286698 23.953291,70.017636 18.487545,64.603616 12.740592,58.911051 9.5611374,52.015492 8.9666244,43.954772 8.2905417,34.788088 11.723913,25.514949 18.258302,18.859019 c 5.218021,-5.315075 11.746345,-8.615414 19.000843,-9.6057151 3.242799,-0.44267 6.136452,-0.3965856 9.402886,0.1497508 10.490656,1.7546433 19.58062,8.6282793 24.196905,18.2971813 1.347627,2.822635 2.373944,6.222096 2.869377,9.504215 0.344918,2.284993 0.349811,7.025382 0.0095,9.178322 -2.042734,12.922144 -11.167886,23.098996 -23.821464,26.566956 -3.320743,0.910115 -7.821904,1.333499 -11.066259,1.040907 z m 6.977474,-14.395027 c 2.851821,-0.43095 5.795842,-1.326982 8.812583,-2.682165 1.697604,-0.7626 2.344278,-1.248529 2.74506,-2.062717 0.297603,-0.604584 0.339036,-0.901119 0.3814,-2.729726 l 0.04753,-2.05146 H 41.389669 24.965229 l 0.0014,1.981919 c 0.0013,1.79123 0.03291,2.048828 0.329298,2.67733 0.454293,0.963349 0.744609,1.189427 2.773968,2.160179 3.095195,1.480598 6.922203,2.564813 10.247253,2.903109 1.765907,0.179665 5.702892,0.07668 7.510431,-0.196469 z M 58.170924,47.183588 c 0.578287,-0.743429 3.255057,-4.927751 3.192421,-4.990388 -0.02876,-0.02875 -9.032908,-0.03642 -20.009227,-0.01704 l -19.956942,0.03524 1.749257,2.742665 1.749255,2.742666 16.434767,0.0042 16.434766,0.0042 0.405703,-0.521557 z m 5.250495,-8.060929 c 0.764951,-1.199798 1.469054,-2.364108 1.564673,-2.587356 0.259837,-0.606658 0.212144,-2.014727 -0.09084,-2.681862 -0.14222,-0.313153 -0.50072,-0.770466 -0.796668,-1.016252 -0.406238,-0.337382 -22.402191,-11.27947 -22.674164,-11.27947 -0.193786,0 -22.305869,10.925458 -22.662284,11.197307 -0.688056,0.524807 -1.099861,1.493987 -1.092768,2.571817 0.007,1.06078 0.03608,1.123049 1.835774,3.929068 l 1.315746,2.05146 20.604853,-0.0016 20.604854,-0.0016 1.390821,-2.181451 z"
    id="path98" />
  <path
    style="fill:#FFFFFF;stroke-width:0.139082"
    d="m 40.395267,37.859978 c -1.974677,-0.978654 -3.629599,-2.991813 -4.042636,-4.917739 -0.182582,-0.851351 -0.09174,-3.39646 0.164337,-4.60427 l 0.169556,-0.799721 h 0.859589 c 1.079133,0 2.006501,-0.271979 3.031078,-0.888954 l 0.799721,-0.481574 0.799722,0.481574 c 0.972656,0.58571 1.945132,0.888954 2.850799,0.888954 0.928647,0 1.161321,0.156925 1.28137,0.86421 0.218237,1.285779 0.311439,3.282397 0.193384,4.142744 -0.292233,2.129683 -1.794847,4.124432 -3.951148,5.245221 l -1.120726,0.582525 z"
    id="path137" />
</svg>
