<svg id="Ebene_1" data-name="Ebene 1" xmlns="http://www.w3.org/2000/svg" xmlns:xlink="http://www.w3.org/1999/xlink" width="83" height="100" viewBox="0 0 83 100">
  <defs>
    <style>
      .cls-1 {
        fill: none;
      }

      .cls-2 {
        clip-path: url(#clip-path);
      }

      .cls-3 {
        fill: #8c1f21;
      }

      .cls-4 {
        clip-path: url(#clip-path-2);
      }

      .cls-5 {
        fill: #8c1f21;
      }
    </style>
    <clipPath id="clip-path">
      <rect class="cls-1" x="0.48" y="0.49" width="82.05" height="99.02"/>
    </clipPath>
    <clipPath id="clip-path-2">
      <rect class="cls-1" x="2.94" y="4.95" width="77.11" height="29.16"/>
    </clipPath>
  </defs>
  <g class="cls-2">
    <path class="cls-3" d="M71.52,69.45a41.06,41.06,0,1,0-59.29.73v0l.19.18.28.27L41.86,98.91,70,71c.31-.29.61-.58.9-.89l.58-.57ZM41.5,8.87c18,0,32.4,14.68,32.65,32.65S59.5,74.16,41.5,74.16,8.61,59.52,8.85,41.52A32.87,32.87,0,0,1,41.5,8.87Z"/>
  </g>
  <g class="cls-4">
    <path class="cls-5" d="M41.22,5H37.78C27.63,5,3,34.11,3,34.11H14.13v0l7.57-7.57H61.85l7.57,7.57v0l10.63-1.15S54.28,5,41.22,5"/>
  </g>
  <path class="cls-5" d="M67.88,42.87v-3H47.53a6,6,0,0,0-.7-1.71L57.59,27.4l-2.12-2.12L44.71,36a6,6,0,0,0-1.71-.7V15H40V35.34a6,6,0,0,0-1.71.7L27.53,25.28,25.41,27.4,36.17,38.16a6.3,6.3,0,0,0-.71,1.71H15.12v3H35.46a6.3,6.3,0,0,0,.71,1.71L25.41,55.34l2.12,2.12L38.29,46.7a6,6,0,0,0,1.71.7V67.75h3V47.4a6,6,0,0,0,1.71-.7L55.47,57.46l2.12-2.12L46.83,44.58a6,6,0,0,0,.7-1.71Z"/>
  <path
    style="fill:#cccccc;stroke-width:0.139082"
    d="M 38.870391,73.992021 C 28.611295,73.063337 19.569804,67.63401 13.999248,59.057146 11.681612,55.488734 10.121353,51.474046 9.3171696,47.009736 8.996664,45.230495 8.8798935,40.416747 9.1070124,38.34621 9.2674622,36.883463 9.5768381,35.007018 9.7481438,34.45758 9.8161865,34.239343 10.049571,34.214186 12.006148,34.214186 h 2.182119 l 3.82286,-3.824756 3.82286,-3.824757 h 2.14797 2.147971 l -0.403701,0.421374 -0.403703,0.421373 5.366863,5.385303 5.366862,5.385302 -0.351405,0.799722 -0.351405,0.799722 H 25.221922 15.090403 v 1.598541 1.598541 l 10.162226,0.03567 10.162225,0.03567 0.316994,0.764951 0.316995,0.764952 -5.365985,5.388129 -5.365985,5.388128 1.108722,1.115263 1.108722,1.115263 5.372218,-5.370895 5.372219,-5.370894 0.851627,0.327865 0.851629,0.327864 0.002,10.187761 0.002,10.187761 h 1.529902 1.529903 l 0.002,-10.187761 0.002,-10.187761 0.851629,-0.327864 0.851627,-0.327865 5.372218,5.370894 5.372219,5.370895 1.108722,-1.115263 1.108721,-1.115263 -5.390061,-5.391391 -5.390062,-5.391391 0.280766,-0.581118 c 0.154413,-0.319615 0.280758,-0.678022 0.280758,-0.796459 0,-0.192448 1.086808,-0.215342 10.222531,-0.215342 H 67.941586 V 41.376912 39.777469 H 57.719054 c -9.639093,0 -10.223119,-0.01389 -10.232845,-0.243394 -0.0057,-0.133866 -0.124379,-0.493741 -0.263788,-0.799722 l -0.253472,-0.556328 5.370257,-5.385302 5.370259,-5.385303 -0.403703,-0.421373 -0.403701,-0.421374 h 2.424271 2.424272 l 3.825671,3.816836 3.825672,3.816836 1.738526,-0.197743 c 0.956189,-0.108759 1.780449,-0.199075 1.83169,-0.200703 0.120242,-0.0038 0.466318,1.522779 0.742836,3.276758 0.305603,1.938479 0.41878,6.041639 0.218356,7.916389 -1.175747,10.997868 -7.808651,20.548003 -17.757932,25.568086 -3.238818,1.634202 -6.58286,2.686555 -10.208803,3.212662 -1.838136,0.266704 -5.363181,0.375109 -7.096229,0.218227 z"
    id="path80" />
  <path
    style="fill:#cccccc;stroke-width:0.139082"
    d="m 33.589096,31.225183 -4.658471,-4.66051 h 5.527733 5.527734 v 4.34844 4.348439 l -0.730181,0.259159 c -0.401599,0.142537 -0.792768,0.282968 -0.869263,0.31207 -0.0765,0.0291 -2.235394,-2.044317 -4.797552,-4.607598 z"
    id="path71" />
  <path
    style="fill:#cccccc;stroke-width:0.139082"
    d="m 43.880389,35.51742 -0.764951,-0.31111 -0.03675,-4.320818 -0.03675,-4.320819 h 5.528913 5.528912 l -2.293273,2.304331 c -1.2613,1.267383 -3.388544,3.351751 -4.727209,4.631929 l -2.433936,2.327598 z"
    id="path110" />
</svg>
