<svg id="Ebene_1" data-name="Ebene 1" xmlns="http://www.w3.org/2000/svg" xmlns:xlink="http://www.w3.org/1999/xlink" width="83" height="100" viewBox="0 0 83 100">
  <defs>
    <style>
      .cls-1 {
        fill: none;
      }

      .cls-2 {
        clip-path: url(#clip-path);
      }

      .cls-3 {
        fill: #3d3b3d;
      }

      .cls-4 {
        fill: #3c3a3d;
      }
    </style>
    <clipPath id="clip-path">
      <rect class="cls-1" x="0.48" y="0.49" width="82.05" height="99.02"/>
    </clipPath>
  </defs>
  <g class="cls-2">
    <path class="cls-3" d="M71.52,69.45a41.06,41.06,0,1,0-59.29.73v0l.19.18.28.27L41.86,98.91,70,71c.31-.29.61-.58.9-.89l.58-.57ZM41.5,8.87c18,0,32.4,14.68,32.65,32.65S59.5,74.16,41.5,74.16,8.61,59.52,8.85,41.52A32.87,32.87,0,0,1,41.5,8.87Z"/>
  </g>
  <path class="cls-4" d="M67.88,42.87v-3H47.53a6,6,0,0,0-.7-1.71L57.59,27.4l-2.12-2.12L44.71,36a6,6,0,0,0-1.71-.7V15H40V35.34a6,6,0,0,0-1.71.7L27.53,25.28,25.41,27.4,36.17,38.16a6.3,6.3,0,0,0-.71,1.71H15.12v3H35.46a6.3,6.3,0,0,0,.71,1.71L25.41,55.34l2.12,2.12L38.29,46.7a6,6,0,0,0,1.71.7V67.75h3V47.4a6,6,0,0,0,1.71-.7L55.47,57.46l2.12-2.12L46.83,44.58a6,6,0,0,0,.7-1.71Z"/>
  <path
    style="fill:#cccccc;stroke-width:0.139082"
    d="M 39.429764,74.033025 C 31.255566,73.473816 23.408284,69.778908 17.744866,63.822648 13.185089,59.027096 10.285133,53.091221 9.224661,46.382773 c -0.3352091,-2.1205 -0.3361143,-6.897171 -0.00173,-9.108781 0.5488749,-3.630206 1.527449,-6.783206 3.086362,-9.944368 1.662726,-3.371675 3.62338,-6.12769 6.187121,-8.696995 4.128589,-4.137551 9.443358,-7.203934 14.919321,-8.607779 5.063803,-1.2981821 9.857641,-1.4146108 14.845735,-0.3605612 4.622871,0.9768732 9.646755,3.3697492 13.421419,6.3926232 1.335222,1.069289 3.806807,3.530718 4.895049,4.874938 C 73.233424,29.152834 75.65526,40.090986 73.013974,50 70.322751,60.096353 62.653846,68.432146 52.676056,72.106499 48.628334,73.597086 43.64716,74.321542 39.429764,74.033025 Z M 43.115438,57.669167 V 47.466289 l 0.799722,-0.295524 0.799722,-0.295523 5.356624,5.35367 5.356625,5.353671 1.07592,-1.082269 c 0.591757,-0.595247 1.075921,-1.143169 1.075921,-1.217605 0,-0.07443 -2.381008,-2.516947 -5.291131,-5.427805 l -5.29113,-5.29247 0.303478,-0.793039 0.30348,-0.793039 h 10.203228 10.20323 V 41.376912 39.777469 H 57.799773 47.588419 l -0.230434,-0.693775 c -0.12674,-0.381576 -0.29544,-0.733949 -0.374889,-0.783051 -0.07945,-0.0491 2.287106,-2.521437 5.259012,-5.494077 l 5.403466,-5.404798 -1.108721,-1.115263 -1.108722,-1.115263 -5.370682,5.369359 -5.370681,5.369357 -0.571501,-0.291557 c -0.314325,-0.160356 -0.667875,-0.291558 -0.785665,-0.291558 -0.190889,0 -0.214164,-1.111014 -0.214164,-10.222531 V 14.88178 h -1.599444 -1.599443 l -0.0024,10.187761 -0.0024,10.187761 -0.797346,0.31 -0.797346,0.309998 -5.389238,-5.385632 -5.389237,-5.385635 -1.146758,1.14676 -1.146759,1.146758 5.385634,5.389236 5.385633,5.389238 -0.309999,0.797346 -0.31,0.797347 -10.18776,0.0024 -10.187756,0.0024 v 1.599443 1.599444 l 10.187761,0.0024 10.187761,0.0024 0.31,0.797346 0.309998,0.797346 -5.384524,5.38813 -5.384526,5.388128 1.108722,1.115262 1.108722,1.115263 5.375001,-5.373677 5.375002,-5.373676 0.850886,0.329939 0.850886,0.329939 V 57.683581 67.87205 h 1.599443 1.599444 V 57.669172 Z"
    id="path73" />
</svg>
