<svg id="Ebene_1" data-name="Ebene 1" xmlns="http://www.w3.org/2000/svg" xmlns:xlink="http://www.w3.org/1999/xlink" width="83" height="100" viewBox="0 0 83 100">
  <defs>
    <style>
      .cls-1 {
        fill: none;
      }

      .cls-2 {
        clip-path: url(#clip-path);
      }

      .cls-3 {
        fill: #3d3b3d;
      }

      .cls-4 {
        fill: #3c3a3d;
      }

      .cls-5 {
        fill: #fff;
      }
    </style>
    <clipPath id="clip-path">
      <rect class="cls-1" x="0.48" y="0.49" width="82.05" height="99.02"/>
    </clipPath>
  </defs>
  <g class="cls-2">
    <path class="cls-3" d="M71.52,69.45a41.06,41.06,0,1,0-59.29.73v0l.19.18.28.27L41.86,98.91,70,71c.31-.29.61-.58.9-.89l.58-.57ZM41.5,8.87c18,0,32.4,14.68,32.65,32.65S59.5,74.16,41.5,74.16,8.61,59.52,8.85,41.52A32.87,32.87,0,0,1,41.5,8.87Z"/>
  </g>
  <path class="cls-4" d="M67.88,42.87v-3H47.53a6,6,0,0,0-.7-1.71L57.59,27.4l-2.12-2.12L44.71,36a6,6,0,0,0-1.71-.7V15H40V35.34a6,6,0,0,0-1.71.7L27.53,25.28,25.41,27.4,36.17,38.16a6.3,6.3,0,0,0-.71,1.71H15.12v3H35.46a6.3,6.3,0,0,0,.71,1.71L25.41,55.34l2.12,2.12L38.29,46.7a6,6,0,0,0,1.71.7V67.75h3V47.4a6,6,0,0,0,1.71-.7L55.47,57.46l2.12-2.12L46.83,44.58a6,6,0,0,0,.7-1.71Z"/>
  <circle class="cls-5" cx="41.5" cy="40.89" r="11.16"/>
  <path
    style="fill:#cccccc;stroke:none;stroke-width:0.139082"
    d="M 38.870391,73.992021 C 28.611295,73.063337 19.569804,67.63401 13.999248,59.057146 11.681612,55.488734 10.121353,51.474046 9.3171696,47.009736 8.996664,45.230495 8.8798935,40.416747 9.1070124,38.34621 9.9620609,30.551131 13.403101,23.534588 19.014981,18.143109 c 4.98521,-4.78942 10.954222,-7.73111 17.952901,-8.8476726 2.442078,-0.3896069 6.513253,-0.4156271 8.929197,-0.057069 10.781536,1.6001196 19.928545,8.2522326 24.685198,17.9521746 2.234473,4.556618 3.274268,8.721382 3.439939,13.778205 0.172504,5.265419 -0.889925,10.164985 -3.22502,14.872699 -1.761726,3.551767 -3.691062,6.189653 -6.565961,8.977313 -5.035275,4.882483 -11.272377,7.940497 -18.264615,8.955035 -1.838136,0.266704 -5.363181,0.375109 -7.096229,0.218227 z m 4.175506,-14.082424 v -7.962448 h -1.529903 -1.529902 v 7.962448 7.962448 h 1.529902 1.529903 z m -9.083075,-10.968903 -1.139456,-1.077136 -3.75342,3.744073 -3.75342,3.744076 1.108759,1.115301 1.108761,1.115302 3.784115,-3.782239 3.784116,-3.782239 z m 20.000331,2.66148 -3.75453,-3.75175 -1.141207,1.074789 L 47.92621,50 l 3.782765,3.789933 3.782765,3.789933 1.112971,-1.11297 1.112971,-1.112971 z M 30.478784,42.121462 C 30.42964,41.65127 30.38943,40.93152 30.38943,40.522018 v -0.744549 h -7.649513 -7.649514 v 1.599443 1.599444 h 7.738868 7.738867 z m 37.462802,-0.74455 v -1.599443 l -7.684284,4.7e-5 -7.684284,4.7e-5 -0.01321,1.225892 c -0.0073,0.67424 -0.0554,1.393969 -0.106961,1.599396 l -0.09375,0.373505 h 7.791245 7.791245 z M 31.041114,28.68569 l -3.50079,-3.511807 -1.112656,1.112657 -1.112657,1.112656 3.536604,3.538644 3.536602,3.538644 1.076844,-1.139494 1.076844,-1.139493 z m 23.131332,2.260083 3.544532,-3.546577 -1.112657,-1.112656 -1.112656,-1.112657 -3.525347,3.527381 -3.525347,3.527383 0.696363,0.651366 c 0.383,0.358251 0.843309,0.867157 1.022908,1.130902 0.179601,0.263744 0.358299,0.479963 0.397108,0.480486 0.03881,5.56e-4 1.665604,-1.59501 3.615096,-3.545628 z M 43.045897,22.357441 V 14.88178 h -1.529903 -1.529902 v 7.475661 7.475661 h 1.529902 1.529903 z"
    id="path57" />
</svg>
