<svg id="Ebene_1" data-name="Ebene 1" xmlns="http://www.w3.org/2000/svg" xmlns:xlink="http://www.w3.org/1999/xlink" width="83" height="100" viewBox="0 0 83 100">
  <defs>
    <style>
      .cls-1 {
        fill: none;
      }

      .cls-2 {
        clip-path: url(#clip-path);
      }

      .cls-3 {
        fill: #3c3a3d;
      }

      .cls-4 {
        clip-path: url(#clip-path-2);
      }

      .cls-5 {
        fill: #3d3b3d;
      }

      .cls-6 {
        clip-path: url(#clip-path-3);
      }
    </style>
    <clipPath id="clip-path">
      <rect class="cls-1" x="16.32" y="31.38" width="50.28" height="32.39"/>
    </clipPath>
    <clipPath id="clip-path-2">
      <rect class="cls-1" x="0.44" y="0.49" width="82.05" height="99.02"/>
    </clipPath>
    <clipPath id="clip-path-3">
      <rect class="cls-1" x="2.94" y="4.95" width="77.11" height="29.16"/>
    </clipPath>
  </defs>
  <g class="cls-2">
    <path class="cls-3" d="M40.4,39.27a1.79,1.79,0,0,0-1.48-2.13,2,2,0,0,0-2.37,1.33l-.92,3.6L32.78,31.38l-2.34,5.38,2.13,9h-14l-2.27,3.95H33.63L31.5,58.21l2.67,5.5,2-7.91Zm6,0a1.77,1.77,0,0,0-1.47-2.13,2,2,0,0,0-2.37,1.33L37.76,57a1.78,1.78,0,0,0,1.48,2.13,2,2,0,0,0,2.37-1.33Zm4.71,6.5,2.68-9.86-3.28-4.45L47.12,44.85,44,57a1.77,1.77,0,0,0,1.48,2.13,2,2,0,0,0,2.36-1.33l.93-3.64,2.57,9.61,2.34-5.38-2.06-8.67h12.7l2.27-3.95Z"/>
  </g>
  <g class="cls-4">
    <path class="cls-5" d="M71.48,69.45a41,41,0,1,0-71-27.93A40.91,40.91,0,0,0,12.19,70.18v0l.19.18.28.27L41.82,98.91,70,71c.3-.29.6-.58.89-.89l.59-.57Zm-30-60.58A32.87,32.87,0,0,1,74.11,41.52c.25,18-14.64,32.64-32.65,32.64S8.57,59.52,8.82,41.52A32.86,32.86,0,0,1,41.46,8.87Z"/>
  </g>
  <g class="cls-6">
    <path class="cls-3" d="M41.22,5H37.78C27.63,5,3,34.11,3,34.11H14.13v0l7.57-7.57H61.85l7.57,7.57v0l10.63-1.15S54.28,5,41.22,5"/>
  </g>
  <path
    style="fill:#cccccc;stroke-width:0.139082"
    d="M 38.850064,73.990508 C 32.014442,73.374684 25.681456,70.759058 20.389706,66.366081 12.589227,59.890469 8.2315097,49.7397 8.967582,39.759643 9.1086455,37.84703 9.5750749,34.613237 9.7509169,34.328718 c 0.038932,-0.06299 1.0532621,-0.114532 2.2540671,-0.114532 h 2.183283 l 3.82286,-3.824756 3.82286,-3.824757 h 19.958308 19.958309 l 3.825671,3.816836 3.825672,3.816836 1.738526,-0.197743 c 0.956189,-0.108759 1.780449,-0.199075 1.83169,-0.200703 0.12673,-0.004 0.465171,1.539709 0.761642,3.474093 0.301053,1.964271 0.338794,6.662179 0.06928,8.623087 -1.488882,10.832504 -8.159944,20.019936 -18.031177,24.832657 -3.199223,1.559781 -6.041881,2.455151 -9.45758,2.978912 -2.114471,0.324231 -5.552777,0.454067 -7.464261,0.28186 z m 13.782718,-12.970612 1.131333,-2.610145 -1.017268,-4.274417 -1.01727,-4.274416 6.332708,-0.03751 6.332708,-0.03751 1.129131,-1.979175 1.129131,-1.979177 -7.700758,-0.03594 c -4.235418,-0.01976 -7.700209,-0.08235 -7.699537,-0.139082 6.95e-4,-0.05673 0.591431,-2.28214 1.312798,-4.945358 L 53.877337,35.86495 52.26652,33.683521 c -1.894406,-2.565476 -1.693278,-2.314243 -1.781816,-2.225706 -0.03939,0.03939 -0.910191,3.382579 -1.935107,7.4293 -1.024915,4.046722 -2.494771,9.809313 -3.266345,12.80576 -0.771575,2.996445 -1.402863,5.584343 -1.402863,5.750886 0,1.364423 1.702767,2.219349 3.050687,1.531691 0.658526,-0.335955 0.972604,-0.959655 1.403098,-2.786293 0.171265,-0.726704 0.351712,-1.366658 0.400993,-1.42212 0.04928,-0.05546 0.519765,1.509211 1.045521,3.477051 0.525758,1.967841 1.080149,4.035842 1.231981,4.59556 0.151832,0.559717 0.323919,0.966532 0.382417,0.904033 0.0585,-0.0625 0.615462,-1.2882 1.237696,-2.72378 z m -18.349055,2.592799 c 0,-0.04779 1.414504,-5.630068 3.143343,-12.405068 2.891493,-11.331229 3.130876,-12.359788 2.987752,-12.837494 -0.33725,-1.125639 -1.653124,-1.645508 -2.838189,-1.121298 -0.793095,0.350824 -1.033409,0.80436 -1.556901,2.938283 l -0.390511,1.591846 -1.39385,-5.244873 c -0.766619,-2.884681 -1.440532,-5.196978 -1.497589,-5.138439 -0.05706,0.05854 -0.61475,1.286191 -1.23932,2.728115 l -1.135582,2.62168 0.990722,4.19334 c 0.544897,2.306338 1.027572,4.334162 1.072611,4.506276 l 0.08189,0.312934 h -7.024875 -7.024876 l -1.123621,1.98192 -1.12362,1.981919 8.619061,0.03582 c 5.73698,0.02384 8.619063,0.08321 8.619063,0.177547 0,0.07795 -0.438108,1.890833 -0.973574,4.028633 -0.535466,2.137799 -0.97461,3.998098 -0.975874,4.133997 -0.0029,0.314121 2.517527,5.601747 2.670182,5.601747 0.06257,0 0.113758,-0.0391 0.113758,-0.08689 z m 6.633347,-4.750656 c 0.225606,-0.160645 0.51287,-0.530476 0.638365,-0.821846 0.275127,-0.638779 4.96751,-18.802728 4.96751,-19.228948 0,-1.16513 -1.477843,-2.083677 -2.702265,-1.679581 -1.11045,0.366481 -1.043811,0.177474 -3.744688,10.621018 -1.763123,6.817506 -2.447811,9.679293 -2.384623,9.966987 0.119395,0.543601 0.578936,1.102744 1.100726,1.339295 0.576831,0.261506 1.616473,0.16516 2.124975,-0.196925 z"
    id="path85" />
</svg>
