<svg id="Ebene_1" data-name="Ebene 1" xmlns="http://www.w3.org/2000/svg" xmlns:xlink="http://www.w3.org/1999/xlink" width="83" height="100" viewBox="0 0 83 100">
  <defs>
    <style>
      .cls-1 {
        fill: none;
      }

      .cls-2 {
        clip-path: url(#clip-path);
      }

      .cls-3 {
        fill: #3d3b3d;
      }

      .cls-4 {
        fill: #3c3a3d;
      }
    </style>
    <clipPath id="clip-path">
      <rect class="cls-1" x="0.48" y="0.49" width="82.05" height="99.02"/>
    </clipPath>
  </defs>
  <g class="cls-2">
    <path class="cls-3" d="M71.52,69.45a41.06,41.06,0,1,0-59.29.73v0l.19.18.28.27L41.86,98.91,70,71c.31-.29.61-.58.9-.89l.58-.57ZM41.5,8.87c18,0,32.4,14.68,32.65,32.65S59.5,74.16,41.5,74.16,8.61,59.52,8.85,41.52A32.87,32.87,0,0,1,41.5,8.87Z"/>
  </g>
  <g>
    <polygon class="cls-4" points="43.63 14.84 43.63 52.9 50.66 56.9 48.26 19.12 43.63 14.84"/>
    <polygon class="cls-4" points="41.24 14.84 36.61 19.12 34.21 56.9 41.24 52.9 41.24 14.84"/>
    <polygon class="cls-4" points="30.73 61.2 29.91 64.87 42.37 62.46 55.21 64.87 54.42 61.2 42.49 54.45 30.73 61.2"/>
  </g>
  <path
    style="fill:#cccccc;stroke-width:0.139082"
    d="m 37.579081,73.761408 c -1.162235,-0.164884 -2.541024,-0.399938 -3.063973,-0.522343 -0.522948,-0.122404 -1.002652,-0.190517 -1.066006,-0.151361 -0.06336,0.03916 -0.136183,0.02102 -0.161841,-0.0403 -0.02566,-0.06132 -0.547344,-0.255505 -1.159306,-0.431519 -0.611961,-0.176015 -1.637417,-0.531538 -2.278791,-0.790053 -0.641375,-0.258514 -1.214958,-0.439851 -1.27463,-0.402972 -0.05967,0.03688 -0.129487,0.01331 -0.155145,-0.05239 -0.02566,-0.06569 -0.816546,-0.510794 -1.757532,-0.989116 -6.090782,-3.096067 -11.237762,-8.235023 -14.214368,-14.192203 -0.401332,-0.803199 -0.76884,-1.491655 -0.816686,-1.529903 -0.04785,-0.03825 -0.09806,-0.163421 -0.111589,-0.278164 -0.01353,-0.114743 -0.254274,-0.803199 -0.534992,-1.529903 -0.679172,-1.758197 -1.538889,-5.170178 -1.7245607,-6.84431 -0.2278322,-2.054277 -0.1898309,-7.10241 0.066652,-8.854113 0.4460333,-3.046276 1.3560557,-6.120065 2.6817557,-9.058183 0.431439,-0.956189 0.769474,-1.785466 0.751187,-1.842837 -0.01829,-0.05737 0.02773,-0.104312 0.102263,-0.104312 0.159894,0 0.61734,-0.833499 0.45916,-0.836622 -0.05934,-0.0011 -0.03529,-0.04832 0.05344,-0.104774 0.08873,-0.05645 0.532106,-0.665718 0.985289,-1.35392 4.038957,-6.133538 10.192031,-10.864039 17.076533,-13.128487 5.551511,-1.8260008 10.894116,-2.1654849 16.464146,-1.0461779 4.826066,0.9698059 10.025809,3.4470959 13.999635,6.6697809 1.719197,1.394232 4.085201,3.867004 5.384745,5.627738 0.592818,0.803199 1.186593,1.594077 1.319502,1.757505 0.13291,0.163428 0.256616,0.364785 0.274904,0.447456 0.01829,0.08267 0.221216,0.455797 0.450952,0.829164 0.648863,1.05454 2.299902,4.562404 2.728737,5.797586 0.212461,0.611961 0.421391,1.14395 0.464285,1.182197 0.0429,0.03825 0.07986,0.132128 0.08215,0.208624 0.0054,0.181887 0.765058,3.414824 0.865998,3.685674 0.04276,0.114743 0.06365,0.2933 0.04643,0.396796 -0.01723,0.103495 0.01125,0.291256 0.06329,0.417246 0.265619,0.643144 0.423854,6.946133 0.218954,8.72161 -0.583051,5.052195 -2.392795,9.905245 -5.324054,14.277106 -2.84137,4.237796 -7.432051,8.292512 -12.084049,10.67323 -0.799779,0.409296 -1.485436,0.781574 -1.523684,0.827286 -0.03825,0.04571 -0.163421,0.102001 -0.278164,0.12509 -0.114743,0.02309 -0.771905,0.25429 -1.460362,0.513779 -0.688456,0.259489 -1.517733,0.547793 -1.842837,0.640675 -0.325104,0.09288 -0.591099,0.225249 -0.591099,0.29415 0,0.0689 -0.05105,0.09373 -0.113441,0.05517 -0.06239,-0.03856 -0.589623,0.05187 -1.171621,0.200969 -1.563961,0.40065 -4.19284,0.826299 -5.103354,0.826299 -0.438618,0 -0.832624,0.03513 -0.875564,0.07807 -0.217814,0.217812 -3.868166,0.11225 -5.852349,-0.16924 z m -1.252002,-9.990042 6.092949,-1.179956 3.198887,0.605564 c 1.759388,0.333059 3.292768,0.609877 3.407511,0.615151 0.114742,0.0053 0.489321,0.07961 0.832396,0.165188 0.343075,0.08558 0.84377,0.181861 1.112656,0.213958 0.268886,0.0321 0.739231,0.118427 1.045212,0.191844 0.30598,0.07342 0.806676,0.167914 1.112656,0.209992 0.305981,0.04208 0.891338,0.143894 1.300794,0.226257 0.409455,0.08236 0.781522,0.112693 0.826813,0.0674 0.100413,-0.100413 -0.481733,-2.73349 -0.756057,-3.419679 -0.16442,-0.411278 -1.023845,-1.166154 -1.023845,-0.899295 0,0.04555 -0.136975,-0.04479 -0.304389,-0.200759 -0.281089,-0.261875 -0.377156,-0.304051 -0.618865,-0.271704 -0.04882,0.0065 -0.127052,-0.04644 -0.173853,-0.117726 -0.0971,-0.147898 -2.772098,-1.705964 -2.997098,-1.745676 -0.08129,-0.01435 -0.180668,-0.0696 -0.220845,-0.122788 -0.09667,-0.127978 -2.793098,-1.653426 -2.980246,-1.686013 -0.08008,-0.01394 -0.178464,-0.06887 -0.218641,-0.122054 -0.126553,-0.167538 -2.839282,-1.679292 -3.021528,-1.683843 -0.09562,-0.0024 -0.173853,-0.05649 -0.173853,-0.120242 0,-0.329528 -0.959949,0.162431 -6.258693,3.207492 -5.556616,3.193254 -5.778523,3.33661 -5.949318,3.843373 -0.09758,0.289519 -0.198875,0.68869 -0.225106,0.887047 -0.02623,0.198358 -0.08691,0.454532 -0.134843,0.569274 -0.04793,0.114743 -0.108563,0.412277 -0.134737,0.661188 -0.02617,0.248911 -0.08907,0.494043 -0.139762,0.544739 -0.176809,0.176811 -0.09431,0.741222 0.108342,0.741222 0.110282,0 2.942341,-0.53098 6.293463,-1.179954 z M 40.279805,53.51733 c 0.0468,-0.07347 0.140682,-0.133936 0.208623,-0.134375 0.06794,-4.17e-4 0.295647,-0.102467 0.506009,-0.226731 l 0.382475,-0.225935 V 33.828287 c 0,-11.871096 -0.04943,-19.071454 -0.130589,-19.021296 -0.278618,0.172195 -0.925914,0.730652 -1.632758,1.408667 -0.405963,0.389404 -0.758123,0.688 -0.782578,0.663545 -0.06967,-0.06967 -2.126386,2.072618 -2.288698,2.383911 -0.07984,0.153127 -0.187208,1.154518 -0.238594,2.225313 -0.117831,2.455458 -0.170588,3.333074 -0.420987,7.003165 -0.111451,1.633519 -0.200259,3.104312 -0.197353,3.268429 0.0029,0.164117 -0.03001,0.799089 -0.07316,1.41105 -0.100594,1.426884 -0.46762,7.166592 -0.47581,7.44089 -0.0034,0.114743 -0.04059,0.709319 -0.08259,1.32128 -0.150536,2.193308 -0.467509,7.236325 -0.46769,7.44089 -1.02e-4,0.114742 -0.0993,1.585535 -0.220431,3.268428 -0.121137,1.682893 -0.220425,3.382857 -0.220639,3.777698 l -3.91e-4,0.717893 3.025035,-1.743621 c 1.663769,-0.958994 3.063326,-1.803732 3.110125,-1.877199 z m 10.345612,1.663477 c -0.05474,-0.937066 -0.10022,-1.797636 -0.101067,-1.912379 -0.0018,-0.240332 -0.348678,-5.784418 -0.465588,-7.44089 -0.04319,-0.611961 -0.08,-1.206537 -0.08179,-1.321279 -0.0018,-0.114743 -0.09492,-1.585536 -0.206957,-3.268429 -0.112032,-1.682893 -0.201612,-3.189599 -0.199066,-3.348235 0.0025,-0.158637 -0.12221,-2.130125 -0.277236,-4.381085 -0.155027,-2.250961 -0.278943,-4.249122 -0.275371,-4.44036 0.0036,-0.191238 -0.08596,-1.66203 -0.198962,-3.268428 -0.320554,-4.556996 -0.352061,-5.096683 -0.343158,-5.878335 l 0.0083,-0.732298 -1.388975,-1.328653 c -0.763936,-0.73076 -1.422483,-1.326151 -1.463438,-1.323093 -0.04095,0.0031 -0.403436,-0.342279 -0.805512,-0.767415 -0.402075,-0.425136 -0.842054,-0.832385 -0.97773,-0.904996 -0.235636,-0.126108 -0.246669,0.726225 -0.24637,19.031427 l 2.78e-4,19.163446 2.746559,1.553213 c 3.22363,1.822988 4.061367,2.271544 4.242427,2.271544 0.08296,0 0.09563,-0.642081 0.03361,-1.703755 z"
    id="path248" />
</svg>
