<svg id="Ebene_1" data-name="Ebene 1" xmlns="http://www.w3.org/2000/svg" xmlns:xlink="http://www.w3.org/1999/xlink" width="83" height="100" viewBox="0 0 83 100">
  <defs>
    <style>
      .cls-1 {
        fill: none;
      }

      .cls-2 {
        clip-path: url(#clip-path);
      }

      .cls-3 {
        fill: #3d3b3d;
      }

      .cls-4 {
        clip-path: url(#clip-path-2);
      }

      .cls-5 {
        fill: #3c3a3d;
      }
    </style>
    <clipPath id="clip-path">
      <rect class="cls-1" x="0.44" y="0.49" width="82.05" height="99.02"/>
    </clipPath>
    <clipPath id="clip-path-2">
      <rect class="cls-1" x="15.74" y="24.49" width="50.28" height="32.39"/>
    </clipPath>
  </defs>
  <g class="cls-2">
    <path class="cls-3" d="M71.48,69.45a41,41,0,1,0-71-27.93A40.91,40.91,0,0,0,12.19,70.18v0l.19.18.28.27L41.82,98.91,70,71c.3-.29.6-.58.89-.89l.59-.57Zm-30-60.58A32.87,32.87,0,0,1,74.11,41.52c.25,18-14.64,32.64-32.65,32.64S8.57,59.52,8.82,41.52A32.86,32.86,0,0,1,41.46,8.87Z"/>
  </g>
  <g class="cls-4">
    <path class="cls-5" d="M39.81,32.39a1.77,1.77,0,0,0-1.48-2.13A2,2,0,0,0,36,31.59l-.92,3.6-2.86-10.7-2.34,5.38,2.13,9H18l-2.26,3.94H33.05l-2.13,8.49,2.66,5.51,2-7.91Zm6,0a1.78,1.78,0,0,0-1.48-2.13,2,2,0,0,0-2.36,1.33L37.18,50.12a1.77,1.77,0,0,0,1.48,2.13A2,2,0,0,0,41,50.92Zm4.7,6.5L53.15,29l-3.28-4.45L46.53,38,43.42,50.12a1.78,1.78,0,0,0,1.48,2.13,2,2,0,0,0,2.36-1.33l.94-3.64,2.56,9.61,2.34-5.38-2.05-8.68h12.7L66,38.89Z"/>
  </g>
  <path
    style="fill:#cccccc;stroke-width:0.139082"
    d="M 38.850064,73.990508 C 28.686433,73.074862 19.681995,67.728488 14.116674,59.305085 7.5437063,49.356558 7.1469242,36.335604 13.09356,25.730181 c 1.556985,-2.776778 3.212717,-4.929808 5.638435,-7.331937 5.783214,-5.726974 13.156086,-8.9558177 21.532261,-9.4297457 1.711206,-0.096821 4.252992,0.075825 6.397775,0.4345564 10.309778,1.7243903 19.298112,8.4079073 23.921518,17.7874873 1.611297,3.268863 2.606543,6.439245 3.143565,10.013909 0.306655,2.041235 0.347517,6.716938 0.07597,8.692628 -1.488882,10.832504 -8.159944,20.019936 -18.031177,24.832657 -3.199223,1.559781 -6.041881,2.455151 -9.45758,2.978912 -2.114471,0.324231 -5.552777,0.454067 -7.464261,0.28186 z m -4.78378,-18.74016 c 0.217904,-0.898818 1.60771,-6.374188 3.088457,-12.167488 1.480749,-5.793301 2.692269,-10.790599 2.692269,-11.105106 0,-0.314508 -0.106778,-0.752591 -0.237283,-0.973519 -0.653785,-1.10677 -2.70457,-1.083348 -3.431645,0.03919 -0.113844,0.175766 -0.393242,1.059758 -0.620883,1.964427 -0.227643,0.904667 -0.437516,1.668473 -0.466387,1.697343 -0.02887,0.02887 -0.413798,-1.305888 -0.855395,-2.966132 -1.701687,-6.397718 -1.942295,-7.260626 -2.024503,-7.260626 -0.04666,0 -0.608073,1.213242 -1.247589,2.696095 l -1.162756,2.696094 0.995371,4.223238 c 0.547454,2.322781 1.028394,4.332765 1.068754,4.466632 0.06921,0.229552 -0.324898,0.243393 -6.930455,0.243393 h -7.003837 l -1.132617,1.98192 -1.132617,1.981919 8.61387,0.03582 c 6.75361,0.02809 8.613055,0.07314 8.610102,0.208623 -0.0021,0.09504 -0.464837,2.006575 -1.028367,4.247854 l -1.024599,4.075056 1.341302,2.774082 c 0.737715,1.525744 1.375346,2.774376 1.416958,2.774736 0.04161,4.17e-4 0.253944,-0.734741 0.47185,-1.633559 z m 18.001046,-1.151323 1.114984,-2.576912 -0.96715,-4.099027 c -0.531932,-2.254463 -1.001823,-4.208552 -1.044202,-4.342418 -0.07262,-0.229386 0.290007,-0.243394 6.30043,-0.243394 h 6.37748 l 1.072783,-1.874643 c 0.590029,-1.031052 1.072782,-1.938563 1.072782,-2.016689 0,-0.09495 -2.536103,-0.142048 -7.649513,-0.142048 -5.596187,0 -7.649514,-0.04221 -7.649514,-0.157251 0,-0.08649 0.571119,-2.29913 1.269153,-4.916982 l 1.269152,-4.759731 -1.64741,-2.243008 c -0.906076,-1.233654 -1.687507,-2.197299 -1.736514,-2.141432 -0.04901,0.05587 -0.788988,2.917987 -1.644404,6.360268 -0.855418,3.442281 -2.303658,9.179323 -3.218315,12.748983 -0.914656,3.56966 -1.662777,6.667712 -1.662491,6.884562 6.96e-4,0.483323 0.424711,1.205993 0.884469,1.507239 0.448025,0.293557 1.600209,0.296831 2.162335,0.0061 0.635048,-0.328395 0.919666,-0.890028 1.354459,-2.672728 0.211373,-0.866656 0.420202,-1.575734 0.464067,-1.575734 0.04386,0 0.604752,1.987135 1.246417,4.415855 0.641666,2.428721 1.194523,4.468249 1.228572,4.532286 0.114919,0.216133 0.284297,-0.109155 1.40243,-2.693344 z M 40.222733,52.02232 c 0.244896,-0.149321 0.535303,-0.446376 0.64535,-0.66012 0.311063,-0.604174 5.012526,-18.823047 5.003793,-19.390445 -0.0043,-0.277147 -0.122763,-0.698598 -0.263329,-0.936556 -0.671277,-1.13638 -2.707789,-1.131523 -3.451465,0.0082 -0.229791,0.352173 -5.091713,19.014326 -5.091713,19.544189 0,0.454226 0.338918,1.069101 0.780929,1.416787 0.498769,0.392332 1.746937,0.40174 2.376435,0.01791 z"
    id="path97" />
</svg>
