<?xml version="1.0" encoding="utf-8"?>
<!-- Generator: Adobe Illustrator 27.0.1, SVG Export Plug-In . SVG Version: 6.00 Build 0)  -->
<svg version="1.1" id="Ebene_1" xmlns="http://www.w3.org/2000/svg" xmlns:xlink="http://www.w3.org/1999/xlink" x="0px" y="0px"
	 width="83px" height="100px" viewBox="0 0 83 100" style="enable-background:new 0 0 83 100;" xml:space="preserve">
<style type="text/css">
	.st0{fill:#cccccc;}
	.st1{clip-path:url(#SVGID_00000167375547582768228750000011294377485241337764_);fill:#456879;}
	.st2{clip-path:url(#SVGID_00000083768540184029625160000004585334851362003847_);fill:#456879;}
	.st3{clip-path:url(#SVGID_00000132075565922155908540000014182022016653442690_);fill:#214669;}
	.st4{clip-path:url(#SVGID_00000141442492762612726310000009096102914867363245_);}
	.st5{fill:#214669;}
	.st6{clip-path:url(#SVGID_00000046315716758031657840000013668241997869718409_);}
	.st7{clip-path:url(#SVGID_00000063609114517329603760000013060605056773824167_);fill:#214669;}
	.st8{clip-path:url(#SVGID_00000170278892940992338160000017617793350196784781_);fill:#456879;}
	.st9{clip-path:url(#SVGID_00000097494418704881666440000011775320344916752829_);fill:#214669;}
	.st10{fill:#00732C;}
	.st11{clip-path:url(#SVGID_00000080191922435640317680000006080401718508316571_);fill:#456879;}
	.st12{clip-path:url(#SVGID_00000170272028641702387270000017940758368863851157_);fill:#00732C;}
	.st13{fill:#004622;}
	.st14{clip-path:url(#SVGID_00000072997940759999633080000000320277635433532064_);fill:#004622;}
	.st15{clip-path:url(#SVGID_00000096024260424046943600000014185518500688938167_);fill:#004622;}
	.st16{clip-path:url(#SVGID_00000133525405803476439720000007379272808624062640_);fill:#3D3B3D;}
	.st17{clip-path:url(#SVGID_00000093859557592212648760000003434736119005221025_);fill:#3D3B3D;}
	.st18{clip-path:url(#SVGID_00000130633848194257352310000007292935464394942087_);fill:#CD2619;}
	.st19{clip-path:url(#SVGID_00000049192553603764989510000014362754205032949941_);fill:#8B1F21;}
	.st20{clip-path:url(#SVGID_00000175294357638377520930000003125674620078313874_);fill:#8B1F21;}
	.st21{clip-path:url(#SVGID_00000114786641655284472570000014706323035591512509_);fill:#8B1F21;}
	.st22{clip-path:url(#SVGID_00000005255191328628329050000006298062239677900217_);fill:#F2A823;}
	.st23{clip-path:url(#SVGID_00000066497354707291325310000007825784282039394487_);fill:#214669;}
	.st24{fill:#3C3A3D;}
	.st25{fill:#8B1F21;}
	.st26{fill:#F2A823;}
	.st27{clip-path:url(#SVGID_00000066479351360653708520000000213573650752203422_);fill:#8B1F21;}
	.st28{clip-path:url(#SVGID_00000182504001200963947290000014018335534856741019_);fill:#3D3B3D;}
	.st29{clip-path:url(#SVGID_00000004537655425330607290000018352780149155164801_);fill:#3C3A3D;}
	.st30{clip-path:url(#SVGID_00000000195503215950253360000010002318537003664011_);fill:#3C3A3D;}
	.st31{clip-path:url(#SVGID_00000018211815279445464760000005852031136962217380_);fill:#3C3A3D;}
	.st32{clip-path:url(#SVGID_00000129189809602124033870000005663849905398886787_);fill:#3C3A3D;}
	.st33{clip-path:url(#SVGID_00000020362705257483635180000013582563852671561620_);fill:#3D3B3D;}
	.st34{clip-path:url(#SVGID_00000121966488684054295330000001740746520403997059_);fill:#3C3A3D;}
	.st35{clip-path:url(#SVGID_00000123410774842860990590000003235995771046579602_);fill:#3D3B3D;}
	.st36{clip-path:url(#SVGID_00000156561119796116013930000005609041923946543245_);fill:#3D3B3D;}
	.st37{clip-path:url(#SVGID_00000011716451467000273040000006847746856248434349_);fill:#3C3A3D;}
	.st38{clip-path:url(#SVGID_00000039112245562305000260000016684859862802659244_);fill:#3D3B3D;}
	.st39{clip-path:url(#SVGID_00000016068236062858525170000001362469100142300588_);fill:#3D3B3D;}
	.st40{clip-path:url(#SVGID_00000021827204773405386780000009855532756018446780_);fill:#3D3B3D;}
	.st41{clip-path:url(#SVGID_00000086649477076562931560000001079152134327387024_);fill:#3D3B3D;}
	.st42{clip-path:url(#SVGID_00000169526705112068223270000015031563698445250208_);fill:#3D3B3D;}
	.st43{clip-path:url(#SVGID_00000138536515898520358360000002320723519705312172_);fill:#3D3B3D;}
	.st44{clip-path:url(#SVGID_00000050621631773035400740000018412781295725748385_);fill:#3D3B3D;}
	.st45{clip-path:url(#SVGID_00000020380865027108396370000004995981417162157736_);fill:#3D3B3D;}
	.st46{clip-path:url(#SVGID_00000016773181975031215120000009738026118037851797_);fill:#3D3B3D;}
	.st47{clip-path:url(#SVGID_00000093155969156645895180000013539819171609036464_);fill:#3C3A3D;}
	.st48{clip-path:url(#SVGID_00000037670824178467421020000005952678389772096155_);fill:#3C3A3D;}
	.st49{clip-path:url(#SVGID_00000106107117341214203090000001506088887985005241_);fill:#4D4D4D;}
	.st50{clip-path:url(#SVGID_00000106107117341214203090000001506088887985005241_);fill:#456879;}
	.st51{clip-path:url(#SVGID_00000106107117341214203090000001506088887985005241_);fill:#CD2619;}
	.st52{clip-path:url(#SVGID_00000106107117341214203090000001506088887985005241_);fill:#8B1F21;}
	.st53{clip-path:url(#SVGID_00000106107117341214203090000001506088887985005241_);fill:#004622;}
	.st54{clip-path:url(#SVGID_00000106107117341214203090000001506088887985005241_);fill:#00732C;}
	.st55{clip-path:url(#SVGID_00000106107117341214203090000001506088887985005241_);fill:#F2A823;}
	.st56{fill:#FFFFFF;stroke:#000000;stroke-miterlimit:10;}
	.st57{clip-path:url(#SVGID_00000080920712453046302790000013707126243309471661_);fill:#004622;}
	.st58{fill:#3D3B3D;}
	.st59{clip-path:url(#SVGID_00000031177362957881267300000011961175799918364821_);fill:#3D3B3D;}
</style>
<path class="st0" d="M41.5,8.3c18.3,0,33,15,33.3,33.3C75,60,59.9,74.9,41.5,74.9S8,60,8.2,41.6C8.5,23.3,23.2,8.3,41.5,8.3z"/>
<g>
	<g>
		<polygon class="st58" points="57.7,48.4 25,48.4 21.4,43 61.3,43 58.4,47.6 		"/>
		<path class="st58" d="M54.9,57.5c-0.4,0.2-0.9,0.4-1.3,0.6c-7.8,3.5-16.8,3.5-24.6,0c-0.4-0.2-0.9-0.4-1.3-0.6L26.8,57
			c-1.1-0.5-1.8-1.7-1.8-2.9V51h32.7v3.1c0,1.2-0.7,2.4-1.8,2.9L54.9,57.5z"/>
	</g>
</g>
<g>
	<defs>
		<rect id="SVGID_00000014620416513928636800000011722634076202252731_" x="0.5" y="0.5" width="82" height="99"/>
	</defs>
	<clipPath id="SVGID_00000088135369031651026960000002232758589925687438_">
		<use xlink:href="#SVGID_00000014620416513928636800000011722634076202252731_"  style="overflow:visible;"/>
	</clipPath>
	<path style="clip-path:url(#SVGID_00000088135369031651026960000002232758589925687438_);fill:#3D3B3D;" d="M71.5,69.5
		c6.8-7.3,11-17.1,11-27.9c0-22.6-18.4-41-41-41c-22.6,0-41,18.4-41,41c0,11.1,4.5,21.3,11.8,28.7l0,0l0.2,0.2
		c0.1,0.1,0.2,0.2,0.3,0.3l29.2,28.2L70,71c0.3-0.3,0.6-0.6,0.9-0.9L71.5,69.5L71.5,69.5z M41.5,8.9c18,0,32.4,14.7,32.6,32.6
		c0.3,18-14.6,32.6-32.6,32.6S8.6,59.5,8.9,41.5C9.1,23.5,23.5,8.9,41.5,8.9z"/>
</g>
<path class="st58" d="M65,34.7c-0.2-0.9-0.9-1.7-1.7-2.1l-10.8-5.3l-11.1-5.4l-12.5,6.1l-9.4,4.6c-0.8,0.4-1.5,1.2-1.7,2.1
	c-0.3,0.9-0.1,1.9,0.4,2.7l2.7,4.2h41l2.7-4.2C65.1,36.6,65.3,35.6,65,34.7z M52.6,36l-4.8-0.1c-2,2-3.7,1.8-3.7,1.8
	c0,1.1-0.4,1.6-0.4,1.6h-3.9c0,0-0.4-0.5-0.4-1.6c0,0-1.7,0.2-3.7-1.8L31.1,36c0,0-4.1-2.1-4.2-4.8h10.5c0,0,0.3,1.3,1.9,1.9
	c0,0,1.1,0,1.5-0.8c0.4-0.8,0.3-1.1,0.3-1.1h-1c0,0-0.2-1.2,0.7-1.2s1.8,0,1.8,0s0,0.5,0.5,1.4c0.5,0.8,0.9,1.4,1.2,1.8
	c0.1,0,0.1,0,0.1,0c1.6-0.6,1.9-1.9,1.9-1.9h10.5C56.8,33.9,52.6,36,52.6,36z"/>
</svg>
