<svg id="Ebene_1" data-name="Ebene 1" xmlns="http://www.w3.org/2000/svg" xmlns:xlink="http://www.w3.org/1999/xlink" width="83" height="100" viewBox="0 0 83 100">
  <defs>
    <style>
      .cls-1 {
        fill: none;
      }

      .cls-2 {
        fill: #456879;
      }

      .cls-3 {
        clip-path: url(#clip-path);
      }

      .cls-4 {
        fill: #456879;
      }
    </style>
    <clipPath id="clip-path">
      <rect class="cls-1" x="0.44" y="0.49" width="82.05" height="99.02"/>
    </clipPath>
  </defs>
  <g>
    <polygon class="cls-2" points="57.73 47.62 24.97 47.62 21.45 42.15 61.37 42.15 58.4 46.76 57.73 47.62"/>
    <path class="cls-2" d="M54.94,56.68c-.43.21-.87.41-1.29.59a30.5,30.5,0,0,1-24.62,0c-.42-.18-.85-.38-1.29-.59l-.94-.47a3.29,3.29,0,0,1-1.8-3V50.19H57.69v3.07a3.31,3.31,0,0,1-1.81,3Z"/>
    <path class="cls-2" d="M41.41,38.42s5.26-1.65,5.26-6.86a16.15,16.15,0,0,0-.49-4l-1-.05A5.86,5.86,0,0,1,42,26.45l-.6-.42-.6.41a6.28,6.28,0,0,1-3.3,1.1l-.87,0a15.69,15.69,0,0,0-.49,4c0,5.21,5.26,6.86,5.26,6.86M19.5,32.36,41.41,21.62,63.32,32.37a3.26,3.26,0,0,1,1.31,4.71L61.91,41.3h-41l-2.71-4.22a3.27,3.27,0,0,1,1.31-4.72"/>
  </g>
  <g class="cls-3">
    <path class="cls-4" d="M71.48,69.45a41,41,0,1,0-71-27.93A40.91,40.91,0,0,0,12.19,70.18v0l.19.18.28.27L41.82,98.91,70,71c.3-.29.6-.58.89-.89l.59-.57Zm-30-60.58A32.87,32.87,0,0,1,74.11,41.52c.25,18-14.64,32.64-32.65,32.64S8.57,59.52,8.82,41.52A32.86,32.86,0,0,1,41.46,8.87Z"/>
  </g>
  <path
    style="fill:#cccccc;stroke-width:0.139082"
    d="M 38.850064,73.990508 C 28.686433,73.074862 19.681995,67.728488 14.116674,59.305085 7.5437063,49.356558 7.1469242,36.335604 13.09356,25.730181 c 1.556985,-2.776778 3.212717,-4.929808 5.638435,-7.331937 5.783214,-5.726974 13.156086,-8.9558177 21.532261,-9.4297457 1.711206,-0.096821 4.252992,0.075825 6.397775,0.4345564 10.309778,1.7243903 19.298112,8.4079073 23.921518,17.7874873 1.611297,3.268863 2.606543,6.439245 3.143565,10.013909 0.306655,2.041235 0.347517,6.716938 0.07597,8.692628 -1.488882,10.832504 -8.159944,20.019936 -18.031177,24.832657 -3.199223,1.559781 -6.041881,2.455151 -9.45758,2.978912 -2.114471,0.324231 -5.552777,0.454067 -7.464261,0.28186 z m 6.907933,-14.387304 c 2.985355,-0.458575 5.546157,-1.216589 8.434963,-2.496801 2.133297,-0.945399 2.768014,-1.3939 3.192221,-2.255676 0.297603,-0.604584 0.339036,-0.901119 0.3814,-2.729726 l 0.04753,-2.05146 H 41.389669 24.965229 l 0.0014,1.981919 c 0.0013,1.79123 0.03291,2.048828 0.329298,2.67733 0.451453,0.957324 0.736035,1.18086 2.729149,2.143698 3.037505,1.467366 6.962774,2.580861 10.292072,2.91959 1.751007,0.17815 5.704912,0.07779 7.44089,-0.188874 z M 58.170924,47.183588 c 0.578287,-0.743429 3.255057,-4.927751 3.192421,-4.990388 -0.02876,-0.02875 -9.035435,-0.03642 -20.014843,-0.01704 l -19.96256,0.03524 1.754873,2.741902 1.754873,2.741903 16.434767,0.005 16.434766,0.005 0.405703,-0.521557 z m 5.388553,-8.276054 1.52888,-2.395476 0.05011,-0.992214 C 65.200187,34.297684 64.889123,33.494188 64.10003,32.83747 63.803292,32.590512 58.586136,29.948951 52.50635,26.967335 L 41.452189,21.546217 39.849878,22.306875 C 35.6811,24.285898 19.216573,32.420142 18.847123,32.683213 c -0.561732,0.399989 -1.093549,1.34177 -1.201201,2.127178 -0.147964,1.07952 0.1418,1.796644 1.70667,4.223759 l 1.465649,2.273221 20.606179,-0.0022 20.606178,-0.0022 z"
    id="path97" />
  <path
    style="fill:#cccccc;stroke-width:0.139082"
    d="m 40.395267,37.859978 c -0.737686,-0.365599 -1.336095,-0.813146 -2.08294,-1.557823 -1.112187,-1.108958 -1.633085,-2.000168 -1.943058,-3.324398 -0.20144,-0.86057 -0.121564,-3.369792 0.147699,-4.639788 l 0.169556,-0.799721 h 0.859589 c 1.079133,0 2.006501,-0.271979 3.031078,-0.888954 l 0.799721,-0.481574 0.799722,0.481574 c 0.965971,0.581684 1.944265,0.888954 2.83028,0.888954 0.92094,0 1.074862,0.09004 1.247053,0.729512 0.244258,0.907104 0.38332,3.299368 0.248647,4.277442 -0.292999,2.127939 -1.804619,4.127711 -3.972766,5.255705 l -1.099535,0.572041 z"
    id="path136" />
</svg>
