<svg id="Ebene_1" data-name="Ebene 1" xmlns="http://www.w3.org/2000/svg" xmlns:xlink="http://www.w3.org/1999/xlink" width="83" height="100" viewBox="0 0 83 100">
  <defs>
    <style>
      .cls-1 {
        fill: none;
      }

      .cls-2 {
        fill: #3c3a3d;
      }

      .cls-3 {
        clip-path: url(#clip-path);
      }

      .cls-4 {
        clip-path: url(#clip-path-2);
      }

      .cls-5 {
        fill: #3d3b3d;
      }
    </style>
    <clipPath id="clip-path">
      <rect class="cls-1" x="30.5" y="14.61" width="21.79" height="20.72"/>
    </clipPath>
    <clipPath id="clip-path-2">
      <rect class="cls-1" x="0.48" y="0.49" width="82.05" height="99.02"/>
    </clipPath>
  </defs>
  <g>
    <g>
      <polygon class="cls-2" points="57.72 48.43 24.95 48.43 21.43 42.96 61.35 42.96 58.38 47.56 57.72 48.43"/>
      <path class="cls-2" d="M54.92,57.49c-.43.21-.87.4-1.29.59a30.5,30.5,0,0,1-24.62,0l-1.29-.6L26.78,57a3.31,3.31,0,0,1-1.8-3V51H57.67v3.07a3.32,3.32,0,0,1-1.81,3Z"/>
    </g>
    <path class="cls-2" d="M65,35.24a3.29,3.29,0,0,0-1.72-2.07L49.6,26.45l-2,1.9L49.13,37,41.39,32.9,33.64,37l1.48-8.62-1.94-1.9-13.7,6.72a3.27,3.27,0,0,0-1.31,4.72l2.71,4.22h41l2.72-4.22A3.27,3.27,0,0,0,65,35.24Z"/>
    <g class="cls-3">
      <path class="cls-2" d="M42.05,17.6l2.22,4.5,5,.72,1.47.21-1.07,1-3.59,3.51c.28,1.64.56,3.29.85,4.94L47.15,34l-1.32-.69L41.39,31,37,33.3,35.63,34l.25-1.47c.28-1.65.57-3.3.85-4.94l-3.6-3.51-1.06-1,1.47-.21,5-.72,2.22-4.5.66-1.33Z"/>
    </g>
  </g>
  <g class="cls-4">
    <path class="cls-5" d="M71.52,69.45a41.06,41.06,0,1,0-59.29.73v0l.19.18.28.27L41.86,98.91,70,71c.31-.29.61-.58.9-.89l.58-.57ZM41.5,8.87c18,0,32.4,14.68,32.65,32.65S59.5,74.16,41.5,74.16,8.61,59.52,8.85,41.52A32.87,32.87,0,0,1,41.5,8.87Z"/>
  </g>
  <path
    style="fill:#cccccc;stroke-width:0.139082"
    d="M 38.870391,73.992021 C 28.611295,73.063337 19.569804,67.63401 13.999248,59.057146 11.681612,55.488734 10.121353,51.474046 9.3171696,47.009736 8.996664,45.230495 8.8798935,40.416747 9.1070124,38.34621 9.9620609,30.551131 13.403101,23.534588 19.014981,18.143109 c 4.98521,-4.78942 10.954222,-7.73111 17.952901,-8.8476726 2.442078,-0.3896069 6.513253,-0.4156271 8.929197,-0.057069 10.781536,1.6001196 19.928545,8.2522326 24.685198,17.9521746 2.234473,4.556618 3.274268,8.721382 3.439939,13.778205 0.172504,5.265419 -0.889925,10.164985 -3.22502,14.872699 -1.761726,3.551767 -3.691062,6.189653 -6.565961,8.977313 -5.035275,4.882483 -11.272377,7.940497 -18.264615,8.955035 -1.838136,0.266704 -5.363181,0.375109 -7.096229,0.218227 z m 6.818065,-13.575074 c 2.982757,-0.429015 5.696874,-1.242947 8.768629,-2.629608 1.826822,-0.824669 2.475023,-1.313123 2.951425,-2.224057 0.245949,-0.470281 0.300505,-0.873627 0.352729,-2.607788 l 0.06178,-2.051461 H 41.394124 24.965229 v 1.989383 c 0,1.864284 0.02277,2.035072 0.362084,2.715989 0.453912,0.910883 0.86553,1.223891 2.847777,2.165546 3.364082,1.598087 7.375955,2.63305 11.324215,2.921365 1.247511,0.0911 4.695552,-0.06454 6.189151,-0.279369 z m 12.55432,-12.537948 c 0.635003,-0.877867 3.161953,-4.834014 3.161953,-4.950297 0,-0.05029 -9.017733,-0.09143 -20.039406,-0.09143 -12.294205,0 -20.021489,0.04999 -19.993047,0.129344 0.0255,0.07114 0.828698,1.353239 1.784887,2.849114 l 1.738525,2.71977 16.434608,0.0021 16.434608,0.0021 0.477872,-0.66064 z m 5.062007,-7.788596 c 1.609981,-2.464773 1.848129,-2.958968 1.852107,-3.84339 0.0048,-1.067925 -0.267897,-1.756035 -0.970966,-2.450073 -0.535304,-0.528425 -1.710621,-1.150983 -7.548913,-3.998609 -3.803195,-1.855007 -6.9619,-3.370015 -7.019348,-3.366684 -0.05745,0.0033 -0.556598,0.425791 -1.109224,0.938804 l -1.004771,0.932748 0.758877,4.232914 c 0.417384,2.328101 0.744358,4.244026 0.726609,4.25761 -0.01775,0.01359 -1.735683,-0.879071 -3.817631,-1.983674 l -3.78536,-2.008373 -3.794612,2.014654 c -2.087036,1.108059 -3.804009,2.004804 -3.815494,1.992765 -0.01149,-0.01205 0.301083,-1.914971 0.694598,-4.228736 l 0.715481,-4.206846 -1.000947,-1.000947 -1.000948,-1.000948 -6.914507,3.399727 c -3.802979,1.86985 -7.159792,3.576181 -7.459585,3.791847 -0.804251,0.578565 -1.264096,1.660527 -1.191343,2.803092 0.06083,0.955251 0.108417,1.048108 2.158191,4.210907 l 1.014048,1.564673 H 41.37791 61.964776 Z M 38.638768,32.540328 c 1.450847,-0.762271 2.695954,-1.385947 2.766905,-1.385947 0.07095,0 1.384958,0.659171 2.92002,1.464825 1.535059,0.805654 2.819386,1.436457 2.854058,1.401786 0.03467,-0.03467 -0.179928,-1.505928 -0.476886,-3.269457 L 46.16294,27.54512 48.517467,25.287851 c 1.294991,-1.241498 2.289537,-2.278933 2.210103,-2.305412 -0.07943,-0.02648 -1.543018,-0.248344 -3.25241,-0.493037 l -3.107983,-0.444896 -1.4087,-2.822701 c -0.774786,-1.552485 -1.443926,-2.857926 -1.486979,-2.90098 -0.04305,-0.04305 -0.734568,1.233159 -1.536695,2.836029 l -1.458418,2.914307 -1.435688,0.22098 c -0.78963,0.121539 -2.218027,0.328816 -3.174216,0.460616 -0.956189,0.131799 -1.769819,0.268096 -1.808067,0.30288 -0.03825,0.03479 0.981544,1.07325 2.266205,2.307698 l 2.335745,2.244454 -0.493776,2.851182 c -0.271575,1.56815 -0.531715,3.032692 -0.578086,3.254538 -0.10614,0.507798 -0.266763,0.569576 3.050266,-1.173181 z"
    id="path107" />
</svg>
