<svg id="Ebene_1" data-name="Ebene 1" xmlns="http://www.w3.org/2000/svg" xmlns:xlink="http://www.w3.org/1999/xlink" width="83" height="100" viewBox="0 0 83 100">
  <defs>
    <style>
      .cls-1 {
        fill: none;
      }

      .cls-2 {
        clip-path: url(#clip-path);
      }

      .cls-3 {
        fill: #8c1f21;
      }
    </style>
    <clipPath id="clip-path">
      <rect class="cls-1" x="0.48" y="0.49" width="82.05" height="99.02"/>
    </clipPath>
  </defs>
  <g class="cls-2">
    <path class="cls-3" d="M71.52,69.45a41.06,41.06,0,1,0-59.29.73v0l.19.18.28.27L41.86,98.91,70,71c.31-.29.61-.58.9-.89l.58-.57ZM41.5,8.87c18,0,32.4,14.68,32.65,32.65S59.5,74.16,41.5,74.16,8.61,59.52,8.85,41.52A32.87,32.87,0,0,1,41.5,8.87Z"/>
  </g>
  <path class="cls-3" d="M67.88,42.87v-3H57.45a16,16,0,0,0-3.61-8.72l3.75-3.75-2.12-2.12L51.72,29A16,16,0,0,0,43,25.42V15H40V25.42A16,16,0,0,0,31.28,29l-3.75-3.75L25.41,27.4l3.75,3.75a16,16,0,0,0-3.61,8.72H15.12v3H25.55a16,16,0,0,0,3.61,8.72l-3.75,3.75,2.12,2.12,3.75-3.75A16,16,0,0,0,40,57.32V67.75h3V57.32a16,16,0,0,0,8.72-3.61l3.75,3.75,2.12-2.12-3.75-3.75a16,16,0,0,0,3.61-8.72Z"/>
</svg>
