<svg id="Ebene_1" data-name="Ebene 1" xmlns="http://www.w3.org/2000/svg" xmlns:xlink="http://www.w3.org/1999/xlink" width="83" height="100" viewBox="0 0 83 100">
  <defs>
    <style>
      .cls-1 {
        fill: none;
      }

      .cls-2 {
        clip-path: url(#clip-path);
      }

      .cls-3 {
        fill: #f3a923;
      }
    </style>
    <clipPath id="clip-path">
      <rect class="cls-1" x="0.48" y="0.49" width="82.05" height="99.02"/>
    </clipPath>
  </defs>
  <g class="cls-2">
    <path class="cls-3" d="M71.52,69.45a41.06,41.06,0,1,0-59.29.73v0l.19.18.28.27L41.86,98.91,70,71c.31-.29.61-.58.9-.89l.58-.57ZM41.5,8.87c18,0,32.4,14.68,32.65,32.65S59.5,74.16,41.5,74.16,8.61,59.52,8.85,41.52A32.87,32.87,0,0,1,41.5,8.87Z"/>
  </g>
  <g>
    <polygon class="cls-3" points="43.63 14.84 43.63 52.9 50.66 56.9 48.26 19.12 43.63 14.84"/>
    <polygon class="cls-3" points="41.24 14.84 36.61 19.12 34.21 56.9 41.24 52.9 41.24 14.84"/>
    <polygon class="cls-3" points="30.73 61.2 29.91 64.87 42.37 62.46 55.21 64.87 54.42 61.2 42.49 54.45 30.73 61.2"/>
  </g>
</svg>
