<svg id="Ebene_1" data-name="Ebene 1" xmlns="http://www.w3.org/2000/svg" xmlns:xlink="http://www.w3.org/1999/xlink" width="83" height="100" viewBox="0 0 83 100">
  <defs>
    <style>
      .cls-1 {
        fill: none;
      }

      .cls-2 {
        fill: #00732c;
      }

      .cls-3 {
        clip-path: url(#clip-path);
      }
    </style>
    <clipPath id="clip-path">
      <rect class="cls-1" x="0.44" y="0.49" width="82.05" height="99.02"/>
    </clipPath>
  </defs>
  <g>
    <polygon class="cls-2" points="57.73 47.62 24.97 47.62 21.45 42.15 61.37 42.15 58.4 46.76 57.73 47.62"/>
    <path class="cls-2" d="M54.94,56.68c-.43.21-.87.41-1.29.59a30.5,30.5,0,0,1-24.62,0c-.42-.18-.85-.38-1.29-.59l-.94-.47a3.29,3.29,0,0,1-1.8-3V50.19H57.69v3.07a3.31,3.31,0,0,1-1.81,3Z"/>
    <path class="cls-2" d="M41.41,38.42s5.26-1.65,5.26-6.86a16.15,16.15,0,0,0-.49-4l-1-.05A5.86,5.86,0,0,1,42,26.45l-.6-.42-.6.41a6.28,6.28,0,0,1-3.3,1.1l-.87,0a15.69,15.69,0,0,0-.49,4c0,5.21,5.26,6.86,5.26,6.86M19.5,32.36,41.41,21.62,63.32,32.37a3.26,3.26,0,0,1,1.31,4.71L61.91,41.3h-41l-2.71-4.22a3.27,3.27,0,0,1,1.31-4.72"/>
  </g>
  <g class="cls-3">
    <path class="cls-2" d="M71.48,69.45a41,41,0,1,0-71-27.93A40.91,40.91,0,0,0,12.19,70.18v0l.19.18.28.27L41.82,98.91,70,71c.3-.29.6-.58.89-.89l.59-.57Zm-30-60.58A32.87,32.87,0,0,1,74.11,41.52c.25,18-14.64,32.64-32.65,32.64S8.57,59.52,8.82,41.52A32.86,32.86,0,0,1,41.46,8.87Z"/>
  </g>
</svg>
