<?xml version="1.0" encoding="UTF-8"?>
<svg id="Ebene_1" data-name="Ebene 1" xmlns="http://www.w3.org/2000/svg" width="83" height="100" xmlns:xlink="http://www.w3.org/1999/xlink" viewBox="0 0 83 100">
  <defs>
    <style>
      .cls-1 {
        fill: none;
      }

      .cls-2 {
        clip-path: url(#clippath);
      }

      .cls-3 {
        fill: #004622;
      }
    </style>
    <clipPath id="clippath">
      <rect class="cls-1" x=".48" y=".49" width="82.05" height="99.02"/>
    </clipPath>
  </defs>
  <g>
    <polygon class="cls-3" points="57.71 48.43 24.95 48.43 21.43 42.96 61.35 42.96 58.38 47.56 57.71 48.43"/>
    <path class="cls-3" d="M54.92,57.49c-.43,.21-.86,.41-1.28,.59-7.82,3.46-16.8,3.46-24.62,0-.42-.18-.85-.39-1.29-.6l-.94-.47c-1.1-.54-1.8-1.7-1.8-2.95v-3.07H57.67v3.07c0,1.25-.71,2.4-1.81,2.95l-.94,.47Z"/>
  </g>
  <g class="cls-2">
    <path class="cls-3" d="M71.52,69.45c6.82-7.33,11.02-17.13,11-27.94C82.48,18.9,64.12,.49,41.5,.49S.46,18.9,.47,41.52c0,11.15,4.5,21.26,11.76,28.66v.04s.2,.18,.2,.18c.09,.09,.18,.18,.27,.27l29.15,28.24,28.16-27.9c.3-.29,.6-.59,.9-.89l.58-.58,.03-.09ZM41.5,8.87c17.99,0,32.4,14.68,32.65,32.65,.25,18-14.64,32.65-32.65,32.65S8.61,59.52,8.85,41.52c.24-17.97,14.65-32.65,32.65-32.65Z"/>
  </g>
  <path class="cls-3" d="M65,34.74c-.25-.9-.88-1.65-1.71-2.06l-10.82-5.31-11.1-5.44-12.52,6.14-9.39,4.6c-.84,.41-1.47,1.17-1.71,2.07-.25,.9-.1,1.87,.4,2.66l2.72,4.22H61.88l2.72-4.22c.51-.79,.65-1.75,.4-2.66Zm-12.35,1.24l-4.76-.1c-1.97,1.97-3.66,1.76-3.66,1.76,0,1.14-.38,1.62-.38,1.62h-3.95s-.38-.48-.38-1.62c0,0-1.69,.21-3.66-1.76l-4.76,.1s-4.14-2.09-4.19-4.81h10.52s.29,1.33,1.9,1.9c0,.05,1.09-.05,1.52-.81,.43-.76,.29-1.14,.29-1.14h-1.05s-.24-1.19,.67-1.19h1.81s0,.52,.52,1.38c.52,.85,.91,1.39,1.24,1.77,.06,0,.1,0,.1,0,1.62-.57,1.9-1.9,1.9-1.9h10.52c-.05,2.71-4.19,4.81-4.19,4.81Z"/>
</svg>