<svg id="Ebene_1" data-name="Ebene 1" xmlns="http://www.w3.org/2000/svg" xmlns:xlink="http://www.w3.org/1999/xlink" width="83" height="100" viewBox="0 0 83 100">
  <defs>
    <style>
      .cls-1 {
        fill: none;
      }

      .cls-2 {
        clip-path: url(#clip-path);
      }

      .cls-3 {
        fill: #3d3b3d;
      }

      .cls-4 {
        fill: #3c3a3d;
      }
    </style>
    <clipPath id="clip-path">
      <rect class="cls-1" x="0.48" y="0.49" width="82.05" height="99.02"/>
    </clipPath>
  </defs>
  <g class="cls-2">
    <path class="cls-3" d="M71.52,69.45a41.06,41.06,0,1,0-59.29.73v0l.19.18.28.27L41.86,98.91,70,71c.31-.29.61-.58.9-.89l.58-.57ZM41.5,8.87c18,0,32.4,14.68,32.65,32.65S59.5,74.16,41.5,74.16,8.61,59.52,8.85,41.52A32.87,32.87,0,0,1,41.5,8.87Z"/>
  </g>
  <path class="cls-4" d="M67.88,42.87v-3H57.45a16,16,0,0,0-3.61-8.72l3.75-3.75-2.12-2.12L51.72,29A16,16,0,0,0,43,25.42V15H40V25.42A16,16,0,0,0,31.28,29l-3.75-3.75L25.41,27.4l3.75,3.75a16,16,0,0,0-3.61,8.72H15.12v3H25.55a16,16,0,0,0,3.61,8.72l-3.75,3.75,2.12,2.12,3.75-3.75A16,16,0,0,0,40,57.32V67.75h3V57.32a16,16,0,0,0,8.72-3.61l3.75,3.75,2.12-2.12-3.75-3.75a16,16,0,0,0,3.61-8.72Z"/>
  <path
    style="fill:#cccccc;stroke-width:0.139082"
    d="M 38.870391,73.992021 C 28.611295,73.063337 19.569804,67.63401 13.999248,59.057146 11.681612,55.488734 10.121353,51.474046 9.3171696,47.009736 8.996664,45.230495 8.8798935,40.416747 9.1070124,38.34621 9.9620609,30.551131 13.403101,23.534588 19.014981,18.143109 c 4.98521,-4.78942 10.954222,-7.73111 17.952901,-8.8476726 2.442078,-0.3896069 6.513253,-0.4156271 8.929197,-0.057069 10.781536,1.6001196 19.928545,8.2522326 24.685198,17.9521746 2.234473,4.556618 3.274268,8.721382 3.439939,13.778205 0.172504,5.265419 -0.889925,10.164985 -3.22502,14.872699 -1.761726,3.551767 -3.691062,6.189653 -6.565961,8.977313 -5.035275,4.882483 -11.272377,7.940497 -18.264615,8.955035 -1.838136,0.266704 -5.363181,0.375109 -7.096229,0.218227 z m 4.208603,-11.364238 0.03644,-5.244261 1.155874,-0.179334 c 2.181954,-0.338532 4.743806,-1.398306 6.532507,-2.702337 l 0.930111,-0.678087 1.88244,1.878837 1.882439,1.878837 1.107525,-1.114057 1.107523,-1.114057 -1.858673,-1.862508 -1.858674,-1.862506 0.768133,-1.161861 c 1.384646,-2.094388 2.126018,-3.909309 2.555233,-6.25536 l 0.225897,-1.234733 h 5.197907 5.197906 V 41.376912 39.777469 H 62.74368 57.545773 L 57.310809,38.49096 c -0.430272,-2.355899 -1.2595,-4.359114 -2.623351,-6.33739 l -0.70148,-1.017502 1.865044,-1.868891 1.865045,-1.86889 -1.112657,-1.112657 -1.112656,-1.112656 -1.856287,1.860115 -1.856286,1.860115 -1.062943,-0.729645 c -1.872661,-1.285467 -4.076636,-2.208585 -6.139438,-2.571457 -0.497219,-0.08747 -1.044854,-0.187255 -1.216968,-0.22175 l -0.312935,-0.06272 V 20.094708 14.88178 h -1.529903 -1.529902 v 5.212928 5.212928 l -0.312935,0.06402 c -0.172114,0.03521 -0.751043,0.139173 -1.286509,0.23102 -2.040267,0.349962 -4.899132,1.582527 -6.397775,2.758322 l -0.69541,0.545601 -1.880142,-1.867107 -1.880142,-1.867108 -1.107524,1.114057 -1.107523,1.114057 1.848287,1.852098 1.848285,1.852098 -0.897615,1.342551 c -1.278223,1.911817 -2.271168,4.47758 -2.52784,6.531911 l -0.09974,0.79831 h -5.199551 -5.199552 v 1.599443 1.599444 h 5.190642 5.190641 l 0.15818,1.017458 c 0.341067,2.193827 1.301963,4.581114 2.627427,6.527684 l 0.763604,1.121424 -1.851382,1.8552 -1.851383,1.855202 1.107523,1.114057 1.107524,1.114057 1.880142,-1.866032 1.880142,-1.86603 0.973575,0.69493 c 1.878607,1.340936 4.681803,2.461864 6.81502,2.725156 l 0.834493,0.102997 0.03644,5.249793 0.03644,5.249793 h 1.526557 1.526558 z"
    id="path73" />
</svg>
