<svg id="Ebene_1" data-name="Ebene 1" xmlns="http://www.w3.org/2000/svg" xmlns:xlink="http://www.w3.org/1999/xlink" width="83" height="100" viewBox="0 0 83 100">
  <defs>
    <style>
      .cls-1 {
        fill: none;
      }

      .cls-2 {
        clip-path: url(#clip-path);
      }

      .cls-3 {
        fill: #3c3a3d;
      }

      .cls-4 {
        clip-path: url(#clip-path-2);
      }

      .cls-5 {
        clip-path: url(#clip-path-3);
      }

      .cls-6 {
        fill: #3d3b3d;
      }
    </style>
    <clipPath id="clip-path">
      <rect class="cls-1" x="14.22" y="30.38" width="32.01" height="20.62"/>
    </clipPath>
    <clipPath id="clip-path-2">
      <rect class="cls-1" x="36.48" y="30.38" width="32.01" height="20.62"/>
    </clipPath>
    <clipPath id="clip-path-3">
      <rect class="cls-1" x="0.44" y="0.49" width="82.05" height="99.02"/>
    </clipPath>
  </defs>
  <g>
    <g class="cls-2">
      <path class="cls-3" d="M29.55,35.4a1.14,1.14,0,0,0-.94-1.35,1.27,1.27,0,0,0-1.51.85l-.58,2.29L24.7,30.38,23.21,33.8l1.36,5.74H15.66l-1.44,2.51h11l-1.35,5.41L25.58,51l1.27-5Zm3.79,0a1.12,1.12,0,0,0-.94-1.35,1.27,1.27,0,0,0-1.51.85l-3,11.79a1.14,1.14,0,0,0,.94,1.36,1.27,1.27,0,0,0,1.51-.85Zm3,4.14L38,33.27,36,30.43,33.83,39l-2,7.73a1.13,1.13,0,0,0,.94,1.36,1.26,1.26,0,0,0,1.5-.85l.6-2.32L36.52,51,38,47.58,36.7,42.05h8.09l1.44-2.51Z"/>
    </g>
    <g class="cls-4">
      <path class="cls-3" d="M51.8,35.4a1.12,1.12,0,0,0-.94-1.35,1.26,1.26,0,0,0-1.5.85l-.59,2.29L47,30.38,45.46,33.8l1.36,5.74h-8.9l-1.44,2.51h11l-1.36,5.41,1.7,3.5,1.27-5Zm3.8,0a1.14,1.14,0,0,0-.94-1.35,1.27,1.27,0,0,0-1.51.85l-3,11.79a1.13,1.13,0,0,0,.94,1.36,1.26,1.26,0,0,0,1.5-.85Zm3,4.14,1.71-6.27-2.09-2.84L56.08,39l-2,7.73A1.14,1.14,0,0,0,55,48.05a1.27,1.27,0,0,0,1.51-.85l.59-2.32L58.78,51l1.49-3.42L59,42.05H67l1.45-2.51Z"/>
    </g>
  </g>
  <g class="cls-5">
    <path class="cls-6" d="M71.48,69.45a41,41,0,1,0-71-27.93A40.91,40.91,0,0,0,12.19,70.18v0l.19.18.28.27L41.82,98.91,70,71c.3-.29.6-.58.89-.89l.59-.57Zm-30-60.58A32.87,32.87,0,0,1,74.11,41.52c.25,18-14.64,32.64-32.65,32.64S8.57,59.52,8.82,41.52A32.86,32.86,0,0,1,41.46,8.87Z"/>
  </g>
  <path
    style="fill:#cccccc;stroke-width:0.139082"
    d="M 38.850064,73.990508 C 28.686433,73.074862 19.681995,67.728488 14.116674,59.305085 7.5437063,49.356558 7.1469242,36.335604 13.09356,25.730181 c 1.556985,-2.776778 3.212717,-4.929808 5.638435,-7.331937 5.783214,-5.726974 13.156086,-8.9558177 21.532261,-9.4297457 1.711206,-0.096821 4.252992,0.075825 6.397775,0.4345564 10.309778,1.7243903 19.298112,8.4079073 23.921518,17.7874873 1.611297,3.268863 2.606543,6.439245 3.143565,10.013909 0.306655,2.041235 0.347517,6.716938 0.07597,8.692628 -1.488882,10.832504 -8.159944,20.019936 -18.031177,24.832657 -3.199223,1.559781 -6.041881,2.455151 -9.45758,2.978912 -2.114471,0.324231 -5.552777,0.454067 -7.464261,0.28186 z M 27.62317,43.305409 c 1.071624,-4.196974 1.956851,-7.826652 1.967172,-8.065954 0.04104,-0.951515 -0.905028,-1.553067 -1.83603,-1.167433 -0.464621,0.192452 -0.738733,0.704828 -0.990023,1.850565 -0.09703,0.4424 -0.218066,0.755335 -0.268969,0.69541 -0.0509,-0.05993 -0.460412,-1.501516 -0.910018,-3.203532 -0.449608,-1.702017 -0.851288,-3.093106 -0.892623,-3.091309 -0.04133,0.0018 -0.410412,0.78151 -0.82017,1.732694 l -0.745015,1.729427 0.640703,2.698271 c 0.352387,1.484049 0.640704,2.769705 0.640704,2.857014 0,0.115595 -1.200278,0.158843 -4.415855,0.159114 l -4.415855,4.17e-4 -0.725665,1.286139 -0.725664,1.286138 5.498088,0.03637 c 5.147775,0.03406 5.49348,0.05178 5.425748,0.278164 -0.249026,0.832345 -1.197011,4.793205 -1.196474,4.999092 8.34e-4,0.31196 1.646745,3.725111 1.74769,3.624167 0.04062,-0.04062 0.950633,-3.507737 2.022256,-7.704711 z m 9.71918,6.001971 0.735279,-1.735735 -0.594158,-2.541039 c -0.326785,-1.39757 -0.623827,-2.619271 -0.660091,-2.71489 -0.05203,-0.137194 1.05162,-0.173852 5.234062,-0.173852 2.915,0 5.29915,0.04694 5.298112,0.104311 -9.74e-4,0.05737 -0.282274,1.16829 -0.624968,2.468707 -0.342696,1.300417 -0.623195,2.489569 -0.623331,2.642559 -2.79e-4,0.293183 1.633796,3.766239 1.727346,3.671331 0.02992,-0.03036 0.968896,-3.630526 2.086603,-8.000371 2.110462,-8.251172 2.124197,-8.328675 1.559101,-8.797662 -0.119711,-0.09935 -0.461582,-0.213358 -0.759711,-0.253345 -0.827369,-0.110974 -1.330312,0.420485 -1.671906,1.766695 -0.145575,0.573714 -0.300739,0.949235 -0.344809,0.834492 -0.04407,-0.114742 -0.369,-1.335187 -0.72207,-2.7121 -0.353069,-1.376912 -0.705133,-2.746139 -0.782363,-3.042726 -0.07723,-0.296588 -0.190436,-0.484349 -0.251568,-0.417246 -0.06113,0.0671 -0.438744,0.851723 -0.839139,1.743602 l -0.727989,1.6216 0.640639,2.726677 c 0.352354,1.499673 0.640642,2.788381 0.640642,2.863797 0,0.0876 -1.833322,0.13712 -5.076496,0.13712 -3.661912,0 -5.076495,-0.04352 -5.076495,-0.15617 0,-0.08589 0.349045,-1.467702 0.775657,-3.070687 0.42661,-1.602985 0.74661,-2.990206 0.711111,-3.082715 -0.0355,-0.09251 -0.493153,-0.779586 -1.017008,-1.526835 -0.766733,-1.093699 -0.972612,-1.309649 -1.055785,-1.107428 -0.05682,0.138163 -0.922183,3.474433 -1.923016,7.413932 -1.000833,3.939499 -1.909708,7.471374 -2.019722,7.848609 -0.452779,1.552565 -0.109653,2.304381 1.051712,2.304381 0.858642,0 1.194826,-0.366324 1.529215,-1.666313 0.14166,-0.550726 0.278795,-1.022549 0.304745,-1.048499 0.02595,-0.02595 0.390613,1.231338 0.810365,2.793972 0.419751,1.562633 0.800889,2.841245 0.846971,2.841358 0.04608,1.12e-4 0.414662,-0.780875 0.819065,-1.73553 z m 22.672198,-0.943883 0.330608,-0.802012 -0.583102,-2.535958 c -0.320705,-1.394777 -0.582997,-2.614192 -0.582869,-2.709811 1.39e-4,-0.134975 0.879179,-0.173852 3.930751,-0.173852 h 3.930522 l 0.728727,-1.246742 c 0.400801,-0.685706 0.728729,-1.280282 0.728729,-1.321279 0,-0.041 -2.190543,-0.07454 -4.867872,-0.07454 -3.085769,0 -4.867872,-0.04989 -4.867872,-0.136279 0,-0.120926 1.453541,-5.534959 1.592826,-5.932827 0.03044,-0.08697 -0.438558,-0.832964 -1.042225,-1.657773 -0.68195,-0.93177 -1.124081,-1.4249 -1.167565,-1.302244 -0.03849,0.108576 -0.545234,2.106313 -1.126091,4.439415 -0.580858,2.333101 -1.490271,5.914308 -2.02092,7.958239 -0.530648,2.04393 -0.964815,3.908736 -0.964815,4.144014 0,0.623375 0.538104,1.110542 1.22666,1.110542 0.846614,0 1.202936,-0.373927 1.48901,-1.56258 0.133751,-0.555741 0.276109,-1.067923 0.316351,-1.138182 0.04024,-0.07026 0.400422,1.071783 0.800403,2.537873 0.39998,1.466092 0.77175,2.775315 0.826154,2.909387 0.100352,0.247301 0.499733,-0.509252 1.32259,-2.505393 z M 29.839057,47.980122 c 0.146209,-0.07825 0.329666,-0.261542 0.407684,-0.407319 0.170952,-0.319426 3.202494,-12.171037 3.202494,-12.519934 0,-0.422051 -0.540167,-0.962128 -1.059786,-1.059609 -0.577969,-0.108428 -1.069135,0.08237 -1.357971,0.527527 -0.113934,0.175598 -0.900649,3.050563 -1.748254,6.388812 -1.644011,6.474854 -1.648348,6.506497 -0.957857,6.990135 0.360299,0.252363 1.117239,0.292564 1.51369,0.08039 z m 22.253129,0 c 0.146209,-0.07825 0.32653,-0.255681 0.400715,-0.394297 0.176753,-0.330266 3.209463,-12.164081 3.209463,-12.523515 0,-0.484998 -0.572621,-0.997206 -1.210471,-1.082759 -0.512501,-0.06874 -0.632707,-0.02929 -0.979808,0.321535 -0.354961,0.358772 -0.555988,1.031391 -1.95515,6.541828 -1.662233,6.546498 -1.666198,6.575094 -0.978438,7.05682 0.360299,0.252363 1.117239,0.292564 1.513689,0.08039 z"
    id="path87" />
</svg>
