<svg id="Ebene_1" data-name="Ebene 1" xmlns="http://www.w3.org/2000/svg" xmlns:xlink="http://www.w3.org/1999/xlink" width="83" height="100" viewBox="0 0 83 100">
  <defs>
    <style>
      .cls-1 {
        fill: none;
      }

      .cls-2 {
        clip-path: url(#clip-path);
      }

      .cls-3 {
        fill: #3c3a3d;
      }

      .cls-4 {
        clip-path: url(#clip-path-2);
      }

      .cls-5 {
        fill: #3d3b3d;
      }
    </style>
    <clipPath id="clip-path">
      <rect class="cls-1" x="31.03" y="22.07" width="20.86" height="37.24"/>
    </clipPath>
    <clipPath id="clip-path-2">
      <rect class="cls-1" x="0.44" y="0.49" width="82.05" height="99.02"/>
    </clipPath>
  </defs>
  <g class="cls-2">
    <path class="cls-3" d="M51.89,32.5A10.43,10.43,0,1,0,37,41.88L33.8,59.31H49.13L46,41.87a10.39,10.39,0,0,0,5.93-9.37"/>
  </g>
  <g class="cls-4">
    <path class="cls-5" d="M71.48,69.45a41,41,0,1,0-71-27.93A40.91,40.91,0,0,0,12.19,70.18v0l.19.18.28.27L41.82,98.91,70,71c.3-.29.6-.58.89-.89l.59-.57Zm-30-60.58A32.87,32.87,0,0,1,74.11,41.52c.25,18-14.64,32.64-32.65,32.64S8.57,59.52,8.82,41.52A32.86,32.86,0,0,1,41.46,8.87Z"/>
  </g>
  <path
    style="fill:#cccccc;stroke-width:0.139082"
    d="M 38.850064,73.990508 C 28.686433,73.074862 19.681995,67.728488 14.116674,59.305085 7.5437063,49.356558 7.1469242,36.335604 13.09356,25.730181 c 1.556985,-2.776778 3.212717,-4.929808 5.638435,-7.331937 5.783214,-5.726974 13.156086,-8.9558177 21.532261,-9.4297457 1.711206,-0.096821 4.252992,0.075825 6.397775,0.4345564 10.309778,1.7243903 19.298112,8.4079073 23.921518,17.7874873 1.611297,3.268863 2.606543,6.439245 3.143565,10.013909 0.306655,2.041235 0.347517,6.716938 0.07597,8.692628 -1.488882,10.832504 -8.159944,20.019936 -18.031177,24.832657 -3.199223,1.559781 -6.041881,2.455151 -9.45758,2.978912 -2.114471,0.324231 -5.552777,0.454067 -7.464261,0.28186 z M 49.165508,59.226031 c 0,-0.0891 -0.691619,-4.008057 -1.536931,-8.708782 -0.845311,-4.700725 -1.518121,-8.559929 -1.495132,-8.576008 0.02299,-0.01608 0.292146,-0.175872 0.598127,-0.355094 2.494454,-1.461072 4.226948,-3.794931 4.953596,-6.67304 0.251351,-0.995548 0.285418,-1.427745 0.219255,-2.781641 -0.08893,-1.819672 -0.330395,-2.84449 -1.001302,-4.2496 -1.268741,-2.657178 -3.834834,-4.795147 -6.675026,-5.561374 -1.333042,-0.359628 -3.426266,-0.423283 -4.795541,-0.145832 -2.309617,0.467988 -3.933209,1.374179 -5.613899,3.133337 -1.150426,1.204137 -2.122563,2.953184 -2.553751,4.594646 -0.327424,1.246454 -0.320871,3.923848 0.01257,5.13799 0.724089,2.636537 2.300447,4.81083 4.534857,6.255 0.467927,0.302437 0.90801,0.569622 0.977959,0.593745 0.06995,0.02412 -0.590585,3.948374 -1.467858,8.720555 -0.877268,4.772181 -1.595036,8.699511 -1.595036,8.727399 0,0.02789 3.473575,0.05071 7.719054,0.05071 5.781548,0 7.719055,-0.04066 7.719055,-0.162008 z"
    id="path78" />
</svg>
