<svg id="Ebene_1" data-name="Ebene 1" xmlns="http://www.w3.org/2000/svg" xmlns:xlink="http://www.w3.org/1999/xlink" width="83" height="100" viewBox="0 0 83 100">
  <defs>
    <style>
      .cls-1 {
        fill: none;
      }

      .cls-2 {
        clip-path: url(#clip-path);
      }

      .cls-3 {
        fill: #8c1f21;
      }

      .cls-4 {
        fill: #8c1f21;
      }
    </style>
    <clipPath id="clip-path">
      <rect class="cls-1" x="0.48" y="0.49" width="82.05" height="99.02"/>
    </clipPath>
  </defs>
  <g class="cls-2">
    <path class="cls-3" d="M71.52,69.45a41.06,41.06,0,1,0-59.29.73v0l.19.18.28.27L41.86,98.91,70,71c.31-.29.61-.58.9-.89l.58-.57ZM41.5,8.87c18,0,32.4,14.68,32.65,32.65S59.5,74.16,41.5,74.16,8.61,59.52,8.85,41.52A32.87,32.87,0,0,1,41.5,8.87Z"/>
  </g>
  <path class="cls-4" d="M67.88,42.87v-3H47.53a6,6,0,0,0-.7-1.71L57.59,27.4l-2.12-2.12L44.71,36a6,6,0,0,0-1.71-.7V15H40V35.34a6,6,0,0,0-1.71.7L27.53,25.28,25.41,27.4,36.17,38.16a6.3,6.3,0,0,0-.71,1.71H15.12v3H35.46a6.3,6.3,0,0,0,.71,1.71L25.41,55.34l2.12,2.12L38.29,46.7a6,6,0,0,0,1.71.7V67.75h3V47.4a6,6,0,0,0,1.71-.7L55.47,57.46l2.12-2.12L46.83,44.58a6,6,0,0,0,.7-1.71Z"/>
  <path
    style="fill:#ffffff;stroke-width:0.139082"
    d="M 39.499305,74.045779 C 28.824839,73.203527 19.720633,67.848968 13.98597,59.040334 11.6897,55.513186 10.120618,51.469964 9.3171696,47.009736 8.996664,45.230495 8.8798935,40.416747 9.1070124,38.34621 9.9541515,30.623236 13.359966,23.619739 18.864263,18.282027 c 5.119861,-4.964911 11.173594,-7.939489 18.409729,-9.0458544 2.144758,-0.3279218 6.406087,-0.3268373 8.623087,0.00219 7.175956,1.0650054 13.323055,4.1535044 18.428736,9.2591844 2.796395,2.796395 4.658816,5.395395 6.32899,8.832073 2.172145,4.469575 3.203913,8.648569 3.367411,13.639123 0.282659,8.627694 -2.888803,16.753477 -9.00061,23.060982 -5.184493,5.3505 -11.685222,8.674749 -19.054986,9.744065 -1.484442,0.215384 -5.20278,0.371761 -6.467315,0.271985 z m 3.548634,-16.361495 0.002,-10.187761 0.851629,-0.327864 0.851627,-0.327865 5.372219,5.370894 5.372218,5.370895 1.108722,-1.115263 1.108722,-1.115263 -5.400854,-5.402186 -5.400854,-5.402185 0.291557,-0.571501 c 0.160352,-0.314325 0.291554,-0.667875 0.291554,-0.785665 0,-0.190889 1.111014,-0.214164 10.222531,-0.214164 H 67.941586 V 41.376912 39.777469 H 57.719054 c -9.639093,0 -10.223119,-0.0139 -10.232845,-0.243394 -0.0057,-0.133866 -0.124379,-0.493741 -0.263788,-0.799722 l -0.253472,-0.556328 5.373083,-5.388129 5.373083,-5.388128 -1.099929,-1.106419 -1.09993,-1.106419 -5.395237,5.333607 -5.395237,5.333605 L 43.92011,35.52911 43.115438,35.202076 43.079765,25.041929 43.044092,14.88178 h -1.529 -1.529 l -0.002,10.187761 -0.002,10.187761 -0.851629,0.327864 -0.851627,0.327865 -5.372218,-5.370895 -5.372219,-5.370894 -1.108722,1.115263 -1.108722,1.115263 5.365985,5.388128 5.365985,5.388129 -0.316995,0.764951 -0.316994,0.764952 -10.162225,0.03567 -10.162219,0.03567 v 1.597638 1.597639 l 10.162226,0.03567 10.162225,0.03567 0.316994,0.764951 0.316995,0.764952 -5.365985,5.388129 -5.365985,5.388128 1.108722,1.115263 1.108722,1.115263 5.372218,-5.370895 5.372219,-5.370894 0.851627,0.327865 0.851629,0.327864 0.002,10.187761 0.002,10.187761 h 1.529902 1.529903 l 0.002,-10.187761 z"
    id="path73" />
</svg>
